<svg width="40" height="40" viewBox="0 0 40 40" fill="none" xmlns="http://www.w3.org/2000/svg">
<path d="M20 40C31.0457 40 40 31.0457 40 20C40 8.9543 31.0457 0 20 0C8.9543 0 0 8.9543 0 20C0 31.0457 8.9543 40 20 40Z" fill="#FFE4E5"/>
<path d="M29.7585 23.92L23.3585 12.4C22.4985 10.85 21.3085 10 19.9985 10C18.6885 10 17.4985 10.85 16.6385 12.4L10.2385 23.92C9.42851 25.39 9.33851 26.8 9.98851 27.91C10.6385 29.02 11.9185 29.63 13.5985 29.63H26.3985C28.0785 29.63 29.3585 29.02 30.0085 27.91C30.6585 26.8 30.5685 25.38 29.7585 23.92Z" fill="#EB0D0D"/>
<path d="M20 22.75C19.59 22.75 19.25 22.41 19.25 22V17C19.25 16.59 19.59 16.25 20 16.25C20.41 16.25 20.75 16.59 20.75 17V22C20.75 22.41 20.41 22.75 20 22.75Z" fill="white"/>
<path d="M20 26.0005C19.94 26.0005 19.87 25.9905 19.8 25.9805C19.74 25.9705 19.68 25.9505 19.62 25.9205C19.56 25.9005 19.5 25.8705 19.44 25.8305C19.39 25.7905 19.34 25.7505 19.29 25.7105C19.11 25.5205 19 25.2605 19 25.0005C19 24.7405 19.11 24.4805 19.29 24.2905C19.34 24.2505 19.39 24.2105 19.44 24.1705C19.5 24.1305 19.56 24.1005 19.62 24.0805C19.68 24.0505 19.74 24.0305 19.8 24.0205C19.93 23.9905 20.07 23.9905 20.19 24.0205C20.26 24.0305 20.32 24.0505 20.38 24.0805C20.44 24.1005 20.5 24.1305 20.56 24.1705C20.61 24.2105 20.66 24.2505 20.71 24.2905C20.89 24.4805 21 24.7405 21 25.0005C21 25.2605 20.89 25.5205 20.71 25.7105C20.66 25.7505 20.61 25.7905 20.56 25.8305C20.5 25.8705 20.44 25.9005 20.38 25.9205C20.32 25.9505 20.26 25.9705 20.19 25.9805C20.13 25.9905 20.06 26.0005 20 26.0005Z" fill="white"/>
</svg>
