<svg width="20" height="24" viewBox="0 0 20 24" fill="none" xmlns="http://www.w3.org/2000/svg">
<path d="M19.1664 11.1667C18.9454 11.1667 18.7335 11.2545 18.5772 11.4107C18.4209 11.567 18.3331 11.779 18.3331 12C18.3399 13.9377 17.6734 15.8177 16.4477 17.3185C15.222 18.8193 13.513 19.8478 11.613 20.2282C9.71298 20.6086 7.73981 20.3173 6.03076 19.4041C4.32171 18.4908 2.98289 17.0124 2.24313 15.2214C1.50337 13.4304 1.40861 11.4381 1.97503 9.58501C2.54146 7.7319 3.73391 6.13305 5.34856 5.06173C6.96321 3.9904 8.89983 3.51313 10.8274 3.71148C12.755 3.90982 14.5538 4.77148 15.9164 6.14917C15.889 6.15664 15.8612 6.16249 15.8331 6.16667H13.3331C13.1121 6.16667 12.9001 6.25446 12.7438 6.41074C12.5876 6.56702 12.4998 6.77899 12.4998 7C12.4998 7.22101 12.5876 7.43297 12.7438 7.58926C12.9001 7.74554 13.1121 7.83333 13.3331 7.83333H15.8331C16.4961 7.83333 17.132 7.56994 17.6009 7.1011C18.0697 6.63226 18.3331 5.99637 18.3331 5.33333V2.83333C18.3331 2.61232 18.2453 2.40036 18.089 2.24408C17.9327 2.0878 17.7208 2 17.4998 2C17.2788 2 17.0668 2.0878 16.9105 2.24408C16.7542 2.40036 16.6664 2.61232 16.6664 2.83333V4.55417C14.9602 3.02878 12.7822 2.13514 10.4963 2.02259C8.21042 1.91003 5.95514 2.58538 4.10734 3.93578C2.25953 5.28618 0.931132 7.22982 0.344124 9.44192C-0.242884 11.654 -0.0529441 14.0006 0.882205 16.0895C1.81735 18.1784 3.44106 19.883 5.48201 20.9187C7.52295 21.9543 9.85749 22.2581 12.0955 21.7794C14.3335 21.3006 16.3395 20.0683 17.7781 18.2884C19.2168 16.5084 20.001 14.2887 19.9998 12C19.9998 11.779 19.912 11.567 19.7557 11.4107C19.5994 11.2545 19.3874 11.1667 19.1664 11.1667ZM9.99977 7C9.77876 7 9.5668 7.0878 9.41051 7.24408C9.25423 7.40036 9.16644 7.61232 9.16644 7.83333V12C9.16648 12.221 9.25431 12.4329 9.4106 12.5892L11.9106 15.0892C12.0678 15.241 12.2783 15.325 12.4968 15.3231C12.7153 15.3212 12.9243 15.2335 13.0788 15.079C13.2333 14.9245 13.3209 14.7155 13.3228 14.497C13.3247 14.2785 13.2407 14.068 13.0889 13.9108L10.8331 11.655V7.83333C10.8331 7.61232 10.7453 7.40036 10.589 7.24408C10.4327 7.0878 10.2208 7 9.99977 7Z" fill="#BACEEE"/>
</svg>
