<svg width="40" height="40" viewBox="0 0 40 40" fill="none" xmlns="http://www.w3.org/2000/svg">
<path d="M20 40C31.0457 40 40 31.0457 40 20C40 8.9543 31.0457 0 20 0C8.9543 0 0 8.9543 0 20C0 31.0457 8.9543 40 20 40Z" fill="#F7EAFF"/>
<path d="M24.7502 11.56V10C24.7502 9.59 24.4102 9.25 24.0002 9.25C23.5902 9.25 23.2502 9.59 23.2502 10V11.5H16.7502V10C16.7502 9.59 16.4102 9.25 16.0002 9.25C15.5902 9.25 15.2502 9.59 15.2502 10V11.56C12.5502 11.81 11.2402 13.42 11.0402 15.81C11.0202 16.1 11.2602 16.34 11.5402 16.34H28.4602C28.7502 16.34 28.9902 16.09 28.9602 15.81C28.7602 13.42 27.4502 11.81 24.7502 11.56Z" fill="#7316AD"/>
<path d="M28 17.84H12C11.45 17.84 11 18.29 11 18.84V25C11 28 12.5 30 16 30H24C27.5 30 29 28 29 25V18.84C29 18.29 28.55 17.84 28 17.84ZM17.21 26.21C17.11 26.3 17 26.37 16.88 26.42C16.76 26.47 16.63 26.5 16.5 26.5C16.37 26.5 16.24 26.47 16.12 26.42C16 26.37 15.89 26.3 15.79 26.21C15.61 26.02 15.5 25.76 15.5 25.5C15.5 25.24 15.61 24.98 15.79 24.79C15.89 24.7 16 24.63 16.12 24.58C16.36 24.48 16.64 24.48 16.88 24.58C17 24.63 17.11 24.7 17.21 24.79C17.39 24.98 17.5 25.24 17.5 25.5C17.5 25.76 17.39 26.02 17.21 26.21ZM17.42 22.38C17.37 22.5 17.3 22.61 17.21 22.71C17.11 22.8 17 22.87 16.88 22.92C16.76 22.97 16.63 23 16.5 23C16.37 23 16.24 22.97 16.12 22.92C16 22.87 15.89 22.8 15.79 22.71C15.7 22.61 15.63 22.5 15.58 22.38C15.53 22.26 15.5 22.13 15.5 22C15.5 21.87 15.53 21.74 15.58 21.62C15.63 21.5 15.7 21.39 15.79 21.29C15.89 21.2 16 21.13 16.12 21.08C16.36 20.98 16.64 20.98 16.88 21.08C17 21.13 17.11 21.2 17.21 21.29C17.3 21.39 17.37 21.5 17.42 21.62C17.47 21.74 17.5 21.87 17.5 22C17.5 22.13 17.47 22.26 17.42 22.38ZM20.71 22.71C20.61 22.8 20.5 22.87 20.38 22.92C20.26 22.97 20.13 23 20 23C19.87 23 19.74 22.97 19.62 22.92C19.5 22.87 19.39 22.8 19.29 22.71C19.11 22.52 19 22.26 19 22C19 21.74 19.11 21.48 19.29 21.29C19.39 21.2 19.5 21.13 19.62 21.08C19.86 20.97 20.14 20.97 20.38 21.08C20.5 21.13 20.61 21.2 20.71 21.29C20.89 21.48 21 21.74 21 22C21 22.26 20.89 22.52 20.71 22.71Z" fill="#7316AD"/>
</svg>
