<svg width="24" height="20" viewBox="0 0 24 20" fill="none" xmlns="http://www.w3.org/2000/svg">
<path d="M4.66375 2.07812L23.5938 2L20.9313 12.9375H7.555L4.2325 0.4375H0.4375" stroke="#232323" stroke-width="0.875" stroke-linecap="round" stroke-linejoin="round"/>
<path d="M8.90555 18.6797C9.71741 18.6797 10.3755 17.9941 10.3755 17.1484C10.3755 16.3028 9.71741 15.6172 8.90555 15.6172C8.09369 15.6172 7.43555 16.3028 7.43555 17.1484C7.43555 17.9941 8.09369 18.6797 8.90555 18.6797Z" stroke="#232323" stroke-width="0.875" stroke-linecap="round" stroke-linejoin="round"/>
<path d="M19.8811 18.6797C20.693 18.6797 21.3511 17.9941 21.3511 17.1484C21.3511 16.3028 20.693 15.6172 19.8811 15.6172C19.0693 15.6172 18.4111 16.3028 18.4111 17.1484C18.4111 17.9941 19.0693 18.6797 19.8811 18.6797Z" stroke="#232323" stroke-width="0.875" stroke-linecap="round" stroke-linejoin="round"/>
<path d="M6.58789 9.30859H21.8279" stroke="#232323" stroke-width="0.875" stroke-linecap="round" stroke-linejoin="round"/>
<path d="M5.59375 5.58203H22.7313" stroke="#232323" stroke-width="0.875" stroke-linecap="round" stroke-linejoin="round"/>
<path d="M9.02539 2.05856V12.9453" stroke="#232323" stroke-width="0.875" stroke-linecap="round" stroke-linejoin="round"/>
<path d="M5.90527 2.05856V6.74606" stroke="#232323" stroke-width="0.875" stroke-linecap="round" stroke-linejoin="round"/>
<path d="M12.123 2.05856V12.9453" stroke="#232323" stroke-width="0.875" stroke-linecap="round" stroke-linejoin="round"/>
<path d="M15.2168 2.05856V12.9453" stroke="#232323" stroke-width="0.875" stroke-linecap="round" stroke-linejoin="round"/>
<path d="M18.3135 2.05856V12.9453" stroke="#232323" stroke-width="0.875" stroke-linecap="round" stroke-linejoin="round"/>
<path d="M21.4111 2.05856V11.0156" stroke="#232323" stroke-width="0.875" stroke-linecap="round" stroke-linejoin="round"/>
<path d="M7.55469 12.9453V14.6211C7.55469 14.8853 7.65543 15.1386 7.83477 15.3254C8.0141 15.5122 8.25732 15.6172 8.51094 15.6172H19.9334" stroke="#232323" stroke-width="0.875" stroke-linecap="round" stroke-linejoin="round"/>
</svg>
