<svg width="38" height="38" viewBox="0 0 38 38" fill="none" xmlns="http://www.w3.org/2000/svg">
<rect x="0.25" y="0.25" width="37.5" height="37.5" rx="2.75" fill="white" fill-opacity="0.47" stroke="#DBDBDB" stroke-width="0.5"/>
<path d="M27.1676 14.6994C27.1676 14.4537 27.1062 14.208 26.9219 14.0851C26.7375 13.9622 26.5532 13.9622 26.4304 13.9622C26.3075 13.9622 25.9389 14.0237 25.9389 14.7609V26.4948C25.9389 28.2764 24.8945 29.3208 23.0515 29.3208C20.2255 29.3208 17.4609 29.3208 14.635 29.3208C12.7305 29.3208 11.6861 28.2764 11.6861 26.4334V14.8223C11.6861 14.6994 11.6861 14.638 11.6861 14.5151C11.6247 14.1465 11.3789 13.9622 11.0718 13.9622C10.8875 13.9622 10.4574 13.9622 10.4574 14.8223V16.3582C10.4574 19.7985 10.4574 23.1774 10.4574 26.6177C10.4574 29.0137 12.0547 30.611 14.4507 30.611C17.3381 30.611 20.2255 30.611 23.0515 30.611C25.5089 30.611 27.0447 29.0137 27.0447 26.5563C27.0447 25.2662 27.0447 23.9146 27.0447 22.6245V17.8326C27.229 16.8496 27.229 15.8053 27.1676 14.6994Z" fill="white"/>
<path d="M27.6591 10.7062C26.9833 10.7062 26.3689 10.7062 25.6932 10.7062H23.9116C23.7887 10.7062 23.6044 10.7062 23.4815 10.7062L22.8672 10.6448V9.53894C22.8672 9.1089 22.8672 8.67886 22.8672 8.24882C22.8672 7.57304 22.6829 7.38873 22.0071 7.38873C19.9798 7.38873 17.891 7.38873 15.8637 7.38873C15.1264 7.38873 14.9421 7.57304 14.9421 8.24882C14.9421 8.67886 14.9421 9.1089 14.9421 9.53894V10.5833L14.3278 10.6448C14.2049 10.6448 14.0821 10.6448 13.9592 10.6448H13.652C12.5462 10.6448 11.4404 10.6448 10.2731 10.6448C9.84308 10.6448 9.65877 10.7676 9.59734 10.9519C9.41304 11.1977 9.53591 11.4434 9.59734 11.5663C9.72021 11.7506 9.96595 11.8734 10.2117 11.8734C11.7475 11.8734 13.3448 11.8734 14.8807 11.8734H19.304C20.1641 11.8734 21.0241 11.8734 21.8842 11.8734C23.7887 11.8734 25.6932 11.8734 27.5976 11.8734C28.0277 11.8734 28.1505 11.812 28.2734 11.6277C28.4577 11.3205 28.4577 11.1362 28.3963 11.0134C28.1505 10.8291 27.9662 10.7062 27.6591 10.7062ZM21.5156 10.6448H16.2323V8.67886H21.5156V10.6448Z" fill="white"/>
<path d="M16.048 18.7541C16.048 20.5971 16.048 22.4402 16.048 24.2832C16.048 24.4675 16.048 24.7132 16.1094 24.8976C16.1708 25.1433 16.478 25.2662 16.7237 25.2047C17.0923 25.1433 17.2766 24.8975 17.2766 24.5289C17.2766 23.6074 17.2766 22.7473 17.2766 21.8258V19.6142C17.2766 18.6927 17.2766 17.8326 17.2766 16.9111C17.2766 16.481 17.0309 16.2353 16.6623 16.2353C16.1708 16.2353 16.048 16.6039 16.048 16.9111C16.048 16.9725 16.048 17.0339 16.048 17.0954V18.7541Z" fill="white"/>
<path d="M20.4098 21.8258C20.4098 22.6859 20.4098 23.6074 20.4098 24.4675C20.4098 24.8975 20.6555 25.2047 21.0241 25.2047C21.3928 25.2047 21.6385 24.959 21.6385 24.5289C21.6385 22.5016 21.6385 20.4128 21.6385 18.3855V16.9111C21.6385 16.6039 21.5156 16.4196 21.2085 16.2967C21.147 16.2967 21.0241 16.2353 20.9627 16.2353C20.8398 16.2353 20.717 16.2967 20.6555 16.3582C20.4712 16.481 20.3484 16.7268 20.3484 16.9725C20.3484 17.8326 20.3484 18.7541 20.3484 19.6142V20.72L20.4098 21.8258Z" fill="white"/>
</svg>
