<svg width="19" height="24" viewBox="0 0 19 24" fill="none" xmlns="http://www.w3.org/2000/svg">
<path d="M17.6676 7.3107C17.6676 7.06496 17.6062 6.81922 17.4219 6.69635C17.2375 6.57349 17.0532 6.57349 16.9304 6.57349C16.8075 6.57349 16.4389 6.63492 16.4389 7.37213V19.1061C16.4389 20.8877 15.3945 21.9321 13.5515 21.9321C10.7255 21.9321 7.96095 21.9321 5.13496 21.9321C3.2305 21.9321 2.18611 20.8877 2.18611 19.0447V7.43357C2.18611 7.3107 2.18611 7.24927 2.18611 7.1264C2.12468 6.75779 1.87894 6.57349 1.57177 6.57349C1.38746 6.57349 0.957423 6.57349 0.957423 7.43357V8.96943C0.957423 12.4098 0.957423 15.7887 0.957423 19.229C0.957423 21.6249 2.55472 23.2222 4.95066 23.2222C7.83808 23.2222 10.7255 23.2222 13.5515 23.2222C16.0089 23.2222 17.5447 21.6249 17.5447 19.1675C17.5447 17.8774 17.5447 16.5259 17.5447 15.2357V10.4439C17.729 9.4609 17.729 8.41652 17.6676 7.3107Z" fill="white"/>
<path d="M18.1591 3.31746C17.4833 3.31746 16.8689 3.31746 16.1932 3.31746H14.4116C14.2887 3.31746 14.1044 3.31746 13.9815 3.31746L13.3672 3.25603V2.15021C13.3672 1.72016 13.3672 1.29012 13.3672 0.860082C13.3672 0.184303 13.1829 0 12.5071 0C10.4798 0 8.39099 0 6.36365 0C5.62644 0 5.44214 0.184303 5.44214 0.860082C5.44214 1.29012 5.44214 1.72016 5.44214 2.15021V3.19459L4.82779 3.25603C4.70492 3.25603 4.58205 3.25603 4.45919 3.25603H4.15201C3.04619 3.25603 1.94037 3.25603 0.773119 3.25603C0.343078 3.25603 0.158775 3.37889 0.0973403 3.5632C-0.086963 3.80894 0.0359059 4.05467 0.0973403 4.17754C0.220209 4.36185 0.465947 4.48471 0.711685 4.48471C2.24755 4.48471 3.84484 4.48471 5.3807 4.48471H9.80398C10.6641 4.48471 11.5241 4.48471 12.3842 4.48471C14.2887 4.48471 16.1932 4.48471 18.0976 4.48471C18.5277 4.48471 18.6505 4.42328 18.7734 4.23898C18.9577 3.9318 18.9577 3.7475 18.8963 3.62463C18.6505 3.44033 18.4662 3.31746 18.1591 3.31746ZM12.0156 3.25603H6.73226V1.29012H12.0156V3.25603Z" fill="white"/>
<path d="M6.54796 11.3654C6.54796 13.2084 6.54796 15.0514 6.54796 16.8945C6.54796 17.0788 6.54796 17.3245 6.60939 17.5088C6.67083 17.7546 6.978 17.8774 7.22374 17.816C7.59234 17.7546 7.77665 17.5088 7.77665 17.1402C7.77665 16.2187 7.77665 15.3586 7.77665 14.4371V12.2255C7.77665 11.3039 7.77665 10.4439 7.77665 9.52234C7.77665 9.0923 7.53091 8.84656 7.1623 8.84656C6.67083 8.84656 6.54796 9.21517 6.54796 9.52234C6.54796 9.58377 6.54796 9.64521 6.54796 9.70664V11.3654Z" fill="white"/>
<path d="M10.9098 14.4371C10.9098 15.2972 10.9098 16.2187 10.9098 17.0788C10.9098 17.5088 11.1555 17.816 11.5241 17.816C11.8928 17.816 12.1385 17.5702 12.1385 17.1402C12.1385 15.1129 12.1385 13.0241 12.1385 10.9968V9.52234C12.1385 9.21517 12.0156 9.03086 11.7085 8.90799C11.647 8.90799 11.5241 8.84656 11.4627 8.84656C11.3398 8.84656 11.217 8.908 11.1555 8.96943C10.9712 9.0923 10.8484 9.33804 10.8484 9.58377C10.8484 10.4439 10.8484 11.3654 10.8484 12.2255V13.3313L10.9098 14.4371Z" fill="white"/>
</svg>
