<svg width="23" height="23" viewBox="0 0 23 23" fill="none" xmlns="http://www.w3.org/2000/svg">
<path d="M17.3836 20.7199C16.5402 20.969 15.5436 21.084 14.3744 21.084H8.6244C7.45523 21.084 6.45857 20.969 5.61523 20.7199C5.82607 18.2282 8.38482 16.2636 11.4994 16.2636C14.614 16.2636 17.1727 18.2282 17.3836 20.7199Z" stroke="#BACEEE" stroke-width="1.4375" stroke-linecap="round" stroke-linejoin="round"/>
<path d="M14.3753 1.91666H8.62533C3.83366 1.91666 1.91699 3.83332 1.91699 8.62499V14.375C1.91699 17.9975 3.00949 19.9812 5.61616 20.7192C5.82699 18.2275 8.38574 16.2629 11.5003 16.2629C14.6149 16.2629 17.1737 18.2275 17.3845 20.7192C19.9912 19.9812 21.0837 17.9975 21.0837 14.375V8.62499C21.0837 3.83332 19.167 1.91666 14.3753 1.91666ZM11.5003 13.5796C9.60283 13.5796 8.06949 12.0367 8.06949 10.1392C8.06949 8.24167 9.60283 6.70832 11.5003 6.70832C13.3978 6.70832 14.9312 8.24167 14.9312 10.1392C14.9312 12.0367 13.3978 13.5796 11.5003 13.5796Z" stroke="#BACEEE" stroke-width="1.4375" stroke-linecap="round" stroke-linejoin="round"/>
<path d="M14.933 10.1392C14.933 12.0367 13.3996 13.5796 11.5021 13.5796C9.60462 13.5796 8.07129 12.0367 8.07129 10.1392C8.07129 8.24169 9.60462 6.70834 11.5021 6.70834C13.3996 6.70834 14.933 8.24169 14.933 10.1392Z" stroke="#BACEEE" stroke-width="1.4375" stroke-linecap="round" stroke-linejoin="round"/>
</svg>
