<svg width="35" height="35" viewBox="0 0 35 35" fill="none" xmlns="http://www.w3.org/2000/svg">
<rect width="34.5058" height="34.5058" rx="11.9371" fill="#122544"/>
<path d="M17.0787 24.1548C14.7772 24.1548 12.519 24.1548 10.2174 24.1548C9.26207 24.1548 8.56726 23.5469 8.39355 22.6349C8.39355 22.5481 8.39355 22.4612 8.39355 22.3309C8.39355 19.7688 8.39355 17.2067 8.39355 14.6011C8.39355 13.6458 9.17522 12.8641 10.1306 12.8641C10.782 12.8641 11.4334 12.8641 12.1282 12.8641C12.519 12.8641 12.823 12.647 12.9533 12.2561C13.127 11.7785 13.2573 11.3008 13.431 10.8231C13.5178 10.4757 13.8218 10.2585 14.2126 10.2585C16.1234 10.2585 18.0341 10.2585 19.9014 10.2585C20.2922 10.2585 20.5962 10.4757 20.7265 10.8231C20.9002 11.3008 21.0305 11.7785 21.2042 12.2561C21.3345 12.647 21.595 12.8641 22.0293 12.8641C22.6807 12.8641 23.2886 12.8641 23.94 12.8641C24.9822 12.8641 25.7639 13.6023 25.7639 14.688C25.7639 17.2501 25.7639 19.8122 25.7639 22.3744C25.7639 23.1995 25.1994 23.9377 24.4177 24.1114C24.244 24.1548 24.0703 24.1548 23.8966 24.1548C21.595 24.1548 19.3369 24.1548 17.0787 24.1548ZM17.0787 22.4178C19.4671 22.4178 21.4213 20.4636 21.4213 18.0752C21.4213 15.6868 19.5106 13.7326 17.0787 13.7326C14.6903 13.7326 12.7361 15.6434 12.7361 18.0752C12.7361 20.4202 14.6903 22.4178 17.0787 22.4178ZM23.4189 15.8171C23.7663 15.8171 24.0269 15.5565 24.0269 15.2091C24.0269 14.8617 23.7663 14.6011 23.4189 14.6011C23.0715 14.6011 22.8109 14.8617 22.8109 15.2091C22.8109 15.5565 23.0715 15.8171 23.4189 15.8171Z" fill="white"/>
<path d="M17.0353 20.6808C15.6022 20.6808 14.4297 19.5083 14.4297 18.0752C14.4297 16.6422 15.6022 15.5131 17.0353 15.5131C18.4683 15.5131 19.6408 16.6856 19.6408 18.1186C19.6408 19.5083 18.5118 20.6808 17.0353 20.6808Z" fill="white"/>
</svg>
