<svg width="22" height="22" viewBox="0 0 22 22" fill="none" xmlns="http://www.w3.org/2000/svg">
<path d="M19.096 7.3425L13.0918 2.53916C11.9185 1.60416 10.0852 1.595 8.921 2.53L2.91684 7.3425C2.05517 8.03 1.53267 9.405 1.716 10.4867L2.871 17.3983C3.13684 18.9475 4.576 20.1667 6.1435 20.1667H15.8602C17.4093 20.1667 18.876 18.92 19.1418 17.3892L20.2968 10.4775C20.4618 9.405 19.9393 8.03 19.096 7.3425ZM11.6893 16.5C11.6893 16.8758 11.3777 17.1875 11.0018 17.1875C10.626 17.1875 10.3143 16.8758 10.3143 16.5V13.75C10.3143 13.3742 10.626 13.0625 11.0018 13.0625C11.3777 13.0625 11.6893 13.3742 11.6893 13.75V16.5Z" fill="#292D32"/>
</svg>
