<svg width="14" height="18" viewBox="0 0 14 18" fill="none" xmlns="http://www.w3.org/2000/svg">
<path fill-rule="evenodd" clip-rule="evenodd" d="M6.96733 9.8805C5.64696 9.8805 4.57246 8.80688 4.57246 7.4865C4.57246 6.16613 5.64696 5.09163 6.96733 5.09163C8.28771 5.09163 9.36133 6.16613 9.36133 7.4865C9.36133 8.80688 8.28771 9.8805 6.96733 9.8805ZM11.8796 2.14287C10.54 0.76125 8.79521 0 6.96733 0C5.13771 0 3.39296 0.76125 2.05246 2.14375C0.691833 3.54725 -0.0554171 5.43288 0.00320792 7.31763C0.168583 12.6586 6.45983 16.8175 6.72846 16.9916L6.96383 17.1448L7.20183 16.9943C7.46958 16.8245 13.7652 12.7663 13.9315 7.31675C13.9892 5.43288 13.2411 3.54638 11.8796 2.14287Z" fill="#0F2446"/>
</svg>
