<svg width="294" height="229" viewBox="0 0 294 229" fill="none" xmlns="http://www.w3.org/2000/svg">
<path d="M43.5019 46.4164C52.2195 44.0727 61.4999 45.0621 69.6028 49.0452C83.6454 55.9481 114.353 67.2733 117.225 36.0681C120.679 -1.46015 198.826 -12.4364 228.026 16.2248C263.55 51.0915 229.473 75.8236 258.334 91.0678C287.194 106.312 310.642 146.772 276.633 164.247C254.612 175.563 235.371 173.196 233.776 184.625C230.766 206.191 231.383 219.218 211.602 225.211C174.194 236.542 164.424 215.508 141.119 211.841C117.814 208.175 31.8263 240.004 3.11404 188.727C-14.1944 157.816 47.0885 129.026 29.6994 112.183C11.1923 94.257 12.8493 54.6573 43.5019 46.4164Z" fill="#F5F2FF"/>
<g clip-path="url(#clip0_4000_7305)">
<path d="M94.0433 168.312C93.9907 168.312 93.9382 168.292 93.8977 168.251C93.8189 168.17 93.8209 168.043 93.9018 167.966L100.532 161.498C100.613 161.421 100.74 161.421 100.817 161.502C100.895 161.583 100.893 161.71 100.813 161.787L94.1827 168.255C94.1443 168.294 94.0918 168.312 94.0412 168.312H94.0433Z" fill="#363E44"/>
<path d="M96.2972 170.604C96.2446 170.604 96.1921 170.584 96.1516 170.543C96.0728 170.462 96.0748 170.335 96.1557 170.258L102.786 163.79C102.866 163.713 102.994 163.713 103.071 163.794C103.149 163.875 103.147 164.002 103.067 164.079L96.4366 170.547C96.3982 170.586 96.3457 170.604 96.2951 170.604H96.2972Z" fill="#363E44"/>
<path d="M82.6777 187.021H82.6696C81.5033 187.021 80.4077 186.562 79.5851 185.737L78.916 185.066C78.0933 184.24 77.6426 183.142 77.6426 181.976C77.6426 180.809 78.1014 179.714 78.9261 178.891L98.7854 159.099C99.5697 158.316 100.843 158.32 101.623 159.103L105.622 163.115C105.999 163.495 106.208 163.998 106.208 164.536C106.208 165.072 105.997 165.575 105.617 165.955L85.7581 185.747C84.9334 186.568 83.8399 187.021 82.6756 187.021H82.6777ZM79.203 184.779L79.8721 185.45C80.62 186.2 81.6124 186.615 82.6716 186.617H82.6797C83.7348 186.617 84.7273 186.206 85.4751 185.46L105.334 165.668C105.638 165.365 105.805 164.964 105.805 164.536C105.805 164.107 105.64 163.705 105.339 163.402L101.34 159.39C101.037 159.086 100.635 158.919 100.208 158.919H100.206C99.7799 158.919 99.3777 159.084 99.0745 159.386L79.2131 179.176C78.4632 179.924 78.0489 180.917 78.0468 181.976C78.0468 183.035 78.4551 184.029 79.203 184.779Z" fill="#363E44"/>
<path d="M105.324 163.333C105.271 163.333 105.22 163.313 105.18 163.275L101.465 159.547C101.426 159.509 101.406 159.458 101.406 159.404C101.406 159.349 101.428 159.299 101.465 159.26L113.714 147.086C113.793 147.007 113.92 147.007 113.999 147.086L117.714 150.813C117.753 150.852 117.773 150.902 117.773 150.957C117.773 151.011 117.751 151.062 117.714 151.1L105.465 163.275C105.425 163.313 105.374 163.333 105.322 163.333H105.324ZM101.893 159.404L105.324 162.846L117.286 150.957L113.855 147.514L101.893 159.404Z" fill="#363E44"/>
<path d="M150.723 160.647C138.255 160.647 126.536 155.792 117.721 146.977C108.906 138.162 104.051 126.44 104.051 113.975C104.051 101.51 108.906 89.788 117.721 80.9731C126.536 72.1561 138.255 67.301 150.723 67.301C163.19 67.301 174.91 72.1561 183.725 80.9711C192.54 89.786 197.395 101.508 197.395 113.973C197.395 126.438 192.54 138.16 183.725 146.975C174.91 155.79 163.188 160.645 150.723 160.645V160.647ZM150.723 67.7275C138.874 67.7275 127.027 72.237 118.006 81.2581C99.9657 99.2982 99.9657 128.652 118.006 146.692C136.046 164.732 165.399 164.732 183.44 146.692C201.48 128.652 201.48 99.2982 183.44 81.2581C174.419 72.237 162.57 67.7275 150.723 67.7275Z" fill="#363E44"/>
<path d="M121.257 84.7125C121.205 84.7125 121.154 84.6923 121.114 84.6539C121.035 84.5751 121.035 84.4478 121.114 84.3689C133.04 72.4432 150.843 68.8332 166.474 75.172C166.577 75.2144 166.628 75.3317 166.585 75.4347C166.543 75.5378 166.425 75.5884 166.322 75.5459C150.843 69.2698 133.209 72.8434 121.399 84.6539C121.358 84.6944 121.308 84.7125 121.255 84.7125H121.257Z" fill="#363E44"/>
<path d="M150.734 155.846C147.868 155.846 144.996 155.553 142.156 154.963C134.178 153.304 126.901 149.368 121.114 143.581C121.035 143.502 121.035 143.375 121.114 143.296C121.193 143.217 121.32 143.217 121.399 143.296C132.852 154.749 150.061 158.49 165.241 152.824C165.346 152.786 165.461 152.839 165.502 152.944C165.54 153.049 165.488 153.164 165.382 153.205C160.673 154.963 155.715 155.85 150.732 155.85L150.734 155.846Z" fill="#363E44"/>
<path d="M165.841 130.055C174.667 121.229 174.667 106.92 165.841 98.0937C157.015 89.2678 142.705 89.2678 133.879 98.0937C125.053 106.92 125.053 121.229 133.879 130.055C142.705 138.881 157.015 138.881 165.841 130.055Z" fill="white"/>
<path d="M137.41 109.872C138.343 106.87 141.143 104.691 144.452 104.691C146.592 104.691 148.515 105.609 149.861 107.066C151.207 105.609 153.129 104.691 155.27 104.691C158.579 104.691 161.378 106.87 162.31 109.872C162.526 110.565 162.642 111.301 162.642 112.065C162.642 116.136 157.827 123.049 149.861 126.058C141.895 123.049 137.08 116.138 137.08 112.065C137.08 111.301 137.195 110.565 137.412 109.872H137.41Z" fill="#FF5900"/>
</g>
<defs>
<clipPath id="clip0_4000_7305">
<rect width="119.752" height="119.72" fill="white" transform="translate(77.6426 67.301)"/>
</clipPath>
</defs>
</svg>
