<svg width="28" height="28" viewBox="0 0 28 28" fill="none" xmlns="http://www.w3.org/2000/svg">
<path d="M22.9738 20.6754H4.5957L6.89297 18.3781V11.4863C6.89462 9.85884 7.47217 8.28446 8.52333 7.04199C9.57448 5.79952 11.0314 4.96913 12.6361 4.69789V3.44588C12.6361 3.14124 12.7572 2.84908 12.9726 2.63367C13.188 2.41826 13.4801 2.29724 13.7848 2.29724C14.0894 2.29724 14.3816 2.41826 14.597 2.63367C14.8124 2.84908 14.9334 3.14124 14.9334 3.44588V4.69789C15.4472 4.79296 15.9483 4.94714 16.4266 5.15734C16.14 5.85453 16.0296 6.61163 16.1054 7.36163C16.1811 8.11163 16.4406 8.8314 16.8608 9.45721C17.281 10.083 17.8491 10.5956 18.5146 10.9495C19.1802 11.3034 19.9228 11.4878 20.6766 11.4863V18.3781L22.9738 20.6754ZM13.7848 25.2699C14.394 25.2699 14.9784 25.0279 15.4092 24.5971C15.84 24.1662 16.082 23.5819 16.082 22.9727H11.4875C11.4875 23.5819 11.7295 24.1662 12.1604 24.5971C12.5912 25.0279 13.1755 25.2699 13.7848 25.2699ZM20.6766 4.59451C20.2222 4.59451 19.7781 4.72924 19.4003 4.98167C19.0225 5.2341 18.7281 5.59288 18.5542 6.01265C18.3803 6.43242 18.3348 6.89432 18.4235 7.33995C18.5121 7.78558 18.7309 8.19491 19.0522 8.51619C19.3734 8.83747 19.7828 9.05626 20.2284 9.1449C20.674 9.23354 21.1359 9.18805 21.5557 9.01418C21.9755 8.8403 22.3343 8.54585 22.5867 8.16807C22.8391 7.79029 22.9738 7.34613 22.9738 6.89178C22.9738 6.2825 22.7318 5.69818 22.301 5.26736C21.8702 4.83654 21.2859 4.59451 20.6766 4.59451Z" fill="black"/>
</svg>
