<svg width="28" height="28" viewBox="0 0 28 28" fill="none" xmlns="http://www.w3.org/2000/svg">
<path d="M22.9738 20.6754H4.5957L6.89297 18.3781V11.4863C6.89462 9.85884 7.47217 8.28446 8.52333 7.04199C9.57449 5.79952 11.0314 4.96913 12.6361 4.69789V3.44588C12.6361 3.14124 12.7572 2.84908 12.9726 2.63367C13.188 2.41826 13.4801 2.29724 13.7848 2.29724C14.0894 2.29724 14.3816 2.41826 14.597 2.63367C14.8124 2.84908 14.9334 3.14124 14.9334 3.44588V4.69789C15.4472 4.79296 15.9483 4.94714 16.4266 5.15734C16.14 5.85453 16.0296 6.61163 16.1054 7.36163C16.1811 8.11163 16.4406 8.8314 16.8608 9.45721C17.281 10.083 17.8491 10.5956 18.5146 10.9495C19.1802 11.3034 19.9228 11.4878 20.6766 11.4863V18.3781L22.9738 20.6754ZM13.7848 25.2699C14.394 25.2699 14.9784 25.0279 15.4092 24.5971C15.84 24.1662 16.082 23.5819 16.082 22.9727H11.4875C11.4875 23.5819 11.7295 24.1662 12.1604 24.5971C12.5912 25.0279 13.1755 25.2699 13.7848 25.2699Z" fill="black"/>
<path d="M4.56717 20.6754H22.9453L20.648 18.3781V11.4863C20.6464 9.85884 20.0689 8.28446 19.0177 7.04199C17.9665 5.79952 16.5096 4.96913 14.9049 4.69789V3.44588C14.9049 3.14124 14.7839 2.84908 14.5684 2.63367C14.353 2.41826 14.0609 2.29724 13.7562 2.29724C13.4516 2.29724 13.1594 2.41826 12.944 2.63367C12.7286 2.84908 12.6076 3.14124 12.6076 3.44588V4.69789C12.0938 4.79296 11.5927 4.94714 11.1144 5.15734C11.401 5.85453 11.5114 6.61163 11.4356 7.36163C11.3599 8.11163 11.1004 8.8314 10.6802 9.45721C10.26 10.083 9.69193 10.5956 9.02637 10.9495C8.36081 11.3034 7.61825 11.4878 6.86444 11.4863V18.3781L4.56717 20.6754ZM13.7562 25.2699C13.147 25.2699 12.5626 25.0279 12.1318 24.5971C11.701 24.1662 11.459 23.5819 11.459 22.9727H16.0535C16.0535 23.5819 15.8115 24.1662 15.3807 24.5971C14.9498 25.0279 14.3655 25.2699 13.7562 25.2699Z" fill="black"/>
</svg>
