<svg width="68" height="68" viewBox="0 0 68 68" fill="none" xmlns="http://www.w3.org/2000/svg">
<g filter="url(#filter0_f_4726_3220)">
<rect x="4.5" y="4.5" width="59" height="59" rx="9.5" stroke="#565EFF"/>
</g>
<rect x="4.5" y="4.5" width="59" height="59" rx="9.5" stroke="#565EFF"/>
<g filter="url(#filter1_f_4726_3220)">
<path d="M47.6616 40.0922H46.6795L45.7539 28.3999C45.4462 24.8922 42.5539 22.3075 39.0462 22.3075H38.9846H38.8796C38.5858 20.205 36.8061 18.6152 34.6154 18.6152H33.3846C31.1936 18.6152 29.4137 20.2055 29.1202 22.3085C25.7094 22.348 22.8587 24.9188 22.4923 28.3383C22.4923 28.377 22.4926 28.4094 22.4944 28.4398C22.4938 28.447 22.4929 28.4541 22.4923 28.4614L21.3528 40.1537H20.3384C19.0461 40.1537 18 41.1999 18 42.4922V44.5845C18 46.9229 19.8461 48.7691 22.1846 48.7691H24.3016C25.1008 49.172 25.9926 49.3845 26.9231 49.3845H41.3847C42.2908 49.3845 43.1753 49.1709 43.9632 48.7691H45.8154C48.1539 48.7691 50.0001 46.923 50.0001 44.523V42.4307C50 41.1383 48.9539 40.0922 47.6616 40.0922ZM39.5385 33.732C39.5385 34.1012 39.9077 33.732 39.5385 33.732C39.7491 33.732 39.9077 33.732 39.5385 33.732L38.3077 34.3509C38 34.5 39.5 34.5 38.3077 34.3509C38 35 38.4752 34.3722 38.3077 34.3509C36.9748 34.9197 35.5166 35.2306 34 35.2306C32.4811 35.2306 31.024 34.929 29.6923 34.3722V27.846H30.3077C30.6769 27.846 30.9231 27.5999 30.9231 27.2306C30.9231 26.8614 30.6769 26.6152 30.3077 26.6152H27.8461C27.4769 26.6152 27.2308 26.8614 27.2308 27.2306C27.2308 27.5999 27.4769 27.846 27.8461 27.846H28.4615V33.7649C26.3692 32.5641 24.6886 30.6832 23.7231 28.3382C24.0807 25.6562 26.2854 23.667 28.9396 23.5443C29.0259 23.5404 29.1127 23.5382 29.2 23.5382H38.9846C39.0703 23.5382 39.1554 23.5404 39.2401 23.5442C39.2887 23.5464 39.3369 23.5502 39.3851 23.5537C39.4187 23.556 39.4524 23.5578 39.4858 23.5607C39.5561 23.567 39.6261 23.5748 39.6956 23.5837C39.7041 23.5847 39.7125 23.5855 39.7209 23.5866C42.0339 23.8926 43.8984 25.6224 44.4001 27.9074C43.4838 30.4095 41.7399 32.4471 39.5385 33.732ZM33.3846 19.846H34.6154C36.0923 19.846 37.3231 20.8921 37.6308 22.3075H30.3693C30.6769 20.8922 31.9077 19.846 33.3846 19.846ZM19.2307 44.5845V42.4922C19.2307 41.8768 19.7231 41.3845 20.3384 41.3845H21.2328L21.0769 42.9845C21.065 43.1393 21.0596 43.2946 21.0602 43.4501C21.0595 44.8979 21.5466 46.2399 22.483 47.324C22.5263 47.3755 22.5701 47.4267 22.6153 47.4768C22.634 47.4976 22.6531 47.5179 22.6721 47.5384H22.1845C20.5231 47.5383 19.2307 46.246 19.2307 44.5845ZM26.9846 48.1537C25.6923 48.1537 24.4 47.5999 23.5385 46.6153C22.6154 45.6922 22.1846 44.3999 22.3078 43.1076L22.5539 40.8307C22.5539 40.7728 22.5471 40.7151 22.535 40.6592L23.4754 30.528C24.6799 32.5383 26.4137 34.1319 28.4616 35.1593V37.6922H27.8462L27.2308 38.3076V40.7692L27.8462 41.3845H30.3077L30.9231 40.7692V38.3076L30.3077 37.6922H29.6924V35.6942C31.04 36.1934 32.4932 36.4614 34.0001 36.4614C35.5005 36.4614 36.9551 36.1875 38.3078 35.6799L39.5386 35.1399C41.6586 34.0671 43.4513 32.3885 44.6624 30.2811L45.6924 43.2922C45.7129 43.5281 45.7167 43.7584 45.707 43.9835C45.6621 44.6976 45.4863 45.3555 45.192 45.9255C45.0121 46.2642 44.7882 46.5774 44.5232 46.8614C44.2506 47.134 43.9414 47.3699 43.6046 47.5637C43.5826 47.5757 43.5609 47.5882 43.5386 47.5999C43.5202 47.609 43.5028 47.6195 43.4858 47.6307C42.8618 47.9645 42.147 48.1537 41.3848 48.1537H26.9846ZM29.6923 38.9229V40.1537H28.4616V38.9229H29.6923ZM48.7693 44.5845C48.7693 46.246 47.4154 47.5384 45.8154 47.5384H45.5693C45.9806 47.0499 46.3057 46.4859 46.5362 45.8649C46.7944 45.1886 46.9346 44.4521 46.9396 43.6839C46.9446 43.4544 46.9394 43.2211 46.9231 42.9845L46.8001 41.3845H47.6616C48.277 41.3845 48.7693 41.8769 48.7693 42.4922L48.7693 44.5845Z" fill="#565EFF"/>
<path d="M39.5385 33.732C39.9077 33.732 39.5385 34.1012 39.5385 33.732ZM39.5385 33.732C39.7491 33.732 39.9077 33.732 39.5385 33.732ZM39.5385 33.732L38.3077 34.3509M39.5385 33.732C41.7399 32.4471 43.4838 30.4095 44.4001 27.9074C43.8984 25.6224 42.0339 23.8926 39.7209 23.5866C39.7125 23.5855 39.7041 23.5847 39.6956 23.5837C39.6261 23.5748 39.5561 23.567 39.4858 23.5607C39.4524 23.5578 39.4187 23.556 39.3851 23.5537C39.3369 23.5502 39.2887 23.5464 39.2401 23.5442C39.1554 23.5404 39.0703 23.5382 38.9846 23.5382H29.2C29.1127 23.5382 29.0259 23.5404 28.9396 23.5443C26.2854 23.667 24.0807 25.6562 23.7231 28.3382C24.6886 30.6832 26.3692 32.5641 28.4615 33.7649V27.846H27.8461C27.4769 27.846 27.2308 27.5999 27.2308 27.2306C27.2308 26.8614 27.4769 26.6152 27.8461 26.6152H30.3077C30.6769 26.6152 30.9231 26.8614 30.9231 27.2306C30.9231 27.5999 30.6769 27.846 30.3077 27.846H29.6923V34.3722C31.024 34.929 32.4811 35.2306 34 35.2306C35.5166 35.2306 36.9748 34.9197 38.3077 34.3509M38.3077 34.3509C38 34.5 39.5 34.5 38.3077 34.3509ZM38.3077 34.3509C38 35 38.4752 34.3722 38.3077 34.3509ZM47.6616 40.0922H46.6795L45.7539 28.3999C45.4462 24.8922 42.5539 22.3075 39.0462 22.3075H38.9846H38.8796C38.5858 20.205 36.8061 18.6152 34.6154 18.6152H33.3846C31.1936 18.6152 29.4137 20.2055 29.1202 22.3085C25.7094 22.348 22.8587 24.9188 22.4923 28.3383C22.4923 28.377 22.4926 28.4094 22.4944 28.4398C22.4938 28.447 22.4929 28.4541 22.4923 28.4614L21.3528 40.1537H20.3384C19.0461 40.1537 18 41.1999 18 42.4922V44.5845C18 46.9229 19.8461 48.7691 22.1846 48.7691H24.3016C25.1008 49.172 25.9926 49.3845 26.9231 49.3845H41.3847C42.2907 49.3845 43.1753 49.1709 43.9632 48.7691H45.8154C48.1539 48.7691 50.0001 46.923 50.0001 44.523V42.4307C50 41.1383 48.9539 40.0922 47.6616 40.0922ZM33.3846 19.846H34.6154C36.0923 19.846 37.3231 20.8921 37.6308 22.3075H30.3693C30.6769 20.8922 31.9077 19.846 33.3846 19.846ZM19.2307 44.5845V42.4922C19.2307 41.8768 19.7231 41.3845 20.3384 41.3845H21.2328L21.0769 42.9845C21.065 43.1393 21.0596 43.2946 21.0602 43.4501C21.0595 44.8979 21.5466 46.2399 22.483 47.324C22.5263 47.3755 22.5701 47.4267 22.6153 47.4768C22.634 47.4976 22.6531 47.5179 22.6721 47.5384H22.1845C20.5231 47.5383 19.2307 46.246 19.2307 44.5845ZM26.9846 48.1537C25.6923 48.1537 24.4 47.5999 23.5385 46.6153C22.6154 45.6922 22.1846 44.3999 22.3078 43.1076L22.5539 40.8307C22.5539 40.7728 22.5471 40.7151 22.535 40.6592L23.4754 30.528C24.6799 32.5383 26.4137 34.1319 28.4616 35.1593V37.6922H27.8462L27.2308 38.3076V40.7692L27.8462 41.3845H30.3077L30.9231 40.7692V38.3076L30.3077 37.6922H29.6924V35.6942C31.04 36.1934 32.4932 36.4614 34.0001 36.4614C35.5005 36.4614 36.9551 36.1875 38.3078 35.6799L39.5386 35.1399C41.6586 34.0671 43.4513 32.3885 44.6624 30.2811L45.6924 43.2922C45.7129 43.5281 45.7167 43.7584 45.707 43.9835C45.6621 44.6976 45.4863 45.3555 45.192 45.9255C45.0121 46.2642 44.7882 46.5774 44.5232 46.8614C44.2506 47.134 43.9414 47.3699 43.6046 47.5637C43.5826 47.5757 43.5609 47.5882 43.5386 47.5999C43.5202 47.609 43.5028 47.6195 43.4858 47.6307C42.8618 47.9645 42.147 48.1537 41.3848 48.1537H26.9846ZM29.6923 38.9229V40.1537H28.4616V38.9229H29.6923ZM48.7693 44.5845C48.7693 46.246 47.4154 47.5384 45.8154 47.5384H45.5693C45.9806 47.0499 46.3057 46.4859 46.5362 45.8649C46.7944 45.1886 46.9346 44.4521 46.9396 43.6839C46.9446 43.4544 46.9394 43.2211 46.9231 42.9845L46.8001 41.3845H47.6616C48.277 41.3845 48.7693 41.8769 48.7693 42.4922L48.7693 44.5845Z" stroke="#565EFF" stroke-width="0.352"/>
</g>
<g clip-path="url(#clip0_4726_3220)">
<path d="M47.6616 40.0922H46.6795L45.7539 28.3999C45.4462 24.8922 42.5539 22.3075 39.0462 22.3075H38.9846H38.8796C38.5858 20.205 36.8061 18.6152 34.6154 18.6152H33.3846C31.1936 18.6152 29.4137 20.2055 29.1202 22.3085C25.7094 22.348 22.8587 24.9188 22.4923 28.3383C22.4923 28.377 22.4926 28.4094 22.4944 28.4398C22.4938 28.447 22.4929 28.4541 22.4923 28.4614L21.3528 40.1537H20.3384C19.0461 40.1537 18 41.1999 18 42.4922V44.5845C18 46.9229 19.8461 48.7691 22.1846 48.7691H24.3016C25.1008 49.172 25.9926 49.3845 26.9231 49.3845H41.3847C42.2908 49.3845 43.1753 49.1709 43.9632 48.7691H45.8154C48.1539 48.7691 50.0001 46.923 50.0001 44.523V42.4307C50 41.1383 48.9539 40.0922 47.6616 40.0922ZM39.5385 33.732C39.5385 34.1012 39.9077 33.732 39.5385 33.732C39.7491 33.732 39.9077 33.732 39.5385 33.732L38.3077 34.3509C38 34.5 39.5 34.5 38.3077 34.3509C38 35 38.4752 34.3722 38.3077 34.3509C36.9748 34.9197 35.5166 35.2306 34 35.2306C32.4811 35.2306 31.024 34.929 29.6923 34.3722V27.846H30.3077C30.6769 27.846 30.9231 27.5999 30.9231 27.2306C30.9231 26.8614 30.6769 26.6152 30.3077 26.6152H27.8461C27.4769 26.6152 27.2308 26.8614 27.2308 27.2306C27.2308 27.5999 27.4769 27.846 27.8461 27.846H28.4615V33.7649C26.3692 32.5641 24.6886 30.6832 23.7231 28.3382C24.0807 25.6562 26.2854 23.667 28.9396 23.5443C29.0259 23.5404 29.1127 23.5382 29.2 23.5382H38.9846C39.0703 23.5382 39.1554 23.5404 39.2401 23.5442C39.2887 23.5464 39.3369 23.5502 39.3851 23.5537C39.4187 23.556 39.4524 23.5578 39.4858 23.5607C39.5561 23.567 39.6261 23.5748 39.6956 23.5837C39.7041 23.5847 39.7125 23.5855 39.7209 23.5866C42.0339 23.8926 43.8984 25.6224 44.4001 27.9074C43.4838 30.4095 41.7399 32.4471 39.5385 33.732ZM33.3846 19.846H34.6154C36.0923 19.846 37.3231 20.8921 37.6308 22.3075H30.3693C30.6769 20.8922 31.9077 19.846 33.3846 19.846ZM19.2307 44.5845V42.4922C19.2307 41.8768 19.7231 41.3845 20.3384 41.3845H21.2328L21.0769 42.9845C21.065 43.1393 21.0596 43.2946 21.0602 43.4501C21.0595 44.8979 21.5466 46.2399 22.483 47.324C22.5263 47.3755 22.5701 47.4267 22.6153 47.4768C22.634 47.4976 22.6531 47.5179 22.6721 47.5384H22.1845C20.5231 47.5383 19.2307 46.246 19.2307 44.5845ZM26.9846 48.1537C25.6923 48.1537 24.4 47.5999 23.5385 46.6153C22.6154 45.6922 22.1846 44.3999 22.3078 43.1076L22.5539 40.8307C22.5539 40.7728 22.5471 40.7151 22.535 40.6592L23.4754 30.528C24.6799 32.5383 26.4137 34.1319 28.4616 35.1593V37.6922H27.8462L27.2308 38.3076V40.7692L27.8462 41.3845H30.3077L30.9231 40.7692V38.3076L30.3077 37.6922H29.6924V35.6942C31.04 36.1934 32.4932 36.4614 34.0001 36.4614C35.5005 36.4614 36.9551 36.1875 38.3078 35.6799L39.5386 35.1399C41.6586 34.0671 43.4513 32.3885 44.6624 30.2811L45.6924 43.2922C45.7129 43.5281 45.7167 43.7584 45.707 43.9835C45.6621 44.6976 45.4863 45.3555 45.192 45.9255C45.0121 46.2642 44.7882 46.5774 44.5232 46.8614C44.2506 47.134 43.9414 47.3699 43.6046 47.5637C43.5826 47.5757 43.5609 47.5882 43.5386 47.5999C43.5202 47.609 43.5028 47.6195 43.4858 47.6307C42.8618 47.9645 42.147 48.1537 41.3848 48.1537H26.9846ZM29.6923 38.9229V40.1537H28.4616V38.9229H29.6923ZM48.7693 44.5845C48.7693 46.246 47.4154 47.5384 45.8154 47.5384H45.5693C45.9806 47.0499 46.3057 46.4859 46.5362 45.8649C46.7944 45.1886 46.9346 44.4521 46.9396 43.6839C46.9446 43.4544 46.9394 43.2211 46.9231 42.9845L46.8001 41.3845H47.6616C48.277 41.3845 48.7693 41.8769 48.7693 42.4922L48.7693 44.5845Z" fill="#565EFF"/>
<path d="M39.5385 33.732C39.9077 33.732 39.5385 34.1012 39.5385 33.732ZM39.5385 33.732C39.7491 33.732 39.9077 33.732 39.5385 33.732ZM39.5385 33.732L38.3077 34.3509M39.5385 33.732C41.7399 32.4471 43.4838 30.4095 44.4001 27.9074C43.8984 25.6224 42.0339 23.8926 39.7209 23.5866C39.7125 23.5855 39.7041 23.5847 39.6956 23.5837C39.6261 23.5748 39.5561 23.567 39.4858 23.5607C39.4524 23.5578 39.4187 23.556 39.3851 23.5537C39.3369 23.5502 39.2887 23.5464 39.2401 23.5442C39.1554 23.5404 39.0703 23.5382 38.9846 23.5382H29.2C29.1127 23.5382 29.0259 23.5404 28.9396 23.5443C26.2854 23.667 24.0807 25.6562 23.7231 28.3382C24.6886 30.6832 26.3692 32.5641 28.4615 33.7649V27.846H27.8461C27.4769 27.846 27.2308 27.5999 27.2308 27.2306C27.2308 26.8614 27.4769 26.6152 27.8461 26.6152H30.3077C30.6769 26.6152 30.9231 26.8614 30.9231 27.2306C30.9231 27.5999 30.6769 27.846 30.3077 27.846H29.6923V34.3722C31.024 34.929 32.4811 35.2306 34 35.2306C35.5166 35.2306 36.9748 34.9197 38.3077 34.3509M38.3077 34.3509C38 34.5 39.5 34.5 38.3077 34.3509ZM38.3077 34.3509C38 35 38.4752 34.3722 38.3077 34.3509ZM47.6616 40.0922H46.6795L45.7539 28.3999C45.4462 24.8922 42.5539 22.3075 39.0462 22.3075H38.9846H38.8796C38.5858 20.205 36.8061 18.6152 34.6154 18.6152H33.3846C31.1936 18.6152 29.4137 20.2055 29.1202 22.3085C25.7094 22.348 22.8587 24.9188 22.4923 28.3383C22.4923 28.377 22.4926 28.4094 22.4944 28.4398C22.4938 28.447 22.4929 28.4541 22.4923 28.4614L21.3528 40.1537H20.3384C19.0461 40.1537 18 41.1999 18 42.4922V44.5845C18 46.9229 19.8461 48.7691 22.1846 48.7691H24.3016C25.1008 49.172 25.9926 49.3845 26.9231 49.3845H41.3847C42.2907 49.3845 43.1753 49.1709 43.9632 48.7691H45.8154C48.1539 48.7691 50.0001 46.923 50.0001 44.523V42.4307C50 41.1383 48.9539 40.0922 47.6616 40.0922ZM33.3846 19.846H34.6154C36.0923 19.846 37.3231 20.8921 37.6308 22.3075H30.3693C30.6769 20.8922 31.9077 19.846 33.3846 19.846ZM19.2307 44.5845V42.4922C19.2307 41.8768 19.7231 41.3845 20.3384 41.3845H21.2328L21.0769 42.9845C21.065 43.1393 21.0596 43.2946 21.0602 43.4501C21.0595 44.8979 21.5466 46.2399 22.483 47.324C22.5263 47.3755 22.5701 47.4267 22.6153 47.4768C22.634 47.4976 22.6531 47.5179 22.6721 47.5384H22.1845C20.5231 47.5383 19.2307 46.246 19.2307 44.5845ZM26.9846 48.1537C25.6923 48.1537 24.4 47.5999 23.5385 46.6153C22.6154 45.6922 22.1846 44.3999 22.3078 43.1076L22.5539 40.8307C22.5539 40.7728 22.5471 40.7151 22.535 40.6592L23.4754 30.528C24.6799 32.5383 26.4137 34.1319 28.4616 35.1593V37.6922H27.8462L27.2308 38.3076V40.7692L27.8462 41.3845H30.3077L30.9231 40.7692V38.3076L30.3077 37.6922H29.6924V35.6942C31.04 36.1934 32.4932 36.4614 34.0001 36.4614C35.5005 36.4614 36.9551 36.1875 38.3078 35.6799L39.5386 35.1399C41.6586 34.0671 43.4513 32.3885 44.6624 30.2811L45.6924 43.2922C45.7129 43.5281 45.7167 43.7584 45.707 43.9835C45.6621 44.6976 45.4863 45.3555 45.192 45.9255C45.0121 46.2642 44.7882 46.5774 44.5232 46.8614C44.2506 47.134 43.9414 47.3699 43.6046 47.5637C43.5826 47.5757 43.5609 47.5882 43.5386 47.5999C43.5202 47.609 43.5028 47.6195 43.4858 47.6307C42.8618 47.9645 42.147 48.1537 41.3848 48.1537H26.9846ZM29.6923 38.9229V40.1537H28.4616V38.9229H29.6923ZM48.7693 44.5845C48.7693 46.246 47.4154 47.5384 45.8154 47.5384H45.5693C45.9806 47.0499 46.3057 46.4859 46.5362 45.8649C46.7944 45.1886 46.9346 44.4521 46.9396 43.6839C46.9446 43.4544 46.9394 43.2211 46.9231 42.9845L46.8001 41.3845H47.6616C48.277 41.3845 48.7693 41.8769 48.7693 42.4922L48.7693 44.5845Z" stroke="#565EFF" stroke-width="0.352"/>
</g>
<defs>
<filter id="filter0_f_4726_3220" x="0" y="0" width="68" height="68" filterUnits="userSpaceOnUse" color-interpolation-filters="sRGB">
<feFlood flood-opacity="0" result="BackgroundImageFix"/>
<feBlend mode="normal" in="SourceGraphic" in2="BackgroundImageFix" result="shape"/>
<feGaussianBlur stdDeviation="2" result="effect1_foregroundBlur_4726_3220"/>
</filter>
<filter id="filter1_f_4726_3220" x="13.824" y="14.4392" width="40.3521" height="39.1213" filterUnits="userSpaceOnUse" color-interpolation-filters="sRGB">
<feFlood flood-opacity="0" result="BackgroundImageFix"/>
<feBlend mode="normal" in="SourceGraphic" in2="BackgroundImageFix" result="shape"/>
<feGaussianBlur stdDeviation="2" result="effect1_foregroundBlur_4726_3220"/>
</filter>
<clipPath id="clip0_4726_3220">
<rect width="32" height="32" fill="white" transform="translate(18 18)"/>
</clipPath>
</defs>
</svg>
