<svg width="10" height="13" viewBox="0 0 10 13" fill="none" xmlns="http://www.w3.org/2000/svg">
<path fill-rule="evenodd" clip-rule="evenodd" d="M4.95142 7.0217C4.01308 7.0217 3.24948 6.25872 3.24948 5.32038C3.24948 4.38204 4.01308 3.61843 4.95142 3.61843C5.88977 3.61843 6.65275 4.38204 6.65275 5.32038C6.65275 6.25872 5.88977 7.0217 4.95142 7.0217ZM8.44238 1.52286C7.49036 0.540992 6.25043 0 4.95142 0C3.65118 0 2.41125 0.540992 1.45861 1.52348C0.49166 2.5209 -0.0393829 3.86094 0.00227975 5.20036C0.119806 8.99601 4.59076 11.9516 4.78166 12.0753L4.94894 12.1841L5.11807 12.0772C5.30835 11.9565 9.78242 9.0725 9.90057 5.19974C9.94161 3.86094 9.40994 2.52028 8.44238 1.52286Z" fill="#FF5C1A"/>
</svg>
