<svg width="40" height="40" viewBox="0 0 40 40" fill="none" xmlns="http://www.w3.org/2000/svg">
<path d="M20 40C31.0457 40 40 31.0457 40 20C40 8.9543 31.0457 0 20 0C8.9543 0 0 8.9543 0 20C0 31.0457 8.9543 40 20 40Z" fill="#DBFFD6"/>
<path d="M26.5408 12.1198L21.0408 10.0598C20.4708 9.84984 19.5408 9.84984 18.9708 10.0598L13.4708 12.1198C12.4108 12.5198 11.5508 13.7598 11.5508 14.8898V22.9898C11.5508 23.7998 12.0808 24.8698 12.7308 25.3498L18.2308 29.4598C19.2008 30.1898 20.7908 30.1898 21.7608 29.4598L27.2608 25.3498C27.9108 24.8598 28.4408 23.7998 28.4408 22.9898V14.8898C28.4508 13.7598 27.5908 12.5198 26.5408 12.1198ZM23.4808 17.7198L19.1808 22.0198C19.0308 22.1698 18.8408 22.2398 18.6508 22.2398C18.4608 22.2398 18.2708 22.1698 18.1208 22.0198L16.5208 20.3998C16.2308 20.1098 16.2308 19.6298 16.5208 19.3398C16.8108 19.0498 17.2908 19.0498 17.5808 19.3398L18.6608 20.4198L22.4308 16.6498C22.7208 16.3598 23.2008 16.3598 23.4908 16.6498C23.7808 16.9398 23.7808 17.4298 23.4808 17.7198Z" fill="#2F8E23"/>
</svg>
