<svg width="68" height="68" viewBox="0 0 68 68" fill="none" xmlns="http://www.w3.org/2000/svg">
<g filter="url(#filter0_f_4726_3202)">
<rect x="4.5" y="4.5" width="59" height="59" rx="9.5" stroke="#FFCA1A"/>
</g>
<g filter="url(#filter1_f_4726_3202)">
<path d="M40.1313 28.2371C39.7188 27.6621 39.8563 26.8684 40.425 26.4559L41.3375 25.8059C41.9125 25.3934 42.7063 25.5246 43.1188 26.0996C43.5313 26.6746 43.3938 27.4684 42.825 27.8809L41.9125 28.5309C41.1313 29.0059 40.375 28.5809 40.1313 28.2371Z" fill="#FFCA1A"/>
<path d="M26.0124 38.331C24.8312 36.7248 24.3937 34.731 24.7187 32.7623C25.0437 30.7935 26.1187 29.0748 27.7437 27.9123C31.0937 25.5185 35.7687 26.2935 38.1624 29.6435C38.575 30.2185 38.4374 31.0123 37.8687 31.4248C37.2937 31.831 36.4999 31.6998 36.0874 31.131C34.5124 28.9248 31.4312 28.4185 29.2312 29.9935C28.1624 30.756 27.4562 31.8935 27.2437 33.1873C27.0312 34.481 27.3312 35.781 28.0937 36.8498C28.5062 37.4248 28.3812 38.231 27.7999 38.631C27.2062 39.0248 26.4062 38.8685 26.0124 38.331Z" fill="#FFCA1A"/>
<path d="M21.05 41.8748C20.6375 41.2998 20.775 40.506 21.3437 40.0935L22.2562 39.4435C22.8312 39.0373 23.625 39.1685 24.0375 39.7373C24.45 40.3123 24.3125 41.106 23.7437 41.5185L22.8312 42.1685C22.0875 42.6435 21.3 42.2248 21.05 41.8748Z" fill="#FFCA1A"/>
<path d="M24.55 25.6497L23.9 24.7372C23.4875 24.1622 23.625 23.3685 24.1937 22.956C24.7687 22.5435 25.5625 22.681 25.975 23.2497L26.625 24.1622C27.0375 24.7372 26.925 25.5685 26.3312 25.9435C25.5812 26.4122 24.8 25.9997 24.55 25.6497Z" fill="#FFCA1A"/>
<path d="M20.8625 33.4186L19.7562 33.2373C19.0625 33.1248 18.5937 32.4623 18.7062 31.7686C18.8187 31.0748 19.4812 30.6061 20.175 30.7186L21.2812 30.8998C21.975 31.0123 22.4437 31.6748 22.3312 32.3686C22.225 32.9936 21.6875 33.4998 20.8625 33.4186Z" fill="#FFCA1A"/>
<path d="M33.7063 24.231C33.0126 24.1185 32.5438 23.456 32.6563 22.7623L32.8376 21.656C32.9501 20.9623 33.6126 20.4935 34.3063 20.606C35.0001 20.7185 35.4688 21.381 35.3563 22.0748L35.1751 23.181C35.0688 23.806 34.4438 24.3498 33.7063 24.231Z" fill="#FFCA1A"/>
<path d="M26.8188 47.3312C26.1563 47.0937 25.8125 46.3624 26.05 45.6999C26.1063 45.5499 31.6375 30.6499 48.15 32.1249C48.85 32.1874 49.3688 32.8062 49.3063 33.5124C49.2438 34.2124 48.6313 34.7312 47.9188 34.6687C33.4063 33.3687 28.6813 46.0374 28.45 46.5624C28.0438 47.5124 26.9625 47.3812 26.8188 47.3312Z" fill="#FFCA1A"/>
</g>
<rect x="4.5" y="4.5" width="59" height="59" rx="9.5" stroke="#FFCA1A"/>
<path d="M40.1313 28.2371C39.7188 27.6621 39.8563 26.8684 40.425 26.4559L41.3375 25.8059C41.9125 25.3934 42.7063 25.5246 43.1188 26.0996C43.5313 26.6746 43.3938 27.4684 42.825 27.8809L41.9125 28.5309C41.1313 29.0059 40.375 28.5809 40.1313 28.2371Z" fill="#FFCA1A"/>
<path d="M26.0124 38.331C24.8312 36.7248 24.3937 34.731 24.7187 32.7623C25.0437 30.7935 26.1187 29.0748 27.7437 27.9123C31.0937 25.5185 35.7687 26.2935 38.1624 29.6435C38.575 30.2185 38.4374 31.0123 37.8687 31.4248C37.2937 31.831 36.4999 31.6998 36.0874 31.131C34.5124 28.9248 31.4312 28.4185 29.2312 29.9935C28.1624 30.756 27.4562 31.8935 27.2437 33.1873C27.0312 34.481 27.3312 35.781 28.0937 36.8498C28.5062 37.4248 28.3812 38.231 27.7999 38.631C27.2062 39.0248 26.4062 38.8685 26.0124 38.331Z" fill="#FFCA1A"/>
<path d="M21.05 41.8748C20.6375 41.2998 20.775 40.506 21.3437 40.0935L22.2562 39.4435C22.8312 39.0373 23.625 39.1685 24.0375 39.7373C24.45 40.3123 24.3125 41.106 23.7437 41.5185L22.8312 42.1685C22.0875 42.6435 21.3 42.2248 21.05 41.8748Z" fill="#FFCA1A"/>
<path d="M24.55 25.6497L23.9 24.7372C23.4875 24.1622 23.625 23.3685 24.1937 22.956C24.7687 22.5435 25.5625 22.681 25.975 23.2497L26.625 24.1622C27.0375 24.7372 26.925 25.5685 26.3312 25.9435C25.5812 26.4122 24.8 25.9997 24.55 25.6497Z" fill="#FFCA1A"/>
<path d="M20.8625 33.4186L19.7562 33.2373C19.0625 33.1248 18.5937 32.4623 18.7062 31.7686C18.8187 31.0748 19.4812 30.6061 20.175 30.7186L21.2812 30.8998C21.975 31.0123 22.4437 31.6748 22.3312 32.3686C22.225 32.9936 21.6875 33.4998 20.8625 33.4186Z" fill="#FFCA1A"/>
<path d="M33.7063 24.231C33.0126 24.1185 32.5438 23.456 32.6563 22.7623L32.8376 21.656C32.9501 20.9623 33.6126 20.4935 34.3063 20.606C35.0001 20.7185 35.4688 21.381 35.3563 22.0748L35.1751 23.181C35.0688 23.806 34.4438 24.3498 33.7063 24.231Z" fill="#FFCA1A"/>
<path d="M26.8188 47.3312C26.1563 47.0937 25.8125 46.3624 26.05 45.6999C26.1063 45.5499 31.6375 30.6499 48.15 32.1249C48.85 32.1874 49.3688 32.8062 49.3063 33.5124C49.2438 34.2124 48.6313 34.7312 47.9188 34.6687C33.4063 33.3687 28.6813 46.0374 28.45 46.5624C28.0438 47.5124 26.9625 47.3812 26.8188 47.3312Z" fill="#FFCA1A"/>
<defs>
<filter id="filter0_f_4726_3202" x="0" y="0" width="68" height="68" filterUnits="userSpaceOnUse" color-interpolation-filters="sRGB">
<feFlood flood-opacity="0" result="BackgroundImageFix"/>
<feBlend mode="normal" in="SourceGraphic" in2="BackgroundImageFix" result="shape"/>
<feGaussianBlur stdDeviation="2" result="effect1_foregroundBlur_4726_3202"/>
</filter>
<filter id="filter1_f_4726_3202" x="14" y="14" width="40" height="40" filterUnits="userSpaceOnUse" color-interpolation-filters="sRGB">
<feFlood flood-opacity="0" result="BackgroundImageFix"/>
<feBlend mode="normal" in="SourceGraphic" in2="BackgroundImageFix" result="shape"/>
<feGaussianBlur stdDeviation="2" result="effect1_foregroundBlur_4726_3202"/>
</filter>
</defs>
</svg>
