<svg width="14" height="14" viewBox="0 0 14 14" fill="none" xmlns="http://www.w3.org/2000/svg">
<path d="M14 7.01455C14 10.8857 10.85 14 6.94167 14C3.12083 13.9709 0 10.8274 0 6.95634C0 3.11435 3.15 0 7.02917 0C10.8792 0 14 3.14345 14 7.01455ZM12.9792 6.98545C12.9792 3.69647 10.2958 1.01871 7 0.989605C3.675 0.989605 0.991667 3.63825 0.991667 6.92723C0.991667 10.2453 3.64583 12.9231 6.94167 12.9522C10.2958 12.9813 12.9792 10.3035 12.9792 6.98545Z" fill="#338CFF"/>
<path d="M6.50417 11.2349C5.775 11.2349 5.27917 10.6819 5.425 9.92516C5.54167 9.28482 5.74583 8.64449 5.89167 7.97505C6.00833 7.50936 6.125 7.04366 6.24167 6.57796C6.32917 6.2578 6.24167 6.17048 5.89167 6.17048C5.71667 6.17048 5.45417 6.31601 5.425 6.02495C5.39583 5.73389 5.6875 5.7921 5.8625 5.76299C6.44583 5.67568 7.05833 5.61746 7.64167 5.55925C7.99167 5.53015 8.07917 5.61746 7.99167 5.96674C7.7 7.13098 7.37917 8.26611 7.0875 9.43035C7.02917 9.60499 6.9125 9.86694 7.14583 9.95426C7.32083 10.0125 7.55417 9.92516 7.75833 9.86694C7.875 9.80873 7.93333 9.6632 8.05 9.57588C8.10833 9.51767 8.25417 9.48857 8.3125 9.51767C8.37083 9.57588 8.42917 9.72141 8.4 9.77963C8.19583 10.5655 7.2625 11.2349 6.50417 11.2349Z" fill="#338CFF"/>
<path d="M7.58333 4.71518C7.02917 4.71518 6.59167 4.27859 6.59167 3.72557C6.59167 3.17256 7.02917 2.73597 7.58333 2.73597C8.1375 2.73597 8.575 3.17256 8.575 3.72557C8.575 4.27859 8.1375 4.71518 7.58333 4.71518Z" fill="#338CFF"/>
</svg>
