<svg width="114" height="114" viewBox="0 0 114 114" fill="none" xmlns="http://www.w3.org/2000/svg">
<rect width="113.776" height="113.776" rx="31" fill="#E9E9E9"/>
<path d="M55.8178 60.0749C55.8178 60.1541 55.8178 60.1937 55.8178 60.2729C53.3622 60.2729 50.9461 60.1937 48.4904 60.2729C42.5493 60.5106 37.9152 63.1643 34.7466 68.2737C33.1227 70.8878 33.3207 72.8285 35.2615 75.1654C37.5191 77.8587 40.4501 79.6806 43.7375 80.7897C51.3818 83.4038 59.1449 83.483 66.8684 81.1857C71.0272 79.9579 74.7107 77.7795 77.3248 74.096C78.4338 72.5513 78.5526 71.0066 77.602 69.3034C74.9483 64.709 71.1064 61.6196 65.8782 60.7086C62.5907 60.1541 59.1845 60.2333 55.8178 60.0749ZM55.9367 30.5276C49.8371 30.5276 44.6485 35.5974 44.6881 41.6969C44.6881 47.5193 49.1242 52.9455 56.0159 53.0247C62.1155 53.0643 67.2644 47.7569 67.2248 41.7365C67.1456 35.637 61.9966 30.5276 55.9367 30.5276Z" fill="#F3F3F3"/>
<path d="M55.8178 60.0749C59.1845 60.2729 62.5907 60.1541 65.8782 60.7086C71.1064 61.58 74.9483 64.6694 77.602 69.3034C78.5922 71.0066 78.4338 72.5513 77.3248 74.096C74.7503 77.7795 71.0668 79.9579 66.8684 81.1857C59.1449 83.483 51.3818 83.4038 43.7375 80.7897C40.4501 79.6806 37.5587 77.8587 35.2615 75.1654C33.2811 72.8285 33.1227 70.8878 34.7466 68.2737C37.8756 63.1643 42.5097 60.5502 48.4904 60.2729C50.9461 60.1541 53.3622 60.2729 55.8178 60.2729C55.8178 60.1937 55.8178 60.1145 55.8178 60.0749Z" fill="#122544"/>
<path d="M55.9367 30.5276C62.0362 30.5276 67.1457 35.6371 67.1853 41.7367C67.2249 47.757 62.076 53.0645 55.9764 53.0249C49.0847 52.9457 44.6486 47.559 44.6486 41.6971C44.6486 35.5975 49.7975 30.5276 55.9367 30.5276Z" fill="#122544"/>
</svg>
