<svg width="320" height="252" viewBox="0 0 320 252" fill="none" xmlns="http://www.w3.org/2000/svg">
<path d="M318.92 147.847C318.637 149.781 318.397 150.983 318.338 151.258C316.848 158.224 314.457 164.965 311.225 171.312V171.316C310.306 173.136 309.322 174.929 308.274 176.696C305.217 181.831 301.717 186.689 297.817 191.217C295.447 193.988 292.921 196.673 290.24 199.273C278.631 210.568 264.331 220.227 248.639 228.04C245.691 229.509 242.697 230.911 239.655 232.244C230.029 236.464 220.12 240.005 210.001 242.843C207.906 243.433 205.808 243.991 203.705 244.517C200.054 245.437 196.388 246.262 192.729 246.989C187.785 247.976 182.86 248.788 177.953 249.426C171.677 250.243 165.456 250.762 159.357 250.986C152.075 251.239 144.784 251.115 137.515 250.616C133.786 250.373 130.001 250.027 126.185 249.583C126.181 249.585 126.176 249.586 126.171 249.586C126.167 249.586 126.162 249.585 126.158 249.583C122.774 249.194 119.368 248.727 115.94 248.184C115.005 248.035 114.07 247.877 113.13 247.72C106.784 246.632 100.417 245.272 94.1178 243.633C94.0039 243.606 93.8899 243.578 93.7759 243.543C93.7123 243.531 93.6494 243.515 93.5873 243.496C93.4105 243.452 93.2336 243.405 93.0568 243.354C87.445 241.869 81.9 240.159 76.4768 238.218C72.6609 236.854 68.904 235.373 65.2375 233.773C63.4927 233.015 61.7702 232.229 60.0698 231.415C58.5136 230.673 56.9758 229.906 55.4562 229.116C46.4922 224.463 38.2474 219.021 31.1226 212.749C27.8955 209.918 24.8723 206.862 22.0762 203.604C17.8292 198.673 14.2401 193.213 11.3988 187.358C10.0018 184.462 8.81182 181.47 7.8384 178.406C7.43363 177.136 7.06304 175.845 6.72626 174.531C5.21681 168.536 4.38369 162.391 4.24261 156.21C4.20331 154.729 4.20331 153.24 4.24261 151.746C4.36718 146.544 4.9657 141.364 6.03068 136.27C8.85623 122.85 15.03 110.435 24.9214 102.155C41.9533 87.89 68.2478 87.3713 84.5369 88.731C90.8836 89.2615 95.7133 90.075 97.8826 90.4758C101.109 91.0692 104.269 91.8041 107.464 92.5744C119.304 95.4235 131.644 98.7167 149.611 96.6968C151.482 96.4845 158.001 95.6986 169.936 92.3779C178.853 89.9591 187.566 86.8435 195.995 83.0602C196.372 82.8873 196.745 82.7184 197.115 82.5494C198.07 82.1053 198.989 81.6691 199.889 81.2329C200.117 81.1228 200.349 81.0089 200.573 80.8988C202.385 80.0107 204.094 79.1343 205.729 78.2776H205.737C205.796 78.2462 205.851 78.2148 205.91 78.1833C206.134 78.0654 206.354 77.9515 206.574 77.8336C206.596 77.8241 206.617 77.8124 206.637 77.7982C209.018 76.5446 211.254 75.3303 213.439 74.1788C213.891 73.9391 214.343 73.7033 214.791 73.4715C215.106 73.3103 215.42 73.1453 215.734 72.9881C215.95 72.878 216.167 72.768 216.379 72.658H216.383C217.695 71.9978 219 71.3611 220.332 70.7559C222.403 69.8089 224.529 68.9364 226.793 68.1505C228.577 67.5256 230.444 66.9597 232.44 66.4528C252.231 61.4187 281.826 63.026 300.654 80.4508C315.988 94.6493 319.69 115.187 319.981 130.505C320.09 136.305 319.735 142.104 318.92 147.847Z" fill="#E6EDFA"/>
<path d="M192.727 137.017V246.989C181.728 249.212 170.568 250.549 159.355 250.986C130.659 252.035 95.0589 246.769 65.2354 233.777C60.2818 231.63 55.4454 229.221 50.7461 226.562C50.7422 226.562 50.7422 226.558 50.7382 226.558C47.897 224.943 45.1449 223.242 42.4817 221.457C40.0491 219.826 37.703 218.122 35.4433 216.344C33.9618 215.173 32.5207 213.972 31.1205 212.741C20.3371 203.25 12.1119 191.858 7.83627 178.406C7.43543 177.137 7.0621 175.848 6.72806 174.535C5.21626 168.54 4.38156 162.395 4.24048 156.214V151.746C4.36505 146.545 4.96356 141.366 6.02855 136.274H34.8342V175.993H39.7661V96.799H70.3599V215.959H89.1107V117.525L162.139 154.037V137.017C162.139 135.137 162.509 133.276 163.228 131.54C163.947 129.803 165.002 128.225 166.331 126.896C167.66 125.567 169.238 124.513 170.974 123.794C172.71 123.075 174.572 122.704 176.451 122.704H178.416C182.212 122.705 185.852 124.213 188.536 126.897C191.219 129.581 192.727 133.221 192.727 137.017Z" fill="#D8DFF3"/>
<path d="M318.915 136.15V147.85C318.636 149.781 318.396 150.983 318.337 151.259C308.458 197.852 257.188 231.094 203.703 244.519V108.642H234.294V211.272H239.228V149.705L269.819 136.273V136.15C269.806 132.919 270.431 129.716 271.659 126.726C272.887 123.737 274.693 121.019 276.974 118.729C279.254 116.439 281.965 114.622 284.95 113.383C287.934 112.143 291.134 111.505 294.366 111.505C297.598 111.505 300.799 112.143 303.783 113.383C306.768 114.622 309.478 116.439 311.759 118.729C314.04 121.019 315.846 123.737 317.074 126.726C318.301 129.716 318.927 132.919 318.914 136.15H318.915Z" fill="#D8DFF3"/>
<path d="M308.272 176.695C305.215 181.83 301.715 186.689 297.813 191.216V182.536C297.813 179.309 302.232 176.694 307.685 176.694L308.272 176.695Z" fill="#BDCFD3"/>
<path d="M115.938 248.182C115.003 248.035 114.067 247.881 113.13 247.719C100.661 245.614 88.3973 242.437 76.4753 238.222L94.3502 190.266L115.938 248.182Z" fill="#BDCFD3"/>
<path d="M60.0669 231.417C45.1045 224.274 31.8657 215.065 22.0737 203.604L35.8871 166.545L60.0669 231.417Z" fill="#CAD4EF"/>
<path d="M311.223 171.316C310.306 173.137 309.323 174.93 308.274 176.695C305.215 181.83 301.716 186.688 297.814 191.216C295.443 193.986 292.919 196.671 290.239 199.272C269.575 219.372 240.397 234.294 209.998 242.845C207.905 243.432 205.807 243.99 203.705 244.518C200.052 245.435 196.392 246.259 192.725 246.99C187.784 247.975 182.859 248.788 177.949 249.426C178.661 248.841 179.413 248.306 180.2 247.826C184.728 245.07 190.019 243.609 194.202 240.354C192.034 238.699 193.748 235.245 195.704 233.345C200.367 228.827 205.941 225.354 212.052 223.158C211.069 215.486 219.492 208.256 226.926 210.386C226.974 208.506 227.689 206.704 228.944 205.303C230.2 203.902 231.912 202.994 233.776 202.74C235.639 202.487 237.532 202.905 239.116 203.92C240.7 204.934 241.87 206.479 242.419 208.278C242.735 205.587 243.491 202.965 244.655 200.518C245.672 198.379 248.853 198.543 249.603 200.793C249.607 200.808 249.611 200.823 249.617 200.837C252.083 195.877 259.835 194.723 263.637 198.755C262.311 193.816 268.26 188.662 272.96 190.678C270.705 187.369 270.096 182.746 272.222 179.352C274.349 175.958 279.515 174.609 282.611 177.151C280.413 173.404 283.181 167.812 287.495 167.287C289.696 167.02 291.88 167.868 294.099 167.925C295.246 167.95 296.376 167.648 297.356 167.053C299.811 165.502 303.022 165.733 304.98 167.877C306.308 169.371 307.341 171.102 308.027 172.98C309.13 172.457 310.185 171.88 311.223 171.316Z" fill="#CAD4EF"/>
<path d="M110.789 74.7231C97.5657 71.8755 83.5625 66.4005 77.0528 54.5434C74.7149 50.2854 73.536 45.0828 75.2545 40.5395C77.5625 34.438 84.363 31.2156 90.8166 30.2767C98.8947 29.1237 107.13 30.5675 114.335 34.3995C124.135 39.645 131.994 49.2747 143 50.8262C151.42 52.0118 159.595 48.1185 167.705 45.5638C175.816 43.009 185.736 42.1476 191.832 48.0749C193.29 49.492 193.533 51.376 193.674 52.1454C194.864 58.6297 188.441 64.5798 186.118 66.7314C182.948 69.6685 175.586 75.2175 152.544 77.0759C140.146 78.0741 127.504 78.3224 110.789 74.7231Z" fill="#E6EDFA"/>
<path d="M78.9985 74.9767H1.62766C0.311558 72.6939 -0.228397 70.0459 0.0883471 67.4303C0.405091 64.8146 1.56203 62.3722 3.38508 60.4701C5.20813 58.5677 7.59904 57.3078 10.199 56.8802C12.799 56.4523 15.4673 56.8794 17.804 58.0973C18.0198 55.381 18.8258 52.7445 20.1655 50.3716C21.5051 47.9988 23.3467 45.9471 25.5611 44.3594C27.776 42.7718 30.3103 41.6863 32.9873 41.179C35.6647 40.6717 38.4203 40.755 41.0623 41.4222C43.704 42.0899 46.1684 43.3259 48.2834 45.044C50.3984 46.7621 52.1126 48.9212 53.3073 51.3702C54.5019 53.8193 55.1476 56.4998 55.1995 59.224C55.2514 61.9485 54.7079 64.6515 53.6075 67.1442C62.0614 69.8286 70.3525 73.1081 78.9985 74.9767Z" fill="#DAE8EB"/>
<path d="M244.889 99.1942H286.524C287.232 97.9661 287.522 96.5416 287.352 95.1343C287.182 93.727 286.559 92.4129 285.579 91.3892C284.598 90.3658 283.312 89.6879 281.913 89.4573C280.514 89.227 279.078 89.4561 277.821 90.1108C277.704 88.6497 277.27 87.2314 276.549 85.955C275.828 84.6786 274.837 83.5751 273.645 82.7211C272.453 81.8672 271.09 81.2836 269.649 81.0109C268.209 80.7381 266.727 80.7826 265.305 81.1417C263.884 81.5009 262.558 82.1659 261.42 83.0901C260.282 84.0141 259.36 85.1757 258.717 86.493C258.074 87.8107 257.726 89.2525 257.697 90.7179C257.669 92.1838 257.961 93.6382 258.552 94.9795C254.003 96.4221 249.541 98.1878 244.889 99.1942Z" fill="#D8DFF3"/>
<path d="M206.868 46.564H312.431C314.226 43.4496 314.962 39.8369 314.53 36.2687C314.097 32.7004 312.518 29.3683 310.031 26.7734C307.544 24.1781 304.282 22.4596 300.736 21.8756C297.189 21.2921 293.548 21.8741 290.36 23.5352C290.067 19.8286 288.968 16.2304 287.14 12.9927C285.312 9.75448 282.8 6.95408 279.778 4.78757C276.757 2.62066 273.298 1.13911 269.645 0.446673C265.992 -0.24537 262.232 -0.13219 258.627 0.778744C255.021 1.68968 251.659 3.37637 248.773 5.7213C245.887 8.06583 243.548 11.012 241.918 14.3543C240.289 17.6967 239.408 21.3542 239.338 25.0718C239.268 28.7894 240.01 32.4775 241.513 35.8788C229.977 39.5363 218.664 44.0132 206.868 46.564Z" fill="#DAE8EB"/>
<path d="M145.454 250.982L145.344 251.005C144.13 250.966 142.904 250.919 141.674 250.86C141.112 250.833 140.546 250.801 139.98 250.77C139.481 250.742 138.982 250.715 138.482 250.683C137.775 250.64 137.064 250.593 136.353 250.542C135.5 250.479 134.646 250.412 133.79 250.341C133.342 250.306 132.894 250.267 132.442 250.227C131.633 250.157 130.823 250.078 130.01 249.999C129.467 249.944 128.925 249.889 128.379 249.83C127.471 249.736 126.563 249.635 125.656 249.528C123.836 249.316 122.01 249.079 120.177 248.817C119.773 248.762 119.372 248.703 118.971 248.644C117.961 248.498 116.95 248.345 115.937 248.184C115.469 248.109 115.002 248.031 114.534 247.956C114.066 247.881 113.599 247.799 113.127 247.72C112.719 247.649 112.314 247.579 111.905 247.504C109.846 247.142 107.788 246.751 105.731 246.329L105.287 246.235C104.961 246.168 104.631 246.101 104.305 246.03C103.197 245.798 102.088 245.556 100.98 245.303C100.324 245.154 99.6715 245.005 99.0191 244.847C98.5672 244.745 98.1153 244.635 97.6633 244.525C97.1092 244.392 96.5591 244.258 96.0049 244.117C95.4508 243.975 94.9046 243.841 94.3544 243.696C93.8042 243.551 93.2541 243.409 92.7039 243.264C91.6035 242.969 90.5071 242.67 89.4146 242.356C88.8802 242.207 88.3418 242.049 87.8073 241.892C87.2493 241.731 86.6912 241.566 86.1332 241.397C83.4216 240.58 80.7324 239.706 78.0653 238.776C77.8216 238.693 77.578 238.607 77.3343 238.524L76.4737 238.218C74.662 237.569 72.8661 236.896 71.0859 236.198V236.194C70.6851 236.041 70.2881 235.884 69.8912 235.722C69.7969 235.683 69.7065 235.648 69.6161 235.608C69.066 235.388 68.5197 235.164 67.9735 234.94C67.325 234.669 66.6794 234.397 66.0361 234.123C65.93 234.08 65.8239 234.033 65.7217 233.985L70.6261 233.981H70.8422L70.9326 233.985H70.9366L104.238 233.978H104.242L104.788 233.974H105.672L111.744 233.97H111.756L112.322 233.974H112.416L132.505 233.97L137.025 233.966H138.011L138.447 233.97H138.687L143.19 233.966H143.693V233.985L144.405 240.823L145.112 247.665L145.116 247.693V247.708L145.179 248.349V248.353L145.454 250.982Z" fill="#32477B"/>
<path d="M143.69 233.966L141.544 234.123L138.443 234.351L137.021 234.453L112.691 236.237L111.264 236.343L105.684 236.752L104.258 236.858L78.0653 238.776C77.8216 238.693 77.578 238.607 77.3343 238.524L76.4737 238.218C74.662 237.569 72.8661 236.896 71.0859 236.198V236.194C70.6851 236.041 70.2881 235.884 69.8912 235.722C69.7969 235.683 69.7065 235.648 69.6161 235.608C69.066 235.388 68.5197 235.164 67.9735 234.94C67.325 234.669 66.6794 234.397 66.0361 234.123C65.93 234.08 65.8239 234.033 65.7217 233.985L70.6261 233.981H70.9326L104.242 233.974H112.416L132.505 233.97L137.025 233.966H143.69Z" fill="#1B2C58"/>
<path d="M105.732 246.329C105.257 246.231 104.781 246.132 104.306 246.03L104.258 236.858L104.243 234.123V233.942L105.669 233.95V234.123L105.685 236.752L105.712 242.364L105.72 243.826L105.732 246.329Z" fill="#1B2C58"/>
<path d="M107.371 243.999C108.012 244.03 108.653 243.933 109.256 243.715C109.859 243.496 110.413 243.16 110.886 242.726C113.701 240.034 112.444 234.088 112.39 233.836L110.995 234.13C111.007 234.184 112.135 239.545 109.895 241.685C108.905 242.628 107.32 242.814 105.183 242.233L104.822 243.617C105.651 243.854 106.508 243.983 107.371 243.999Z" fill="#1B2C58"/>
<path d="M71.0859 236.194C70.5947 236.005 70.1035 235.809 69.6162 235.609C69.5769 234.771 69.514 234.217 69.5061 234.123C69.5038 234.118 69.5026 234.113 69.5022 234.107L70.6261 233.982H70.6418L70.9287 233.95C70.9287 233.958 70.9326 233.97 70.9326 233.982V233.985C70.9366 234.017 70.9444 234.06 70.9484 234.123C70.9877 234.449 71.0584 235.196 71.0859 236.194Z" fill="#1B2C58"/>
<path d="M143.993 248.469C144.415 248.469 144.837 248.425 145.25 248.338L144.961 246.941C144.404 247.086 143.822 247.095 143.261 246.967C142.7 246.839 142.179 246.579 141.74 246.207C138.276 243.285 138.445 234.047 138.447 233.953L137.028 233.911C137.019 234.319 136.848 243.939 140.835 247.299C141.712 248.058 142.834 248.473 143.993 248.469Z" fill="#1B2C58"/>
<path d="M167.886 186.568H144.111L144.083 189.464L144.044 194.07L144.036 195.041L144.009 198.012L144.005 198.554L143.942 205.761L143.93 206.736L143.887 211.751V211.754L143.867 214.246L143.84 217.457L143.832 218.427L143.804 221.331L143.749 227.552V227.611L143.733 229.152L143.726 230.123L143.698 233.294L143.694 233.966V234.123H66.0368C65.9307 234.08 65.8246 234.033 65.7224 233.986H65.7185C64.5827 233.498 63.4588 232.998 62.3467 232.484V187.818H29.3911L29.4933 186.737L29.5955 185.704L30.688 174.264L30.7901 173.222L31.8826 161.787L31.9809 160.749L32.2913 157.527C32.5798 154.488 33.1881 151.489 34.1069 148.579C34.2405 148.154 34.3781 147.73 34.5274 147.309C34.6256 147.026 34.7278 146.743 34.8339 146.46C36.0789 143.113 37.7357 139.932 39.7659 136.993C40.4379 136.019 41.148 135.074 41.8958 134.16C42.0609 133.956 42.2299 133.755 42.4028 133.555C44.304 131.305 46.4312 129.256 48.751 127.44C48.9632 127.267 49.1794 127.102 49.3995 126.937C53.064 124.162 57.1471 121.989 61.4955 120.5C61.692 120.429 61.8924 120.362 62.0928 120.299C66.4616 118.875 71.028 118.15 75.6232 118.15H137.455C141.468 118.146 145.431 119.037 149.056 120.759C149.323 120.885 149.59 121.019 149.854 121.156C149.858 121.157 149.863 121.158 149.867 121.16C149.871 121.162 149.875 121.164 149.877 121.168C155.46 124.056 159.866 128.793 162.343 134.569C162.792 135.613 163.173 136.685 163.482 137.779C163.561 138.047 163.632 138.318 163.702 138.589C164.074 140.064 164.321 141.568 164.441 143.085L164.866 148.413L164.936 149.329L165.011 150.261V150.288L165.734 159.409L165.809 160.325L165.903 161.539V161.543L165.923 161.763L166.607 170.409L166.681 171.32L167.479 181.408L167.55 182.32L167.886 186.568Z" fill="#77BBCB"/>
<path d="M143.698 233.294L138.707 233.966L138.687 233.97L138.448 234.001L137.552 234.123H66.0366C65.9304 234.08 65.8243 234.033 65.7222 233.985H65.7182C64.5825 233.498 63.4586 232.998 62.3464 232.484V208.732L64.8065 205.471L65.8872 213.405C66.4213 217.313 68.2742 220.922 71.1394 223.632C74.0047 226.343 77.7101 227.994 81.6419 228.311L143.698 233.294Z" fill="#579FAE"/>
<path d="M105.378 72.9897L124.878 80.8714C129.887 114.508 115.555 112.95 115.555 112.95L115.552 118.092C115.551 119.632 115.22 121.155 114.581 122.557C113.941 123.959 113.009 125.207 111.846 126.218C110.684 127.229 109.317 127.979 107.84 128.417C106.363 128.855 104.81 128.971 103.284 128.758C101.882 128.562 100.532 128.093 99.3121 127.375C98.0915 126.658 97.0246 125.708 96.1718 124.578C95.319 123.448 94.697 122.162 94.3413 120.792C93.9857 119.422 93.9035 117.995 94.0992 116.594L97.1665 94.6336L93.3345 94.0984C92.5713 93.9915 91.8368 93.7357 91.1723 93.3446C90.5082 92.954 89.9273 92.4365 89.4632 91.821C88.9991 91.206 88.6607 90.5053 88.4674 89.7595C88.274 89.0132 88.2296 88.2366 88.3365 87.4735C88.366 87.264 88.4053 87.0542 88.4544 86.8447C88.8781 85.035 90.0036 83.4674 91.583 82.4873C93.1624 81.5072 95.0664 81.1944 96.876 81.618L98.8677 82.0837L105.378 72.9897Z" fill="#FFC1C2"/>
<path d="M91.5071 88.5551C91.5027 88.535 91.1349 86.5167 92.2246 85.4576C92.9485 84.7549 94.1919 84.593 95.9238 84.9726L96.1596 83.9061C94.0449 83.4428 92.4636 83.7021 91.4619 84.6799C89.952 86.1547 90.4173 88.6561 90.4381 88.7622L91.5071 88.5551Z" fill="#EE9C9E"/>
<path d="M121.431 98.2215L118.653 90.3674L117.624 90.7309L120.052 97.5951L115.758 99.3014L116.161 100.315L121.431 98.2215Z" fill="#EE9C9E"/>
<path d="M122.335 90.6532C122.337 91.427 122.706 92.055 123.157 92.0546C123.608 92.0542 123.973 91.4215 123.971 90.6477C123.971 90.4952 123.955 90.3427 123.923 90.1934C123.887 89.9773 123.806 89.771 123.685 89.5878C123.353 89.5379 123.019 89.51 122.683 89.5037C122.553 89.6645 122.461 89.8515 122.412 90.0519C122.36 90.248 122.334 90.4504 122.335 90.6532Z" fill="#32477B"/>
<path d="M107.546 85.1181C107.543 85.078 107.546 85.0371 107.558 84.9986C107.569 84.9597 107.589 84.9236 107.614 84.8925C107.64 84.8611 107.671 84.8351 107.707 84.8159C107.742 84.797 107.781 84.7848 107.822 84.7809L113.906 84.1097C114.218 84.0751 114.532 84.149 114.796 84.3188C115.06 84.4885 115.258 84.7436 115.355 85.0418L115.451 85.335C115.498 85.4777 115.508 85.6301 115.478 85.7775C115.45 85.9249 115.383 86.0624 115.285 86.1764C115.188 86.2908 115.063 86.378 114.922 86.4295C114.78 86.4813 114.628 86.4955 114.48 86.4715L107.806 85.3908C107.739 85.3806 107.677 85.348 107.63 85.2989C107.583 85.2494 107.554 85.1857 107.546 85.1181Z" fill="#32477B"/>
<path d="M127.134 86.1928C127.141 86.1582 127.141 86.1225 127.134 86.0879C127.127 86.0533 127.112 86.0203 127.093 85.9912C127.073 85.9621 127.048 85.937 127.018 85.9177C126.988 85.8984 126.955 85.8851 126.921 85.8784L121.655 84.8567C121.385 84.8044 121.105 84.8464 120.863 84.9757C120.62 85.105 120.43 85.3141 120.323 85.5672L120.218 85.8163C120.167 85.9374 120.147 86.0698 120.161 86.201C120.176 86.3319 120.224 86.4569 120.301 86.5634C120.379 86.6703 120.482 86.7551 120.602 86.8102C120.721 86.8652 120.853 86.8884 120.985 86.8774L126.889 86.4105C126.948 86.4066 127.004 86.383 127.049 86.3433C127.093 86.304 127.123 86.251 127.134 86.1928Z" fill="#32477B"/>
<path d="M115.554 118.158C111.392 117.217 107.687 114.858 105.074 111.485C108.186 113.029 115.557 112.949 115.557 112.949L115.554 118.158Z" fill="#EE9C9E"/>
<path d="M155.701 59.5992C154.057 58.8408 152.201 58.6714 150.447 59.1198C150.235 59.1709 150.037 59.2672 149.867 59.4024C149.697 59.5372 149.558 59.7073 149.459 59.9014C149.361 60.0952 149.306 60.3082 149.298 60.5251C149.29 60.7424 149.329 60.959 149.413 61.1594L149.425 61.1869C149.567 61.5142 149.819 61.7819 150.138 61.9426C150.457 62.1033 150.822 62.1474 151.17 62.0672C152.085 61.8467 153.047 61.9383 153.905 62.3265C155.512 63.0732 155.976 64.5155 155.292 65.9931C154.188 68.3746 150.03 68.4296 147.884 71.3219C147.728 71.5337 147.621 71.7774 147.571 72.0356C147.52 72.2938 147.528 72.5598 147.594 72.8149C147.659 73.0695 147.781 73.3065 147.949 73.5085C148.118 73.7105 148.329 73.8724 148.568 73.9824C148.936 74.1581 149.353 74.1997 149.747 74.0999C150.142 74.0001 150.49 73.7655 150.73 73.4362C152.73 70.6028 157.245 70.8661 158.88 67.3528C160.452 63.9731 158.959 61.1122 155.701 59.5992ZM147.515 76.1949C147.041 75.9469 146.503 75.8463 145.971 75.9065C145.439 75.9662 144.937 76.1839 144.53 76.5313C144.123 76.8787 143.829 77.3401 143.687 77.8561C143.543 78.372 143.558 78.9187 143.729 79.426C143.899 79.9334 144.217 80.3782 144.643 80.7032C145.068 81.0282 145.581 81.2188 146.115 81.2499C146.65 81.2809 147.181 81.1516 147.641 80.8785C148.102 80.605 148.47 80.2002 148.698 79.716C148.859 79.4087 148.957 79.0719 148.985 78.7257C149.012 78.3799 148.969 78.0317 148.859 77.7028C148.749 77.3735 148.572 77.0705 148.341 76.8111C148.11 76.5521 147.829 76.3423 147.515 76.1949Z" fill="#32477B"/>
<path d="M117.135 105.426L117.462 104.499C115.087 103.661 112.625 103.09 110.123 102.798L110.01 103.774C112.439 104.057 114.829 104.61 117.135 105.425V105.426Z" fill="#EE9C9E"/>
<path d="M120.13 89.7819C120.143 89.7819 120.155 89.785 120.167 89.7858L125.862 90.0684C125.913 90.0707 125.964 90.0633 126.012 90.0464C126.06 90.0291 126.104 90.0027 126.142 89.9686C126.18 89.9344 126.211 89.8931 126.233 89.8467C126.254 89.8008 126.267 89.7509 126.27 89.6998C126.272 89.6487 126.265 89.5976 126.247 89.5496C126.23 89.5017 126.204 89.4573 126.17 89.4196C126.135 89.3814 126.094 89.3508 126.048 89.3288C126.002 89.3072 125.952 89.2942 125.901 89.2918L120.207 89.0093C120.107 89.0046 120.01 89.0384 119.934 89.1036C119.859 89.1688 119.812 89.2604 119.802 89.3598C119.792 89.4589 119.821 89.5579 119.882 89.6365C119.944 89.7151 120.032 89.767 120.131 89.7819H120.13Z" fill="#32477B"/>
<path d="M110.677 89.6416C110.677 90.415 111.048 91.043 111.498 91.0426C111.949 91.0422 112.314 90.4099 112.312 89.6361C112.312 89.4833 112.296 89.3312 112.264 89.1818C112.228 88.9657 112.148 88.7594 112.028 88.5759C111.696 88.5263 111.362 88.4984 111.026 88.4918C110.896 88.6533 110.804 88.8407 110.755 89.0419C110.702 89.2372 110.676 89.4392 110.677 89.6416Z" fill="#32477B"/>
<path d="M108.576 88.8517C108.588 88.8517 108.601 88.8549 108.613 88.8556L114.307 89.1382C114.358 89.141 114.409 89.1335 114.457 89.1162C114.505 89.0989 114.55 89.0726 114.587 89.0384C114.626 89.0042 114.656 88.9629 114.678 88.9166C114.7 88.8706 114.712 88.8207 114.715 88.7696C114.718 88.7185 114.71 88.6674 114.693 88.6195C114.676 88.5715 114.65 88.5271 114.615 88.4894C114.581 88.4513 114.54 88.4206 114.494 88.3986C114.448 88.377 114.398 88.3644 114.347 88.3617L108.653 88.0791C108.553 88.0744 108.455 88.1082 108.38 88.1734C108.305 88.2387 108.257 88.3302 108.247 88.4293C108.238 88.5287 108.266 88.6277 108.328 88.7063C108.389 88.7849 108.478 88.8368 108.577 88.8517H108.576Z" fill="#32477B"/>
<path d="M63.3208 156.253L54.2126 183.647L63.3208 173.635V156.253Z" fill="#579FAE"/>
<path d="M165.731 159.409L160.842 162.907L149.855 155.047L138.863 162.907L127.871 155.047L116.879 162.907L105.892 155.047L94.9037 162.907L83.912 155.047L72.9242 162.907L61.9324 155.047L50.9446 162.907L39.9529 155.047L31.9793 160.749L31.881 161.787L39.9529 156.014L50.9446 163.873L61.9324 156.014L72.9242 163.873L83.912 156.014L94.9037 163.873L105.892 156.014L116.879 163.873L127.871 156.014L138.863 163.873L149.855 156.014L160.842 163.873L165.806 160.325L165.731 159.409ZM166.603 170.409L160.842 174.527L149.855 166.667L138.863 174.527L127.871 166.667L116.879 174.527L105.892 166.667L94.9037 174.527L83.912 166.667L72.9242 174.527L61.9324 166.667L50.9446 174.527L39.9529 166.667L30.7901 173.222L30.6879 174.264L39.9545 167.634L50.9462 175.494L61.934 167.634L72.9258 175.494L83.9136 167.634L94.9053 175.494L105.893 167.634L116.881 175.494L127.873 167.634L138.864 175.494L149.856 167.634L160.844 175.494L166.68 171.32L166.603 170.409ZM167.476 181.408L160.842 186.151L149.855 178.292L138.863 186.151L127.871 178.292L116.879 186.151L105.892 178.292L94.9037 186.151L83.912 178.292L72.9242 186.151L61.9324 178.292L50.9446 186.151L39.9529 178.292L29.5939 185.703L29.4917 186.737L39.9529 179.255L50.9446 187.114L61.9324 179.255L72.9242 187.114L83.912 179.255L94.9037 187.114L105.892 179.255L116.879 187.114L127.871 179.255L138.863 187.114L149.855 179.255L160.08 186.568L160.842 187.114L161.605 186.568L167.547 182.32L167.476 181.408ZM163.479 137.779L160.842 139.666L149.855 131.806L138.863 139.666L127.871 131.806L116.879 139.666L105.892 131.806L94.9037 139.666L83.912 131.806L72.9242 139.666L61.9324 131.806L50.9446 139.666L42.4012 133.555C42.2283 133.755 42.0593 133.955 41.8942 134.16L50.9446 140.632L61.9324 132.773L72.9242 140.632L83.912 132.773L94.9037 140.632L105.892 132.773L116.879 140.632L127.871 132.773L138.863 140.632L149.855 132.773L160.842 140.632L163.699 138.589C163.629 138.318 163.558 138.046 163.479 137.779ZM164.863 148.413L160.842 151.286L149.855 143.426L138.863 151.286L127.871 143.426L116.879 151.286L105.892 143.426L94.9037 151.286L83.912 143.426L72.9242 151.286L61.9324 143.426L50.9446 151.286L39.9529 143.426L34.5258 147.309C34.3765 147.73 34.2389 148.154 34.1053 148.578L39.9529 144.393L50.9446 152.253L61.9324 144.393L72.9242 152.253L83.912 144.393L94.9037 152.253L105.892 144.393L116.879 152.253L127.871 144.393L138.863 152.253L149.855 144.393L160.842 152.253L164.933 149.329L164.863 148.413ZM138.863 209.393L127.871 201.533L116.879 209.393L105.892 201.533L94.9037 209.393L83.912 201.533L72.9242 209.393L62.3466 201.828V202.794L72.9258 210.359L83.9136 202.5L94.9053 210.359L105.893 202.5L116.881 210.359L127.873 202.5L138.864 210.359L143.93 206.736L143.942 205.761L138.863 209.393ZM149.874 121.168L156.17 125.667C154.296 123.875 152.177 122.36 149.874 121.168ZM138.863 128.045L127.871 120.185L116.879 128.045L105.892 120.185L94.9037 128.045L83.912 120.185L72.9242 128.045L62.0896 120.299L61.9324 120.185L61.4923 120.5L50.9446 128.045L49.3963 126.937C49.1762 127.102 48.9601 127.267 48.7479 127.44L50.9446 129.012L61.9324 121.152L72.9242 129.012L83.912 121.152L94.9037 129.012L105.892 121.152L116.879 129.012L127.871 121.152L138.863 129.012L149.851 121.156C149.587 121.018 149.32 120.885 149.053 120.759L138.863 128.045ZM138.863 232.634L127.871 224.774L116.879 232.634L105.892 224.774L94.9037 232.634L83.912 224.774L72.9242 232.634L62.3466 225.069V226.035L72.9258 233.6L83.9136 225.741L94.9053 233.6L105.893 225.741L116.881 233.6L127.873 225.741L138.864 233.6L143.726 230.122L143.733 229.152L138.863 232.634ZM138.863 221.013L127.871 213.153L116.879 221.013L105.892 213.153L94.9037 221.013L83.912 213.153L72.9242 221.013L62.3466 213.448V214.415L72.9258 221.98L83.9136 214.12L94.9053 221.98L105.893 214.12L116.881 221.98L127.873 214.12L138.864 221.98L143.832 218.427L143.84 217.457L138.863 221.013ZM138.863 197.772L127.871 189.912L116.879 197.772L105.892 189.912L94.9037 197.772L83.912 189.912L72.9242 197.772L62.3466 190.207V191.174L72.9258 198.739L83.9136 190.879L94.9053 198.739L105.893 190.879L116.881 198.739L127.873 190.879L138.864 198.739L144.036 195.041L144.044 194.07L138.863 197.772Z" fill="#579FAE"/>
<path d="M63.7508 152.359H62.8855V174.174H63.7508V152.359Z" fill="#579FAE"/>
<path d="M167.889 186.567H144.111L143.751 227.555C143.744 228.415 143.906 229.268 144.23 230.065C144.554 230.862 145.033 231.586 145.638 232.197C146.244 232.808 146.964 233.293 147.758 233.624C148.552 233.955 149.404 234.125 150.264 234.125C154.938 234.125 159.422 232.268 162.727 228.963C166.032 225.657 167.889 221.174 167.889 216.5V186.567Z" fill="#FFC1C2"/>
<path d="M167.889 186.567L153.95 190.254L155.499 186.567H167.889Z" fill="#EE9C9E"/>
<path d="M157.526 200.186C157.155 208.229 153.817 215.848 148.156 221.573C146.981 222.772 145.445 223.552 143.784 223.792L143.938 208.711C144.113 208.752 144.219 208.776 144.245 208.783C144.141 208.731 144.039 208.681 143.938 208.633L144.016 200.849C145.824 201.207 147.112 201.504 147.214 201.525C146.063 201.069 144.999 200.634 144.023 200.219L144.107 191.837C147.774 191.889 151.047 192.179 151.047 192.179L152.372 192.64C153.931 193.173 155.274 194.197 156.203 195.557C157.132 196.917 157.596 198.541 157.526 200.186Z" fill="#EE9C9E"/>
<path d="M94.0546 136.852L93.1193 136.674C92.052 136.471 91.0224 137.172 90.8192 138.239L82.7705 180.565C82.5678 181.632 83.2684 182.662 84.3358 182.865L85.2707 183.043C86.338 183.246 87.368 182.545 87.5708 181.478L95.6195 139.152C95.8227 138.085 95.122 137.055 94.0546 136.852Z" fill="#9BCFDC"/>
<path d="M92.9338 151.445L88.8036 150.659C87.6321 150.437 86.5019 151.206 86.2791 152.377L81.0194 180.037C80.7966 181.208 81.5656 182.338 82.7367 182.561L86.8674 183.346C88.0388 183.569 89.1691 182.8 89.3919 181.629L94.6516 153.969C94.8744 152.798 94.1053 151.668 92.9338 151.445Z" fill="#32477B"/>
<path d="M95.3069 143.845C104.207 143.845 111.421 136.631 111.421 127.731C111.421 118.832 104.207 111.617 95.3069 111.617C86.4074 111.617 79.1926 118.832 79.1926 127.731C79.1926 136.631 86.4074 143.845 95.3069 143.845Z" fill="#9BCFDC"/>
<path d="M95.3058 140.959C102.612 140.959 108.534 135.037 108.534 127.731C108.534 120.425 102.612 114.503 95.3058 114.503C88.0003 114.503 82.0776 120.425 82.0776 127.731C82.0776 135.037 88.0003 140.959 95.3058 140.959Z" fill="#32477B"/>
<path d="M85.6339 131.655C85.4727 131.625 85.3226 131.55 85.2008 131.441C85.079 131.331 84.9894 131.19 84.9422 131.033C84.137 128.377 84.3653 125.516 85.5816 123.022C86.7979 120.528 88.9121 118.586 91.5003 117.586C91.61 117.543 91.7271 117.523 91.845 117.525C91.9629 117.528 92.0788 117.554 92.1865 117.602C92.2942 117.649 92.3916 117.717 92.473 117.803C92.5543 117.888 92.6184 117.988 92.6608 118.098C92.7032 118.208 92.7237 118.325 92.7213 118.443C92.7186 118.56 92.6926 118.676 92.6451 118.784C92.5975 118.892 92.5292 118.989 92.4439 119.07C92.359 119.152 92.2584 119.216 92.1487 119.258C89.9818 120.095 88.2119 121.721 87.1936 123.808C86.1754 125.896 85.9844 128.291 86.6592 130.514C86.7032 130.662 86.7087 130.818 86.6749 130.968C86.6415 131.119 86.5696 131.258 86.4666 131.372C86.3636 131.486 86.2328 131.572 86.087 131.622C85.9412 131.671 85.7852 131.682 85.6339 131.654V131.655Z" fill="white"/>
<path d="M90.5189 137.545C90.4965 137.541 90.4741 137.536 90.4521 137.53C89.58 137.283 88.7701 136.854 88.0761 136.271C87.3821 135.687 86.8197 134.964 86.426 134.147C86.3792 134.039 86.3537 133.923 86.3517 133.805C86.3497 133.687 86.3709 133.57 86.4142 133.461C86.457 133.351 86.5214 133.251 86.6032 133.166C86.6853 133.082 86.7828 133.014 86.8909 132.967C86.9989 132.92 87.1153 132.894 87.2328 132.893C87.3507 132.891 87.4678 132.912 87.5774 132.955C87.6866 132.998 87.7869 133.062 87.8718 133.144C87.9562 133.226 88.0242 133.324 88.071 133.432C88.3547 134.003 88.7544 134.508 89.2444 134.916C89.7349 135.323 90.3051 135.624 90.9181 135.798C91.1421 135.858 91.3339 136.003 91.4534 136.201C91.5729 136.4 91.6106 136.638 91.5591 136.864C91.5076 137.09 91.3701 137.287 91.1763 137.414C90.9822 137.541 90.7468 137.588 90.5189 137.545Z" fill="white"/>
<path d="M94.1064 162.372C94.4353 163.148 94.5131 164.008 94.3284 164.831C94.1441 165.654 93.7067 166.398 93.0779 166.959C93.0779 166.959 93.9107 169.88 91.5488 170.715C91.5488 170.715 92.1717 172.666 90.7137 173.496C89.9486 173.857 89.1281 174.086 88.2867 174.173L88.3496 174.256L88.3409 174.269L79.9071 185.45L52.0682 222.358C43.8721 232.162 27.9107 226.016 28.4063 213.248L29.3888 187.816H50.6649L71.5224 164.316C73.7212 161.522 76.7338 159.481 80.1437 158.475L94.106 156.946C94.106 156.946 96.8038 159.172 94.1064 162.372Z" fill="#FFC1C2"/>
<path d="M50.2218 187.506L40.3489 201.551L41.2339 202.173L51.1068 188.128L50.2218 187.506Z" fill="#EE9C9E"/>
<path d="M29.3879 187.819L48.7962 190.475L50.1767 187.819H29.3879Z" fill="#EE9C9E"/>
<path d="M168.2 156.308L141.183 217.919C140.902 218.564 140.467 219.131 139.917 219.57C139.367 220.009 138.718 220.308 138.027 220.44C123.663 223.163 108.935 223.355 94.5057 221.009C93.8521 220.901 93.232 220.646 92.6924 220.262C92.1529 219.877 91.7084 219.375 91.3932 218.792C91.0777 218.21 90.9 217.563 90.8729 216.902C90.8462 216.24 90.9708 215.58 91.238 214.974C100.447 194.019 109.656 173.064 118.865 152.109C119.253 151.223 119.926 150.492 120.777 150.032C121.628 149.573 122.608 149.411 123.562 149.573C136.803 151.844 150.313 152.077 163.624 150.261C164.389 150.155 165.169 150.255 165.882 150.551C166.596 150.847 167.218 151.327 167.685 151.943C168.151 152.559 168.444 153.289 168.535 154.056C168.625 154.823 168.51 155.601 168.2 156.308Z" fill="#E8EBF6"/>
<path d="M168.216 156.308L142.326 217.919C142.066 218.555 141.655 219.118 141.127 219.557C140.6 219.997 139.972 220.3 139.3 220.44C125.548 223.162 111.415 223.355 97.5938 221.009C94.9117 220.554 93.3689 217.57 94.4622 214.974C103.288 194.019 112.113 173.064 120.939 152.109C121.288 151.237 121.924 150.51 122.743 150.048C123.561 149.587 124.513 149.419 125.44 149.573C138.119 151.844 151.08 152.077 163.832 150.261C167.058 149.801 169.523 153.197 168.216 156.308Z" fill="white"/>
<path d="M150.615 189.8C150.615 189.8 115.277 186.667 146.789 199.149C146.789 199.149 112.555 191.246 143.819 206.406C143.819 206.406 110.834 198.518 140.823 213.726C140.823 213.726 108.083 206.448 138.08 220.43L139.474 220.972C140.873 221.516 142.4 221.638 143.867 221.322C145.334 221.006 146.676 220.266 147.727 219.194C153.387 213.469 156.724 205.849 157.094 197.806C157.163 196.161 156.699 194.537 155.77 193.178C154.842 191.818 153.498 190.795 151.941 190.261L150.615 189.8Z" fill="#FFC1C2"/>
<path d="M94.107 161.367H89.4619V162.448H94.107V161.367Z" fill="#EE9C9E"/>
<path d="M93.0769 166.419H89.9248V167.501H93.0769V166.419Z" fill="#EE9C9E"/>
<path d="M91.5475 170.174H88.6272V171.255H91.5475V170.174Z" fill="#EE9C9E"/>
<path d="M88.3393 174.268L79.9055 185.45L80.8951 180.002C81.1918 178.366 82.0532 176.887 83.3292 175.822C84.6052 174.757 86.2145 174.173 87.8764 174.173H88.2863C88.3048 174.205 88.3224 174.238 88.3393 174.268Z" fill="#EE9C9E"/>
<path d="M93.3357 94.0993L97.1673 94.6338L96.1574 101.872C94.8134 99.3134 93.6372 96.6694 92.6362 93.9578C92.8661 94.0195 93.0999 94.0667 93.3357 94.0993Z" fill="#32477B"/>
<path d="M125.265 80.4102C125.053 80.8424 124.95 81.6339 124.275 81.7597C118.78 82.7873 109.45 80.6346 106.252 79.7853C105.942 79.7004 105.612 79.7228 105.317 79.8486C105.021 79.9739 104.777 80.196 104.623 80.4777C103.389 82.7893 100.737 85.5115 99.1964 86.9895C99.112 87.0708 99.0039 87.1239 98.8876 87.1412C98.7716 87.1585 98.6529 87.1388 98.5484 87.0858C98.4439 87.0323 98.3582 86.9474 98.3044 86.8433C98.2501 86.7391 98.2297 86.6205 98.2462 86.5041L98.7999 82.5963C98.8196 82.4568 98.7866 82.3149 98.7072 82.1986C98.6274 82.0823 98.5072 81.9998 98.37 81.9675L96.8798 81.6178C95.7154 81.3447 94.5007 81.3741 93.3512 81.7039C92.2017 82.0332 91.1556 82.6517 90.3131 83.5002C90.1559 82.7492 88.7895 75.6452 93.5119 70.9055C94.8984 69.5351 96.598 68.5232 98.4635 67.9581C105.437 63.5638 113.463 62.9609 118.822 66.6613C123.015 69.5599 127.28 76.2736 125.265 80.4102Z" fill="#32477B"/>
</svg>
