<svg width="18" height="18" viewBox="0 0 18 18" fill="none" xmlns="http://www.w3.org/2000/svg">
<g clip-path="url(#clip0_7860_6603)">
<path fill-rule="evenodd" clip-rule="evenodd" d="M7.57125 13.7531C4.03312 13.7531 1.16495 10.935 1.16495 7.45312C1.16495 3.97125 4.03312 1.14752 7.57125 1.14752C11.1094 1.14752 13.9781 3.97125 13.9781 7.45312C13.9781 10.935 11.1094 13.7531 7.57125 13.7531ZM17.8245 17.0156L13.1788 12.4425C14.3955 11.1206 15.1425 9.37687 15.1425 7.45312C15.1425 3.33562 11.7529 0 7.57125 0C3.38962 0 0 3.33562 0 7.45312C0 11.565 3.38962 14.9006 7.57125 14.9006C9.378 14.9006 11.0351 14.2763 12.3368 13.2356L17.0016 17.8256C17.2288 18.0506 17.5972 18.0506 17.8245 17.8256C18.0523 17.6062 18.0523 17.2406 17.8245 17.0156ZM10.5126 6.98064H4.86169C4.55738 6.98064 4.31043 7.2225 4.31043 7.52062C4.31043 7.81875 4.55738 8.0606 4.86169 8.0606H10.5126C10.8169 8.0606 11.0638 7.81875 11.0638 7.52062C11.0638 7.2225 10.8169 6.98064 10.5126 6.98064Z" fill="white"/>
</g>
<defs>
<clipPath id="clip0_7860_6603">
<rect width="18" height="18" fill="white"/>
</clipPath>
</defs>
</svg>
