<svg width="24" height="24" viewBox="0 0 24 24" fill="none" xmlns="http://www.w3.org/2000/svg">
<path d="M11.9124 0C5.34868 0 0 5.34868 0 11.9124C0 18.4762 5.34868 23.8249 11.9124 23.8249C18.4762 23.8249 23.8249 18.4762 23.8249 11.9124C23.8249 5.34868 18.4762 0 11.9124 0ZM16.6774 12.8059H12.8059V16.6774C12.8059 17.1658 12.4008 17.5708 11.9124 17.5708C11.424 17.5708 11.019 17.1658 11.019 16.6774V12.8059H7.14746C6.65905 12.8059 6.25403 12.4008 6.25403 11.9124C6.25403 11.424 6.65905 11.019 7.14746 11.019H11.019V7.14746C11.019 6.65905 11.424 6.25403 11.9124 6.25403C12.4008 6.25403 12.8059 6.65905 12.8059 7.14746V11.019H16.6774C17.1658 11.019 17.5708 11.424 17.5708 11.9124C17.5708 12.4008 17.1658 12.8059 16.6774 12.8059Z" fill="#007BFF"/>
</svg>
