<svg width="13" height="8" viewBox="0 0 13 8" fill="none" xmlns="http://www.w3.org/2000/svg">
<path d="M6.49707 0.250001C6.24925 0.250158 6.04603 0.40616 5.86523 0.586915C4.11097 2.34121 2.35482 4.0875 0.609375 5.84277C0.513897 5.92754 0.431588 6.02604 0.364258 6.13477C0.363285 6.13622 0.362289 6.13819 0.361329 6.13965C0.360247 6.14141 0.358495 6.14276 0.357422 6.14453L0.358399 6.14453C0.272531 6.27699 0.235382 6.435 0.254883 6.5918C0.274961 6.75241 0.352237 6.90085 0.472657 7.00879L0.47461 7.00684C0.582386 7.1169 0.722515 7.19014 0.875977 7.20899C1.0377 7.22874 1.20144 7.18911 1.33691 7.09863L1.34375 7.09375C1.44302 7.02226 1.53521 6.94152 1.61914 6.85254L6.42969 2.04199L6.43457 2.03613C6.45675 2.01082 6.4777 1.98402 6.49902 1.95801L7.85449 3.33106L7.85547 3.33301L11.4053 6.87207C11.4693 6.9431 11.5411 7.00621 11.6182 7.0625L11.6172 7.06348C11.6194 7.0653 11.6228 7.06559 11.625 7.06738C11.6279 7.06951 11.6298 7.07309 11.6328 7.0752L11.6338 7.07422C11.7653 7.17784 11.9303 7.22902 12.0977 7.21484C12.2588 7.20115 12.4065 7.12709 12.5176 7.01074L12.5186 7.01172C12.524 7.00707 12.528 7.0009 12.5332 6.99609C12.537 6.99187 12.5422 6.98871 12.5459 6.98437L12.5449 6.9834C12.6529 6.87889 12.7244 6.74264 12.7432 6.59277C12.7629 6.43513 12.7239 6.27657 12.6357 6.14453L12.6377 6.14453C12.5693 6.0318 12.4841 5.93015 12.3857 5.84277C10.6403 4.08746 8.88418 2.34124 7.12988 0.586915C6.94897 0.40602 6.74512 0.250001 6.49707 0.250001Z" fill="white" stroke="white" stroke-width="0.498812"/>
</svg>
