<svg width="29" height="29" viewBox="0 0 29 29" fill="none" xmlns="http://www.w3.org/2000/svg">
<path d="M19.5623 2.4165H9.43643C5.0381 2.4165 2.41602 5.03859 2.41602 9.43692V19.5507C2.41602 23.9611 5.0381 26.5832 9.43643 26.5832H19.5502C23.9485 26.5832 26.5706 23.9611 26.5706 19.5628V9.43692C26.5827 5.03859 23.9606 2.4165 19.5623 2.4165Z" fill="#E0EFFF"/>
<path d="M12.9774 19.6719C12.7479 19.6719 12.5183 19.5873 12.337 19.406C11.9866 19.0556 11.9866 18.4756 12.337 18.1252L15.962 14.5002L12.337 10.8752C11.9866 10.5248 11.9866 9.94477 12.337 9.59436C12.6874 9.24394 13.2674 9.24394 13.6179 9.59436L17.8833 13.8598C18.2337 14.2102 18.2337 14.7902 17.8833 15.1406L13.6179 19.406C13.4366 19.5873 13.207 19.6719 12.9774 19.6719Z" fill="#0F2446"/>
</svg>
