<svg width="30" height="30" viewBox="0 0 30 30" fill="none" xmlns="http://www.w3.org/2000/svg">
<path d="M30 21.4286C30 26.1624 26.1624 30 21.4286 30L8.57143 30C3.83756 30 -1.57186e-06 26.1624 -1.15801e-06 21.4286L-3.40036e-08 8.57143C3.79844e-07 3.83756 3.83756 -3.79845e-07 8.57143 3.40032e-08L21.4286 1.15801e-06C26.1624 1.57186e-06 30 3.83756 30 8.57143L30 21.4286Z" fill="#F1F1F1"/>
<path d="M12.5041 14.9817L13.7039 16.0765L16.394 18.5691C16.4443 18.61 16.4893 18.6563 16.5281 18.7068C16.5812 18.7654 16.6071 18.841 16.6001 18.9171C16.5932 18.9932 16.5539 19.0636 16.4909 19.1131C16.4402 19.1676 16.3694 19.2027 16.2923 19.2116C16.2151 19.2205 16.1372 19.2026 16.0736 19.1613C16.0008 19.1205 15.9354 19.0693 15.8798 19.0098C14.5459 17.7841 13.2195 16.5516 11.8856 15.3191C11.6174 15.0712 11.6174 14.9266 11.8856 14.6787C13.2195 13.4462 14.5459 12.2137 15.8798 10.988C15.9354 10.9284 16.0008 10.8773 16.0736 10.8365C16.1377 10.7966 16.2153 10.7796 16.292 10.7885C16.3687 10.7973 16.4393 10.8315 16.4909 10.8847C16.549 10.9335 16.5862 10.9999 16.5958 11.072C16.6054 11.144 16.5866 11.2168 16.543 11.2771C16.4946 11.3393 16.4397 11.397 16.3791 11.4493L12.7277 14.8233C12.657 14.8805 12.5823 14.9334 12.5041 14.9817Z" fill="#8C8C8C"/>
<path fill-rule="evenodd" clip-rule="evenodd" d="M11.6915 14.9435C11.6616 15.0611 11.7263 15.1718 11.8856 15.3191C12.3303 15.7299 12.7742 16.1408 13.2178 16.5515C14.1047 17.3726 14.9906 18.1927 15.8798 19.0098C15.9354 19.0693 16.0008 19.1205 16.0736 19.1613C16.1372 19.2026 16.2151 19.2205 16.2923 19.2116C16.3694 19.2027 16.4402 19.1676 16.4909 19.1131C16.5539 19.0636 16.5932 18.9932 16.6001 18.9171C16.6071 18.841 16.5812 18.7654 16.5281 18.7068C16.4893 18.6563 16.4443 18.61 16.394 18.5691L13.7039 16.0765L12.5041 14.9817C12.5823 14.9334 12.657 14.8805 12.7277 14.8233L16.3791 11.4493C16.4397 11.397 16.4946 11.3393 16.543 11.2771C16.5866 11.2168 16.6054 11.144 16.5958 11.072C16.5862 10.9999 16.549 10.9335 16.4909 10.8847C16.4393 10.8315 16.3687 10.7973 16.292 10.7885C16.2153 10.7796 16.1377 10.7966 16.0736 10.8365C16.0008 10.8773 15.9354 10.9284 15.8798 10.988C14.9906 11.8051 14.1048 12.6252 13.2178 13.4463C12.7742 13.8569 12.3303 14.2678 11.8856 14.6787C11.8144 14.7446 11.762 14.8032 11.7286 14.8583C11.711 14.8875 11.6986 14.9157 11.6915 14.9435ZM15.4851 10.6449C14.5995 11.4587 13.7166 12.2761 12.8335 13.0937C12.3901 13.5041 11.9466 13.9147 11.5027 14.3249C11.3589 14.4578 11.1429 14.6832 11.1429 14.9989C11.1429 15.3145 11.3589 15.54 11.5027 15.6729C11.9466 16.0831 12.3901 16.4937 12.8335 16.9041C13.7166 17.7217 14.5995 18.5391 15.4851 19.3528C15.5707 19.4414 15.6696 19.5185 15.7791 19.5815C15.9498 19.6868 16.1558 19.7317 16.3595 19.7082C16.556 19.6855 16.7374 19.6005 16.8731 19.4684C17.0266 19.3353 17.1219 19.1541 17.1398 18.9593C17.1582 18.7591 17.0932 18.5603 16.9588 18.4031C16.9023 18.3315 16.8379 18.2653 16.7666 18.2056L14.0874 15.7231L13.2987 15.0034L16.7562 11.8086C16.8396 11.7357 16.9154 11.6557 16.9825 11.5696L16.9881 11.5624L16.9934 11.5551C17.1091 11.3951 17.1587 11.202 17.1334 11.011C17.1091 10.8284 17.0178 10.6594 16.8753 10.5318C16.7385 10.3997 16.5564 10.3146 16.3591 10.2919C16.1575 10.2686 15.9536 10.3118 15.7832 10.4139C15.6721 10.4773 15.5718 10.5552 15.4851 10.6449Z" fill="#8C8C8C"/>
</svg>
