<svg width="16" height="18" viewBox="0 0 16 18" fill="none" xmlns="http://www.w3.org/2000/svg">
<path fill-rule="evenodd" clip-rule="evenodd" d="M4.8 0C5.24183 0 5.6 0.366312 5.6 0.818182V1.22727H10.4V0.818182C10.4 0.366312 10.7582 0 11.2 0C11.6418 0 12 0.366312 12 0.818182V1.27098C13.1821 1.40543 14.1433 1.85058 14.8362 2.61372C15.6695 3.53143 16 4.78367 16 6.13636V13.0909C16 14.4436 15.6695 15.6958 14.8362 16.6136C13.993 17.5422 12.7525 18 11.2 18H4.8C3.24752 18 2.00695 17.5422 1.16377 16.6136C0.330543 15.6958 0 14.4436 0 13.0909V6.13636C0 4.78367 0.330543 3.53143 1.16377 2.61372C1.85665 1.85058 2.81787 1.40543 4 1.27098V0.818182C4 0.366312 4.35817 0 4.8 0ZM4 2.92036C3.21272 3.04065 2.68585 3.34212 2.33623 3.72719C1.91826 4.18755 1.6585 4.87172 1.60875 5.80088H14.3912C14.3415 4.87172 14.0817 4.18755 13.6638 3.72719C13.3141 3.34212 12.7873 3.04065 12 2.92036V3.27273C12 3.7246 11.6418 4.09091 11.2 4.09091C10.7582 4.09091 10.4 3.7246 10.4 3.27273V2.86364H5.6V3.27273C5.6 3.7246 5.24183 4.09091 4.8 4.09091C4.35817 4.09091 4 3.7246 4 3.27273V2.92036ZM14.4 7.43724H1.6V13.0909C1.6 14.1928 1.86946 14.986 2.33623 15.5001C2.79305 16.0032 3.55248 16.3636 4.8 16.3636H11.2C12.4475 16.3636 13.207 16.0032 13.6638 15.5001C14.1305 14.986 14.4 14.1928 14.4 13.0909V7.43724ZM7.19639 10.3909C7.19639 9.93905 7.55457 9.57274 7.9964 9.57274H8.0036C8.44542 9.57274 8.8036 9.93905 8.8036 10.3909C8.8036 10.8428 8.44542 11.2091 8.0036 11.2091H7.9964C7.55457 11.2091 7.19639 10.8428 7.19639 10.3909ZM10.1558 10.3909C10.1558 9.93905 10.5139 9.57274 10.9558 9.57274H10.963C11.4048 9.57274 11.763 9.93905 11.763 10.3909C11.763 10.8428 11.4048 11.2091 10.963 11.2091H10.9558C10.5139 11.2091 10.1558 10.8428 10.1558 10.3909ZM4.23545 10.3909C4.23545 9.93905 4.59362 9.57274 5.03545 9.57274H5.04263C5.48446 9.57274 5.84263 9.93905 5.84263 10.3909C5.84263 10.8428 5.48446 11.2091 5.04263 11.2091H5.03545C4.59362 11.2091 4.23545 10.8428 4.23545 10.3909ZM4.23546 12.8455C4.23546 12.3936 4.59363 12.0273 5.03546 12.0273H5.04264C5.48447 12.0273 5.84264 12.3936 5.84264 12.8455C5.84264 13.2973 5.48447 13.6636 5.04264 13.6636H5.03546C4.59363 13.6636 4.23546 13.2973 4.23546 12.8455ZM7.19639 12.8455C7.19639 12.3936 7.55457 12.0273 7.9964 12.0273H8.0036C8.44542 12.0273 8.8036 12.3936 8.8036 12.8455C8.8036 13.2973 8.44542 13.6636 8.0036 13.6636H7.9964C7.55457 13.6636 7.19639 13.2973 7.19639 12.8455ZM10.1558 12.8455C10.1558 12.3936 10.5139 12.0273 10.9558 12.0273H10.963C11.4048 12.0273 11.763 12.3936 11.763 12.8455C11.763 13.2973 11.4048 13.6636 10.963 13.6636H10.9558C10.5139 13.6636 10.1558 13.2973 10.1558 12.8455Z" fill="white"/>
</svg>
