<svg width="17" height="20" viewBox="0 0 17 20" fill="none" xmlns="http://www.w3.org/2000/svg">
<path fill-rule="evenodd" clip-rule="evenodd" d="M5.1 0C5.56944 0 5.95 0.389207 5.95 0.869318V1.30398H11.05V0.869318C11.05 0.389207 11.4306 0 11.9 0C12.3694 0 12.75 0.389207 12.75 0.869318V1.35042C14.006 1.49327 15.0273 1.96624 15.7635 2.77708C16.6488 3.75215 17 5.08265 17 6.51989V13.9091C17 15.3463 16.6488 16.6768 15.7635 17.6519C14.8676 18.6386 13.5495 19.125 11.9 19.125H5.1C3.45049 19.125 2.13239 18.6386 1.2365 17.6519C0.351202 16.6768 0 15.3463 0 13.9091V6.51989C0 5.08265 0.351202 3.75215 1.2365 2.77708C1.97269 1.96624 2.99399 1.49327 4.25 1.35042V0.869318C4.25 0.389207 4.63056 0 5.1 0ZM4.25 3.10289C3.41352 3.23069 2.85372 3.551 2.48225 3.96014C2.03815 4.44927 1.76215 5.1762 1.7093 6.16344H15.2907C15.2378 5.1762 14.9619 4.44927 14.5178 3.96014C14.1463 3.551 13.5865 3.23069 12.75 3.10289V3.47727C12.75 3.95738 12.3694 4.34659 11.9 4.34659C11.4306 4.34659 11.05 3.95738 11.05 3.47727V3.04261H5.95V3.47727C5.95 3.95738 5.56944 4.34659 5.1 4.34659C4.63056 4.34659 4.25 3.95738 4.25 3.47727V3.10289ZM15.3 7.90207H1.7V13.9091C1.7 15.0798 1.9863 15.9226 2.48225 16.4688C2.96761 17.0034 3.77451 17.3864 5.1 17.3864H11.9C13.2255 17.3864 14.0324 17.0034 14.5178 16.4688C15.0137 15.9226 15.3 15.0798 15.3 13.9091V7.90207ZM7.64617 11.0403C7.64617 10.5602 8.02673 10.171 8.49617 10.171H8.50382C8.97326 10.171 9.35382 10.5602 9.35382 11.0403C9.35382 11.5205 8.97326 11.9097 8.50382 11.9097H8.49617C8.02673 11.9097 7.64617 11.5205 7.64617 11.0403ZM10.7905 11.0403C10.7905 10.5602 11.1711 10.171 11.6405 10.171H11.6482C12.1176 10.171 12.4982 10.5602 12.4982 11.0403C12.4982 11.5205 12.1176 11.9097 11.6482 11.9097H11.6405C11.1711 11.9097 10.7905 11.5205 10.7905 11.0403ZM4.50017 11.0404C4.50017 10.5602 4.88072 10.171 5.35017 10.171H5.3578C5.82724 10.171 6.2078 10.5602 6.2078 11.0404C6.2078 11.5205 5.82724 11.9097 5.3578 11.9097H5.35017C4.88072 11.9097 4.50017 11.5205 4.50017 11.0404ZM4.50017 13.6483C4.50017 13.1682 4.88073 12.779 5.35017 12.779H5.35781C5.82725 12.779 6.20781 13.1682 6.20781 13.6483C6.20781 14.1284 5.82725 14.5176 5.35781 14.5176H5.35017C4.88073 14.5176 4.50017 14.1284 4.50017 13.6483ZM7.64617 13.6483C7.64617 13.1682 8.02673 12.779 8.49617 12.779H8.50382C8.97326 12.779 9.35382 13.1682 9.35382 13.6483C9.35382 14.1284 8.97326 14.5176 8.50382 14.5176H8.49617C8.02673 14.5176 7.64617 14.1284 7.64617 13.6483ZM10.7905 13.6483C10.7905 13.1682 11.1711 12.779 11.6405 12.779H11.6482C12.1176 12.779 12.4982 13.1682 12.4982 13.6483C12.4982 14.1284 12.1176 14.5176 11.6482 14.5176H11.6405C11.1711 14.5176 10.7905 14.1284 10.7905 13.6483Z" fill="#747474"/>
</svg>
