<svg width="18" height="18" viewBox="0 0 18 18" fill="none" xmlns="http://www.w3.org/2000/svg">
<path d="M9.28772 0.717738C9.28772 0.527686 9.36322 0.345417 9.4976 0.21103C9.63199 0.0766424 9.81426 0.00114438 10.0043 0.00114438C11.9042 0.00323081 13.7257 0.758881 15.0691 2.1023C16.4125 3.44573 17.1682 5.2672 17.1702 7.16708C17.1702 7.35713 17.0948 7.5394 16.9604 7.67379C16.826 7.80818 16.6437 7.88368 16.4537 7.88368C16.2636 7.88368 16.0813 7.80818 15.9469 7.67379C15.8126 7.5394 15.7371 7.35713 15.7371 7.16708C15.7354 5.64719 15.1308 4.19003 14.0561 3.1153C12.9814 2.04057 11.5242 1.43604 10.0043 1.43433C9.81426 1.43433 9.63199 1.35883 9.4976 1.22445C9.36322 1.09006 9.28772 0.907791 9.28772 0.717738ZM10.0043 4.30071C10.7645 4.30071 11.4936 4.6027 12.0311 5.14025C12.5687 5.6778 12.8707 6.40687 12.8707 7.16708C12.8707 7.35713 12.9462 7.5394 13.0806 7.67379C13.215 7.80818 13.3972 7.88368 13.5873 7.88368C13.7773 7.88368 13.9596 7.80818 14.094 7.67379C14.2284 7.5394 14.3039 7.35713 14.3039 7.16708C14.3027 6.02712 13.8494 4.93417 13.0433 4.12809C12.2372 3.32201 11.1443 2.86866 10.0043 2.86752C9.81426 2.86752 9.63199 2.94302 9.4976 3.0774C9.36322 3.21179 9.28772 3.39406 9.28772 3.58411C9.28772 3.77417 9.36322 3.95643 9.4976 4.09082C9.63199 4.22521 9.81426 4.30071 10.0043 4.30071ZM16.5203 11.9962C16.9356 12.4126 17.1688 12.9767 17.1688 13.5648C17.1688 14.1529 16.9356 14.717 16.5203 15.1335L15.8682 15.8852C9.99929 21.504 -4.28242 7.22584 1.24968 1.33831L2.07377 0.621715C2.49066 0.218041 3.04972 -0.0052698 3.63 9.44539e-05C4.21027 0.00545871 4.76511 0.239067 5.17447 0.650378C5.19668 0.672593 6.52453 2.39743 6.52453 2.39743C6.91854 2.81136 7.13787 3.3612 7.13693 3.93267C7.136 4.50413 6.91487 5.05325 6.51952 5.46589L5.6897 6.50925C6.14893 7.62507 6.82411 8.63914 7.67646 9.49321C8.52881 10.3473 9.54152 11.0245 10.6564 11.486L11.7062 10.6512C12.1189 10.2561 12.6679 10.0352 13.2392 10.0344C13.8105 10.0336 14.3602 10.253 14.774 10.6469C14.774 10.6469 16.4981 11.974 16.5203 11.9962ZM15.5343 13.0381C15.5343 13.0381 13.8195 11.7189 13.7972 11.6967C13.6496 11.5503 13.4501 11.4682 13.2422 11.4682C13.0343 11.4682 12.8349 11.5503 12.6872 11.6967C12.6679 11.7167 11.2225 12.8683 11.2225 12.8683C11.1251 12.9458 11.0092 12.9966 10.8862 13.0157C10.7632 13.0348 10.6373 13.0216 10.521 12.9772C9.07665 12.4395 7.76477 11.5976 6.67418 10.5086C5.5836 9.41964 4.73978 8.109 4.1999 6.66547C4.15203 6.54755 4.13643 6.41902 4.15469 6.29308C4.17295 6.16714 4.22442 6.04833 4.30381 5.94887C4.30381 5.94887 5.45537 4.50279 5.47472 4.48416C5.6211 4.33653 5.70323 4.13705 5.70323 3.92915C5.70323 3.72126 5.6211 3.52178 5.47472 3.37415C5.45251 3.35265 4.13326 1.63641 4.13326 1.63641C3.98342 1.50206 3.78786 1.4301 3.58667 1.4353C3.38549 1.44049 3.19391 1.52245 3.0512 1.66436L2.22712 2.38095C-1.8159 7.24232 10.5604 18.9321 14.8205 14.9063L15.4734 14.1539C15.6263 14.0122 15.7182 13.8165 15.7296 13.6083C15.741 13.4001 15.6709 13.1956 15.5343 13.0381Z" fill="#757575"/>
</svg>
