<svg width="35" height="29" viewBox="0 0 35 29" fill="none" xmlns="http://www.w3.org/2000/svg">
<path d="M31.7188 4.375H26.688L24.0625 0H10.9375L8.3125 4.375H3.28125C2.1875 4.375 0 5.46875 0 7.62234V25.1562C0 26.968 1.64063 28.4375 3.0532 28.4375H31.7871C33.2227 28.4375 35 26.8997 35 25.1907V7.65625C35 6.5625 33.9062 4.375 31.7188 4.375ZM32.8125 25.1907C32.8125 25.6222 32.1131 26.2259 31.7871 26.2505H3.0598C2.8066 26.2297 2.18753 25.7365 2.18753 25.1562V7.62234C2.18753 6.92945 3.11832 6.58 3.28128 6.5625H9.55121L12.1762 2.1875H22.8966L24.8489 5.50105L25.4505 6.5625H31.7188C32.4898 6.5625 32.8016 7.56984 32.8125 7.65625V25.1907ZM17.5 7.65625C13.2716 7.65625 9.84378 11.0841 9.84378 15.3125C9.84378 19.5409 13.2716 22.9688 17.5 22.9688C21.7285 22.9688 25.1563 19.5409 25.1563 15.3125C25.1563 11.0841 21.7285 7.65625 17.5 7.65625ZM17.5 20.7812C14.4846 20.7812 12.0313 18.328 12.0313 15.3125C12.0313 12.297 14.4846 9.84375 17.5 9.84375C20.5155 9.84375 22.9688 12.297 22.9688 15.3125C22.9688 18.328 20.5155 20.7812 17.5 20.7812Z" fill="#2B6DEE"/>
</svg>
