<svg width="28" height="28" viewBox="0 0 28 28" fill="none" xmlns="http://www.w3.org/2000/svg">
<rect x="0.25" y="0.25" width="27.5" height="27.5" rx="2.75" fill="white" fill-opacity="0.47" stroke="#DBDBDB" stroke-width="0.5"/>
<path d="M20.0182 10.8312C20.0182 10.6501 19.973 10.469 19.8372 10.3785C19.7014 10.288 19.5656 10.288 19.475 10.288C19.3845 10.288 19.1129 10.3332 19.1129 10.8764V19.5225C19.1129 20.8353 18.3433 21.6048 16.9853 21.6048C14.903 21.6048 12.866 21.6048 10.7837 21.6048C9.38037 21.6048 8.61082 20.8353 8.61082 19.4773V10.9217C8.61082 10.8312 8.61082 10.7859 8.61082 10.6954C8.56555 10.4238 8.38448 10.288 8.15814 10.288C8.02234 10.288 7.70547 10.288 7.70547 10.9217V12.0534C7.70547 14.5884 7.70547 17.0781 7.70547 19.6131C7.70547 21.3785 8.88242 22.5554 10.6479 22.5554C12.7754 22.5554 14.903 22.5554 16.9853 22.5554C18.796 22.5554 19.9277 21.3785 19.9277 19.5678C19.9277 18.6172 19.9277 17.6213 19.9277 16.6707V13.1398C20.0635 12.4155 20.0635 11.646 20.0182 10.8312Z" fill="#F40000"/>
<path d="M20.3804 7.88878C19.8824 7.88878 19.4297 7.88878 18.9318 7.88878H17.6191C17.5285 7.88878 17.3927 7.88878 17.3022 7.88878L16.8495 7.84351V7.0287C16.8495 6.71183 16.8495 6.39495 16.8495 6.07808C16.8495 5.58014 16.7137 5.44434 16.2158 5.44434C14.7219 5.44434 13.1828 5.44434 11.689 5.44434C11.1458 5.44434 11.01 5.58014 11.01 6.07808C11.01 6.39495 11.01 6.71183 11.01 7.0287V7.79824L10.5573 7.84351C10.4668 7.84351 10.3763 7.84351 10.2857 7.84351H10.0594C9.24456 7.84351 8.42975 7.84351 7.56967 7.84351C7.25279 7.84351 7.11699 7.93405 7.07172 8.06985C6.93592 8.25092 7.02646 8.43199 7.07172 8.52253C7.16226 8.65833 7.34333 8.74886 7.5244 8.74886C8.65609 8.74886 9.83304 8.74886 10.9647 8.74886H14.224C14.8577 8.74886 15.4915 8.74886 16.1252 8.74886C17.5285 8.74886 18.9318 8.74886 20.3351 8.74886C20.652 8.74886 20.7425 8.7036 20.833 8.56779C20.9688 8.34146 20.9688 8.20565 20.9236 8.11512C20.7425 7.97932 20.6067 7.88878 20.3804 7.88878ZM15.8536 7.84351H11.9606V6.39495H15.8536V7.84351Z" fill="#F40000"/>
<path d="M11.8248 13.8188C11.8248 15.1768 11.8248 16.5349 11.8248 17.8929C11.8248 18.0287 11.8248 18.2098 11.8701 18.3456C11.9153 18.5266 12.1417 18.6172 12.3228 18.5719C12.5944 18.5266 12.7302 18.3456 12.7302 18.074C12.7302 17.395 12.7302 16.7612 12.7302 16.0822V14.4526C12.7302 13.7736 12.7302 13.1398 12.7302 12.4608C12.7302 12.1439 12.5491 11.9629 12.2775 11.9629C11.9153 11.9629 11.8248 12.2345 11.8248 12.4608C11.8248 12.5061 11.8248 12.5513 11.8248 12.5966V13.8188Z" fill="#F40000"/>
<path d="M15.0388 16.0822C15.0388 16.7159 15.0388 17.395 15.0388 18.0287C15.0388 18.3456 15.2199 18.5719 15.4915 18.5719C15.7631 18.5719 15.9442 18.3908 15.9442 18.074C15.9442 16.5801 15.9442 15.041 15.9442 13.5472V12.4608C15.9442 12.2345 15.8536 12.0987 15.6273 12.0081C15.582 12.0081 15.4915 11.9629 15.4462 11.9629C15.3557 11.9629 15.2651 12.0081 15.2199 12.0534C15.0841 12.1439 14.9935 12.325 14.9935 12.5061C14.9935 13.1398 14.9935 13.8188 14.9935 14.4526V15.2674L15.0388 16.0822Z" fill="#F40000"/>
</svg>
