<svg width="17" height="20" viewBox="0 0 17 20" fill="none" xmlns="http://www.w3.org/2000/svg">
<path d="M15.1459 6.26725C15.1459 6.05658 15.0932 5.84592 14.9352 5.74059C14.7772 5.63525 14.6192 5.63525 14.5139 5.63525C14.4085 5.63525 14.0925 5.68792 14.0925 6.31991V16.3791C14.0925 17.9064 13.1972 18.8017 11.6172 18.8017C9.19462 18.8017 6.82467 18.8017 4.40204 18.8017C2.7694 18.8017 1.87408 17.9064 1.87408 16.3264V6.37258C1.87408 6.26725 1.87408 6.21458 1.87408 6.10925C1.82142 5.79325 1.61075 5.63525 1.34743 5.63525C1.18943 5.63525 0.820768 5.63525 0.820768 6.37258V7.68923C0.820768 10.6385 0.820768 13.5351 0.820768 16.4844C0.820768 18.5384 2.19008 19.9077 4.24404 19.9077C6.71933 19.9077 9.19462 19.9077 11.6172 19.9077C13.7239 19.9077 15.0405 18.5384 15.0405 16.4318C15.0405 15.3258 15.0405 14.1671 15.0405 13.0611V8.95321C15.1985 8.11055 15.1985 7.21523 15.1459 6.26725Z" fill="#747474"/>
<path d="M15.5672 2.84396C14.9879 2.84396 14.4612 2.84396 13.8819 2.84396H12.3546C12.2492 2.84396 12.0912 2.84396 11.9859 2.84396L11.4593 2.79129V1.84331C11.4593 1.47465 11.4593 1.10598 11.4593 0.737323C11.4593 0.157998 11.3013 0 10.7219 0C8.98396 0 7.19333 0 5.45536 0C4.82337 0 4.66537 0.157998 4.66537 0.737323C4.66537 1.10598 4.66537 1.47465 4.66537 1.84331V2.73863L4.13871 2.79129C4.03338 2.79129 3.92805 2.79129 3.82272 2.79129H3.55939C2.6114 2.79129 1.66342 2.79129 0.66277 2.79129C0.29411 2.79129 0.136113 2.89663 0.0834467 3.05462C-0.0745506 3.26529 0.030781 3.47595 0.0834467 3.58128C0.188778 3.73928 0.399441 3.84461 0.610104 3.84461C1.92675 3.84461 3.29606 3.84461 4.6127 3.84461H8.40464C9.14196 3.84461 9.87928 3.84461 10.6166 3.84461C12.2492 3.84461 13.8819 3.84461 15.5145 3.84461C15.8832 3.84461 15.9885 3.79195 16.0938 3.63395C16.2518 3.37062 16.2518 3.21262 16.1992 3.10729C15.9885 2.94929 15.8305 2.84396 15.5672 2.84396ZM10.3006 2.79129H5.77135V1.10598H10.3006V2.79129Z" fill="#747474"/>
<path d="M5.61335 9.7432C5.61335 11.3232 5.61335 12.9032 5.61335 14.4831C5.61335 14.6411 5.61335 14.8518 5.66602 15.0098C5.71868 15.2205 5.98201 15.3258 6.19268 15.2731C6.50867 15.2205 6.66667 15.0098 6.66667 14.6938C6.66667 13.9038 6.66667 13.1665 6.66667 12.3765V10.4805C6.66667 9.69053 6.66667 8.95321 6.66667 8.16322C6.66667 7.79456 6.45601 7.58389 6.14001 7.58389C5.71868 7.58389 5.61335 7.89989 5.61335 8.16322C5.61335 8.21588 5.61335 8.26855 5.61335 8.32122V9.7432Z" fill="#747474"/>
<path d="M9.35262 12.3765C9.35262 13.1138 9.35262 13.9038 9.35262 14.6411C9.35262 15.0098 9.56329 15.2731 9.87928 15.2731C10.1953 15.2731 10.4059 15.0625 10.4059 14.6938C10.4059 12.9558 10.4059 11.1652 10.4059 9.4272V8.16322C10.4059 7.89989 10.3006 7.74189 10.0373 7.63656C9.98461 7.63656 9.87928 7.58389 9.82661 7.58389C9.72128 7.58389 9.61595 7.63656 9.56328 7.68923C9.40529 7.79456 9.29996 8.00522 9.29996 8.21589C9.29996 8.95321 9.29996 9.7432 9.29996 10.4805V11.4285L9.35262 12.3765Z" fill="#747474"/>
</svg>
