<svg width="18" height="18" viewBox="0 0 18 18" fill="none" xmlns="http://www.w3.org/2000/svg">
<path d="M17.0794 1.78773C17.0794 2.14383 16.8999 2.49993 16.541 2.85603C14.7461 4.8146 12.7717 6.59511 10.7974 8.55367C10.4384 8.90978 9.89994 9.08783 9.36148 9.08783C9.0025 9.08783 8.46404 9.26588 8.10507 9.26588C7.92558 9.26588 7.74609 9.26588 7.74609 8.90978C7.74609 8.19757 7.92558 7.48537 8.10507 6.95121C8.10507 6.77316 8.28456 6.41706 8.46404 6.23901C10.4384 4.28044 12.2333 2.49993 14.2076 0.541368C14.7461 0.00721434 15.2846 -0.170837 16.0025 0.185266C16.7205 0.363317 17.0794 1.07552 17.0794 1.78773ZM14.0281 1.60968C12.4128 3.21214 10.7974 4.8146 9.18199 6.41706C9.72045 6.95121 10.0794 7.30732 10.6179 7.84147C12.2333 6.23901 13.8487 4.63655 15.464 3.03409C15.1051 2.49993 14.5666 2.14383 14.0281 1.60968ZM16.0025 2.49993C16.3615 2.14383 16.541 1.96578 16.3615 1.43162C16.3615 1.07552 16.0025 0.719419 15.6435 0.541368C15.1051 0.363317 14.7461 0.541368 14.5666 0.897471C15.1051 1.60968 15.464 1.96578 16.0025 2.49993ZM10.0794 8.37562C9.72045 7.84147 9.18199 7.48537 8.64353 6.95121C8.64353 7.48537 8.46404 8.01952 8.28456 8.73173C9.0025 8.55367 9.54097 8.37562 10.0794 8.37562Z" fill="#747474"/>
<path d="M7.74649 1.99055C8.21039 1.99055 8.76986 1.61446 8.76986 1.15055C8.76986 0.686632 8.21039 0.310547 7.74649 0.310547V1.99055ZM17.36 9.28009C17.36 8.81619 16.9839 8.54519 16.52 8.54519C16.0561 8.54519 15.68 8.81619 15.68 9.28009H17.36ZM7.74649 0.310547H5.32V1.99055H7.74649V0.310547ZM5.32 0.310547C2.38185 0.310547 0 2.6924 0 5.63055H1.68C1.68 3.62023 3.30968 1.99055 5.32 1.99055V0.310547ZM0 5.63055V12.3506H1.68V5.63055H0ZM0 12.3506C0 15.2888 2.38185 17.6706 5.32 17.6706V15.9906C3.30968 15.9906 1.68 14.3608 1.68 12.3506H0ZM5.32 17.6706H12.04V15.9906H5.32V17.6706ZM12.04 17.6706C14.9782 17.6706 17.36 15.2888 17.36 12.3506H15.68C15.68 14.3608 14.0503 15.9906 12.04 15.9906V17.6706ZM17.36 12.3506V9.28009H15.68V12.3506H17.36Z" fill="#747474"/>
</svg>
