<svg width="31" height="31" viewBox="0 0 31 31" fill="none" xmlns="http://www.w3.org/2000/svg">
<path d="M24.8001 7.5486C24.8001 7.94285 24.6014 8.33711 24.2039 8.73136C22.2168 10.8998 20.0309 12.871 17.845 15.0394C17.4476 15.4337 16.8514 15.6308 16.2553 15.6308C15.8578 15.6308 15.2617 15.828 14.8642 15.828C14.6655 15.828 14.4668 15.828 14.4668 15.4337C14.4668 14.6452 14.6655 13.8567 14.8642 13.2653C14.8642 13.0682 15.0629 12.6739 15.2617 12.4768C17.4476 10.3084 19.4347 8.33711 21.6206 6.16871C22.2168 5.57732 22.8129 5.3802 23.6078 5.77445C24.4027 5.97158 24.8001 6.76009 24.8001 7.5486ZM21.4219 7.35147C19.6334 9.12562 17.845 10.8998 16.0565 12.6739C16.6527 13.2653 17.0501 13.6596 17.6463 14.2509C19.4347 12.4768 21.2232 10.7026 23.0116 8.92849C22.6142 8.33711 22.0181 7.94285 21.4219 7.35147ZM23.6078 8.33711C24.0052 7.94285 24.2039 7.74573 24.0052 7.15434C24.0052 6.76009 23.6078 6.36583 23.2104 6.16871C22.6142 5.97158 22.2168 6.16871 22.0181 6.56296C22.6142 7.35147 23.0116 7.74573 23.6078 8.33711ZM17.0501 14.8423C16.6527 14.2509 16.0565 13.8567 15.4604 13.2653C15.4604 13.8567 15.2617 14.4481 15.0629 15.2366C15.8578 15.0394 16.454 14.8423 17.0501 14.8423Z" fill="#747474"/>
<path d="M14.4671 8.36977C14.9807 8.36977 15.6001 7.95339 15.6001 7.43977C15.6001 6.92615 14.9807 6.50977 14.4671 6.50977V8.36977ZM25.1106 16.4403C25.1106 15.9267 24.6942 15.6267 24.1806 15.6267C23.667 15.6267 23.2506 15.9267 23.2506 16.4403H25.1106ZM14.4671 6.50977H11.7806V8.36977H14.4671V6.50977ZM11.7806 6.50977C8.52766 6.50977 5.89062 9.14681 5.89062 12.3998H7.75062C7.75062 10.1741 9.5549 8.36977 11.7806 8.36977V6.50977ZM5.89062 12.3998V19.8398H7.75062V12.3998H5.89062ZM5.89062 19.8398C5.89062 23.0928 8.52766 25.7298 11.7806 25.7298V23.8698C9.5549 23.8698 7.75062 22.0654 7.75062 19.8398H5.89062ZM11.7806 25.7298H19.2206V23.8698H11.7806V25.7298ZM19.2206 25.7298C22.4736 25.7298 25.1106 23.0928 25.1106 19.8398H23.2506C23.2506 22.0654 21.4463 23.8698 19.2206 23.8698V25.7298ZM25.1106 19.8398V16.4403H23.2506V19.8398H25.1106Z" fill="#747474"/>
</svg>
