<svg width="18" height="18" viewBox="0 0 18 18" fill="none" xmlns="http://www.w3.org/2000/svg">
<path d="M6.48814 13.814C6.40442 13.814 6.32907 13.7972 6.24535 13.7638C6.01093 13.6717 5.86023 13.4372 5.86023 13.1861V8.16282C5.86023 7.81956 6.14488 7.53491 6.48814 7.53491C6.83139 7.53491 7.11604 7.81956 7.11604 8.16282V11.6707L7.71883 11.0679C7.96163 10.8251 8.36349 10.8251 8.60628 11.0679C8.84907 11.3107 8.84907 11.7126 8.60628 11.9554L6.93186 13.6298C6.81465 13.747 6.64721 13.814 6.48814 13.814Z" fill="#7B7B7B"/>
<path d="M6.48773 13.8139C6.32866 13.8139 6.16959 13.7553 6.04401 13.6297L4.36959 11.9553C4.1268 11.7125 4.1268 11.3106 4.36959 11.0678C4.61238 10.825 5.01424 10.825 5.25703 11.0678L6.93145 12.7423C7.17424 12.985 7.17424 13.3869 6.93145 13.6297C6.80587 13.7553 6.6468 13.8139 6.48773 13.8139Z" fill="#7B7B7B"/>
<path d="M11.5116 18H6.48837C1.94233 18 0 16.0577 0 11.5116V6.48837C0 1.94233 1.94233 0 6.48837 0H10.6744C11.0177 0 11.3023 0.284651 11.3023 0.627907C11.3023 0.971163 11.0177 1.25581 10.6744 1.25581H6.48837C2.62884 1.25581 1.25581 2.62884 1.25581 6.48837V11.5116C1.25581 15.3712 2.62884 16.7442 6.48837 16.7442H11.5116C15.3712 16.7442 16.7442 15.3712 16.7442 11.5116V7.32558C16.7442 6.98233 17.0288 6.69767 17.3721 6.69767C17.7153 6.69767 18 6.98233 18 7.32558V11.5116C18 16.0577 16.0577 18 11.5116 18Z" fill="#7B7B7B"/>
<path d="M17.3723 7.95348H14.0235C11.1602 7.95348 10.0468 6.83999 10.0468 3.97673V0.627892C10.0468 0.376729 10.1975 0.14231 10.4319 0.0502174C10.6663 -0.0502477 10.9342 0.00835694 11.1184 0.184171L17.8161 6.88185C17.9919 7.05766 18.0505 7.33395 17.95 7.56837C17.8495 7.80278 17.6235 7.95348 17.3723 7.95348ZM11.3026 2.14324V3.97673C11.3026 6.13673 11.8635 6.69766 14.0235 6.69766H15.857L11.3026 2.14324Z" fill="#7B7B7B"/>
</svg>
