<svg width="16" height="16" viewBox="0 0 16 16" fill="none" xmlns="http://www.w3.org/2000/svg">
<path d="M14.667 4.33386H10.667" stroke="#FEFEFE" stroke-miterlimit="10" stroke-linecap="round" stroke-linejoin="round"/>
<path d="M3.99967 4.33386H1.33301" stroke="#FEFEFE" stroke-miterlimit="10" stroke-linecap="round" stroke-linejoin="round"/>
<path d="M6.66634 6.66667C7.95501 6.66667 8.99968 5.622 8.99968 4.33333C8.99968 3.04467 7.95501 2 6.66634 2C5.37768 2 4.33301 3.04467 4.33301 4.33333C4.33301 5.622 5.37768 6.66667 6.66634 6.66667Z" stroke="#FEFEFE" stroke-miterlimit="10" stroke-linecap="round" stroke-linejoin="round"/>
<path d="M14.6667 11.6661H12" stroke="#FEFEFE" stroke-miterlimit="10" stroke-linecap="round" stroke-linejoin="round"/>
<path d="M5.33301 11.6661H1.33301" stroke="#FEFEFE" stroke-miterlimit="10" stroke-linecap="round" stroke-linejoin="round"/>
<path d="M9.33333 14.0005C10.622 14.0005 11.6667 12.9559 11.6667 11.6672C11.6667 10.3785 10.622 9.33386 9.33333 9.33386C8.04467 9.33386 7 10.3785 7 11.6672C7 12.9559 8.04467 14.0005 9.33333 14.0005Z" stroke="#FEFEFE" stroke-miterlimit="10" stroke-linecap="round" stroke-linejoin="round"/>
</svg>
