<svg width="20" height="22" viewBox="0 0 20 22" fill="none" xmlns="http://www.w3.org/2000/svg">
<path d="M1.37499 0H13.0576L19.25 6.16827V20.625C19.25 21.3847 18.634 22 17.875 22H1.37499C0.615966 22 0 21.3847 0 20.625V1.37499C0 0.615326 0.616037 0 1.37499 0Z" fill="#E2574C"/>
<path d="M14.0923 10.4246C14.3227 10.4246 14.4354 10.2239 14.4354 10.0293C14.4354 9.82786 14.3178 9.6333 14.0923 9.6333H12.7806C12.5241 9.6333 12.3812 9.84571 12.3812 10.0802V13.3038C12.3812 13.5912 12.5448 13.7507 12.7661 13.7507C12.9862 13.7507 13.1505 13.5912 13.1505 13.3038V12.4191H13.9439C14.19 12.4191 14.3131 12.2176 14.3131 12.0176C14.3131 11.8217 14.19 11.627 13.9439 11.627H13.1505V10.4246H14.0923ZM9.65864 9.6333H8.69888C8.43831 9.6333 8.25335 9.81207 8.25335 10.0774V13.3066C8.25335 13.6359 8.5194 13.7391 8.70983 13.7391H9.71705C10.9091 13.7391 11.6963 12.9546 11.6963 11.7439C11.6957 10.4638 10.9546 9.6333 9.65864 9.6333ZM9.70474 12.943H9.11965V10.4295H9.64698C10.4452 10.4295 10.7923 10.965 10.7923 11.7041C10.7923 12.3957 10.4513 12.943 9.70474 12.943ZM6.18885 9.6333H5.23804C4.96922 9.6333 4.81934 9.81064 4.81934 10.0802V13.3038C4.81934 13.5912 4.9912 13.7507 5.22218 13.7507C5.45316 13.7507 5.62502 13.5912 5.62502 13.3038V12.3626H6.22107C6.95669 12.3626 7.56376 11.8415 7.56376 11.0035C7.56383 10.1833 6.9781 9.6333 6.18885 9.6333ZM6.17305 11.6065H5.62509V10.3903H6.17305C6.5113 10.3903 6.72649 10.6542 6.72649 10.9987C6.72578 11.3425 6.5113 11.6065 6.17305 11.6065Z" fill="white"/>
</svg>
