<svg width="64" height="64" viewBox="0 0 64 64" fill="none" xmlns="http://www.w3.org/2000/svg">
<rect width="64" height="64" rx="32" fill="#FBBA89" fill-opacity="0.2"/>
<path d="M45.8371 29.4757L44.4079 35.5716C43.1829 40.8361 40.7621 42.9653 36.2121 42.5278C35.4829 42.4695 34.6954 42.3382 33.8496 42.1341L31.3996 41.5507C25.3184 40.107 23.4371 37.1028 24.8663 31.007L26.2954 24.8966C26.5871 23.657 26.9371 22.5778 27.3746 21.6882C29.0809 18.1591 31.9829 17.2111 36.8538 18.3632L39.2892 18.932C45.3996 20.3611 47.2663 23.3799 45.8371 29.4757Z" stroke="white" stroke-width="2.2" stroke-linecap="round" stroke-linejoin="round"/>
<path d="M36.2108 42.5265C35.3066 43.139 34.1691 43.6494 32.7837 44.1015L30.4795 44.8598C24.69 46.7265 21.6421 45.1661 19.7608 39.3765L17.8941 33.6161C16.0275 27.8265 17.5733 24.764 23.3629 22.8973L25.667 22.139C26.265 21.9494 26.8337 21.789 27.3733 21.6869C26.9358 22.5765 26.5858 23.6556 26.2941 24.8952L24.865 31.0056C23.4358 37.1015 25.3171 40.1056 31.3983 41.5494L33.8483 42.1327C34.6941 42.3369 35.4816 42.4681 36.2108 42.5265Z" stroke="white" stroke-width="2.2" stroke-linecap="round" stroke-linejoin="round"/>
<path d="M32.6836 24L39.7565 25.7938" stroke="white" stroke-linecap="round" stroke-linejoin="round"/>
<path d="M32.2207 32.3351L37.7187 29.3351" stroke="white" stroke-width="1.5" stroke-linecap="round" stroke-linejoin="round"/>
<path d="M36.7187 33.3351L33.2187 28.335" stroke="white" stroke-width="1.5" stroke-linecap="round" stroke-linejoin="round"/>
</svg>
