<svg width="19" height="21" viewBox="0 0 19 21" fill="none" xmlns="http://www.w3.org/2000/svg">
<path fill-rule="evenodd" clip-rule="evenodd" d="M4.8025 0.90587C5.41639 0.251053 6.33366 0 7.47201 0H10.7776C11.9159 0 12.8332 0.251053 13.4471 0.90587C14.0529 1.55211 14.2359 2.45858 14.2359 3.45833V5.34722C14.2359 5.6924 13.9561 5.97222 13.6109 5.97222H4.63867C4.29349 5.97222 4.01367 5.6924 4.01367 5.34722V3.45833C4.01367 2.45858 4.19666 1.55211 4.8025 0.90587ZM5.71442 1.7608C5.43485 2.05901 5.26367 2.56919 5.26367 3.45833V4.72222H12.9859V3.45833C12.9859 2.56919 12.8147 2.05901 12.5351 1.7608C12.2636 1.47117 11.7642 1.25 10.7776 1.25H7.47201C6.48535 1.25 5.98595 1.47117 5.71442 1.7608Z" fill="#7B7B7B"/>
<path fill-rule="evenodd" clip-rule="evenodd" d="M4.72266 12.9028C4.72266 12.5577 5.00248 12.2778 5.34766 12.2778H12.9032C13.2484 12.2778 13.5282 12.5577 13.5282 12.9028V16.6806C13.5282 17.7214 13.2676 18.6168 12.6368 19.2476C12.006 19.8783 11.1107 20.1389 10.0699 20.1389H8.18099C7.1402 20.1389 6.24482 19.8783 5.61405 19.2476C4.98328 18.6168 4.72266 17.7214 4.72266 16.6806V12.9028ZM5.97266 13.5278V16.6806C5.97266 17.5287 6.18426 18.05 6.49793 18.3637C6.8116 18.6773 7.33289 18.8889 8.18099 18.8889H10.0699C10.918 18.8889 11.4393 18.6773 11.7529 18.3637C12.0666 18.05 12.2782 17.5287 12.2782 16.6806V13.5278H5.97266Z" fill="#7B7B7B"/>
<path fill-rule="evenodd" clip-rule="evenodd" d="M1.77528 6.49744C1.4616 6.81112 1.25 7.3324 1.25 8.1805V12.9027C1.25 13.7508 1.4616 14.2721 1.77528 14.5858C2.08895 14.8995 2.61023 15.1111 3.45833 15.1111H4.72222V12.9027C4.72222 12.5575 5.00204 12.2777 5.34722 12.2777H12.9028C13.248 12.2777 13.5278 12.5575 13.5278 12.9027V15.1111H14.7917C15.6398 15.1111 16.1611 14.8995 16.4747 14.5858C16.7884 14.2721 17 13.7508 17 12.9027V8.1805C17 7.3324 16.7884 6.81112 16.4747 6.49744C16.1611 6.18377 15.6398 5.97217 14.7917 5.97217H3.45833C2.61023 5.97217 2.08895 6.18377 1.77528 6.49744ZM0.891392 5.61356C1.52216 4.98279 2.41755 4.72217 3.45833 4.72217H14.7917C15.8325 4.72217 16.7278 4.98279 17.3586 5.61356C17.9894 6.24433 18.25 7.13972 18.25 8.1805V12.9027C18.25 13.9435 17.9894 14.8389 17.3586 15.4697C16.7278 16.1004 15.8325 16.3611 14.7917 16.3611H12.9028C12.5576 16.3611 12.2778 16.0812 12.2778 15.7361V13.5277H5.97222V15.7361C5.97222 16.0812 5.6924 16.3611 5.34722 16.3611H3.45833C2.41755 16.3611 1.52216 16.1004 0.891392 15.4697C0.26062 14.8389 0 13.9435 0 12.9027V8.1805C0 7.13972 0.26062 6.24433 0.891392 5.61356Z" fill="#7B7B7B"/>
<path fill-rule="evenodd" clip-rule="evenodd" d="M3.77734 12.9028C3.77734 12.5577 4.05717 12.2778 4.40234 12.2778H13.8468C14.192 12.2778 14.4718 12.5577 14.4718 12.9028C14.4718 13.248 14.192 13.5278 13.8468 13.5278H4.40234C4.05717 13.5278 3.77734 13.248 3.77734 12.9028Z" fill="#7B7B7B"/>
<path fill-rule="evenodd" clip-rule="evenodd" d="M3.77734 9.125C3.77734 8.77982 4.05717 8.5 4.40234 8.5H7.23568C7.58085 8.5 7.86068 8.77982 7.86068 9.125C7.86068 9.47018 7.58085 9.75 7.23568 9.75H4.40234C4.05717 9.75 3.77734 9.47018 3.77734 9.125Z" fill="#7B7B7B"/>
</svg>
