<svg width="28" height="28" viewBox="0 0 28 28" fill="none" xmlns="http://www.w3.org/2000/svg">
<path d="M14 2.33331C7.57167 2.33331 2.33334 7.57165 2.33334 14C2.33334 20.4283 7.57167 25.6666 14 25.6666C20.4283 25.6666 25.6667 20.4283 25.6667 14C25.6667 7.57165 20.4283 2.33331 14 2.33331ZM19.5767 11.3166L12.9617 17.9316C12.7983 18.095 12.5767 18.1883 12.3433 18.1883C12.11 18.1883 11.8883 18.095 11.725 17.9316L8.42334 14.63C8.085 14.2916 8.085 13.7316 8.42334 13.3933C8.76167 13.055 9.32167 13.055 9.66 13.3933L12.3433 16.0766L18.34 10.08C18.6783 9.74165 19.2383 9.74165 19.5767 10.08C19.915 10.4183 19.915 10.9666 19.5767 11.3166Z" fill="#007BFF"/>
</svg>
