<svg width="20" height="20" viewBox="0 0 20 20" fill="none" xmlns="http://www.w3.org/2000/svg">
<path d="M13.9423 15.3134C12.223 16.682 10.0446 17.3397 7.85516 17.1514C5.66573 16.9631 3.63173 15.9429 2.17142 14.3008C0.711109 12.6587 -0.0644813 10.5194 0.00420136 8.32299C0.072884 6.12655 0.98062 4.03992 2.54068 2.49224C4.10073 0.94457 6.19453 0.053512 8.39145 0.00233279C10.5884 -0.0488464 12.7214 0.743742 14.3518 2.21709C15.9822 3.69044 16.9861 5.73254 17.157 7.9234C17.3279 10.1143 16.6528 12.2873 15.2705 13.9957L18.5174 17.1582C18.6443 17.2741 18.7607 17.4011 18.8652 17.5377C19.0007 17.7149 19.0679 17.9349 19.0543 18.1576C19.0408 18.3802 18.9474 18.5905 18.7914 18.75C18.6356 18.922 18.4198 19.0277 18.1884 19.0454C17.957 19.063 17.7276 18.9913 17.5475 18.8449C17.168 18.5286 16.8307 18.1702 16.4933 17.7907L13.9423 15.3134ZM1.82983 8.44017C1.7969 9.7677 2.1583 11.0752 2.86837 12.1973C3.57844 13.3195 4.60528 14.2059 5.81907 14.7445C7.03286 15.2832 8.37911 15.4498 9.68761 15.2234C10.9961 14.9971 12.2081 14.3878 13.1704 13.4727C14.1327 12.5576 14.802 11.3777 15.0938 10.0822C15.3856 8.78671 15.2867 7.43379 14.8097 6.19449C14.3327 4.95519 13.4989 3.88514 12.4138 3.11963C11.3287 2.35412 10.0411 1.92752 8.71354 1.89375C6.93479 1.85684 5.21351 2.52402 3.92428 3.75008C2.63504 4.97613 1.88226 6.6618 1.82983 8.44017Z" fill="#414141"/>
</svg>
