<svg width="30" height="30" viewBox="0 0 30 30" fill="none" xmlns="http://www.w3.org/2000/svg">
<path d="M24 7.48476C24 7.8663 23.8077 8.24783 23.4231 8.62937C21.5 10.7278 19.3846 12.6355 17.2692 14.734C16.8846 15.1155 16.3077 15.3063 15.7308 15.3063C15.3462 15.3063 14.7692 15.4971 14.3846 15.4971C14.1923 15.4971 14 15.4971 14 15.1155C14 14.3525 14.1923 13.5894 14.3846 13.0171C14.3846 12.8263 14.5769 12.4448 14.7692 12.254C16.8846 10.1555 18.8077 8.24783 20.9231 6.14937C21.5 5.57707 22.0769 5.3863 22.8462 5.76783C23.6154 5.9586 24 6.72168 24 7.48476ZM20.7308 7.29399C19 9.01091 17.2692 10.7278 15.5385 12.4448C16.1154 13.0171 16.5 13.3986 17.0769 13.9709C18.8077 12.254 20.5385 10.5371 22.2692 8.82014C21.8846 8.24783 21.3077 7.8663 20.7308 7.29399ZM22.8462 8.24783C23.2308 7.8663 23.4231 7.67553 23.2308 7.10322C23.2308 6.72168 22.8462 6.34014 22.4615 6.14937C21.8846 5.9586 21.5 6.14937 21.3077 6.53091C21.8846 7.29399 22.2692 7.67553 22.8462 8.24783ZM16.5 14.5432C16.1154 13.9709 15.5385 13.5894 14.9615 13.0171C14.9615 13.5894 14.7692 14.1617 14.5769 14.9248C15.3462 14.734 15.9231 14.5432 16.5 14.5432Z" fill="white"/>
<path d="M14.001 8.09981C14.498 8.09981 15.0975 7.69686 15.0975 7.1998C15.0975 6.70275 14.498 6.2998 14.001 6.2998V8.09981ZM24.3012 15.91C24.3012 15.413 23.8982 15.1226 23.4012 15.1226C22.9041 15.1226 22.5012 15.413 22.5012 15.91H24.3012ZM14.001 6.2998H11.4012V8.09981H14.001V6.2998ZM11.4012 6.2998C8.25315 6.2998 5.70117 8.85179 5.70117 11.9998H7.50117C7.50117 9.84589 9.24726 8.09981 11.4012 8.09981V6.2998ZM5.70117 11.9998V19.1998H7.50117V11.9998H5.70117ZM5.70117 19.1998C5.70117 22.3479 8.25315 24.8998 11.4012 24.8998V23.0998C9.24726 23.0998 7.50117 21.3537 7.50117 19.1998H5.70117ZM11.4012 24.8998H18.6012V23.0998H11.4012V24.8998ZM18.6012 24.8998C21.7493 24.8998 24.3012 22.3479 24.3012 19.1998H22.5012C22.5012 21.3537 20.7551 23.0998 18.6012 23.0998V24.8998ZM24.3012 19.1998V15.91H22.5012V19.1998H24.3012Z" fill="white"/>
</svg>
