<svg width="15" height="15" viewBox="0 0 15 15" fill="none" xmlns="http://www.w3.org/2000/svg">
<circle cx="7.09961" cy="7.09998" r="6.8" fill="#B7C43D" stroke="white" stroke-width="0.6"/>
<path d="M6.55107 4.11294C6.7631 3.64052 7.43382 3.64052 7.64586 4.11294L8.12445 5.17929C8.2117 5.37369 8.3955 5.50723 8.60735 5.53014L9.7694 5.65579C10.2842 5.71146 10.4915 6.34935 10.1077 6.697L9.24144 7.48169C9.08352 7.62474 9.01332 7.84081 9.05699 8.04936L9.29659 9.19337C9.40273 9.7002 8.86011 10.0944 8.41088 9.83687L7.3969 9.25549C7.21206 9.1495 6.98487 9.1495 6.80002 9.25549L5.78604 9.83687C5.33682 10.0944 4.79419 9.7002 4.90034 9.19337L5.13993 8.04936C5.1836 7.84081 5.1134 7.62474 4.95548 7.48169L4.08921 6.69699C3.70543 6.34935 3.9127 5.71146 4.42752 5.65579L5.58958 5.53014C5.80142 5.50723 5.98522 5.37369 6.07247 5.17929L6.55107 4.11294Z" fill="white"/>
</svg>
