<svg width="109" height="109" viewBox="0 0 109 109" fill="none" xmlns="http://www.w3.org/2000/svg">
<g clip-path="url(#clip0_1449_15985)">
<path d="M47.6722 108.566C17.8137 104.795 -3.33464 77.5321 0.434993 47.6722C4.2061 17.8137 31.4687 -3.33464 61.3286 0.434993C91.1885 4.2061 112.337 31.4687 108.566 61.3286C104.795 91.1885 77.5321 112.337 47.6722 108.566Z" fill="url(#paint0_radial_1449_15985)"/>
<path d="M47.6722 108.566C17.8137 104.795 -3.33464 77.5321 0.434993 47.6722C4.2061 17.8137 31.4687 -3.33464 61.3286 0.434993C91.1885 4.2061 112.337 31.4687 108.566 61.3286C104.795 91.1885 77.5321 112.337 47.6722 108.566Z" fill="url(#paint1_radial_1449_15985)"/>
<path opacity="0.18" d="M14.9768 42.1651C14.1696 44.041 13.0609 45.6819 11.318 45.4809C10.0082 45.3301 9.16266 43.9908 8.84335 42.7121C8.07021 39.6239 9.2144 36.3835 10.6823 33.56C13.7276 27.706 18.2098 22.1373 23.6809 18.3972C24.5487 17.8044 25.5036 17.2737 26.5503 17.1806C27.5969 17.0874 28.75 17.5324 29.223 18.4711C30.6333 21.274 24.6862 26.1597 23.0556 28.0268C20.4671 30.9878 18.2881 34.305 16.5866 37.8515C16.1328 38.7976 15.6642 40.5671 14.9768 42.1666V42.1651Z" fill="white"/>
<path d="M48.9402 76.9774C47.1012 76.9434 45.3494 76.1806 44.0722 74.856L26.2115 56.3272C23.5521 53.5687 23.6334 49.1767 26.3919 46.5173C29.1518 43.8578 33.5424 43.9391 36.2018 46.6976L49.2491 60.2328L75.9914 34.4544C78.7498 31.795 83.1418 31.8763 85.8013 34.6348C88.4607 37.3933 88.3794 41.7853 85.6209 44.4447L53.8851 75.0379C52.5605 76.3151 50.7821 77.0128 48.9431 76.9788L48.9402 76.9774Z" fill="white"/>
</g>
<defs>
<radialGradient id="paint0_radial_1449_15985" cx="0" cy="0" r="1" gradientUnits="userSpaceOnUse" gradientTransform="translate(47.2589 51.5524) rotate(7.2) scale(70.6828)">
<stop stop-color="#75D982"/>
<stop offset="0.13" stop-color="#70D179"/>
<stop offset="0.47" stop-color="#67BF67"/>
<stop offset="0.74" stop-color="#51AA59"/>
<stop offset="0.84" stop-color="#48A153"/>
<stop offset="0.93" stop-color="#49A254"/>
<stop offset="0.96" stop-color="#50A958"/>
<stop offset="0.99" stop-color="#5CB460"/>
<stop offset="1" stop-color="#67BF67"/>
</radialGradient>
<radialGradient id="paint1_radial_1449_15985" cx="0" cy="0" r="1" gradientUnits="userSpaceOnUse" gradientTransform="translate(47.2589 51.5524) rotate(7.2) scale(70.6828)">
<stop stop-color="#67BF67"/>
<stop offset="1" stop-color="#67BF67"/>
</radialGradient>
<clipPath id="clip0_1449_15985">
<rect width="109" height="109" fill="white"/>
</clipPath>
</defs>
</svg>
