<svg width="16" height="16" viewBox="0 0 16 16" fill="none" xmlns="http://www.w3.org/2000/svg">
<path d="M16 8.01663C16 12.4407 12.4 16 7.93333 16C3.56667 15.9667 0 12.3742 0 7.9501C0 3.55925 3.6 0 8.03333 0C12.4333 0 16 3.59252 16 8.01663ZM14.8333 7.98337C14.8333 4.22453 11.7667 1.16424 8 1.13098C4.2 1.13098 1.13333 4.158 1.13333 7.91684C1.13333 11.7089 4.16667 14.7692 7.93333 14.8025C11.7667 14.8358 14.8333 11.7755 14.8333 7.98337Z" fill="#338CFF"/>
<path d="M7.43333 12.8399C6.6 12.8399 6.03333 12.2079 6.2 11.343C6.33333 10.6112 6.56667 9.87942 6.73333 9.11435C6.86667 8.58212 7 8.0499 7.13333 7.51767C7.23333 7.15177 7.13333 7.05198 6.73333 7.05198C6.53333 7.05198 6.23333 7.2183 6.2 6.88566C6.16667 6.55302 6.5 6.61954 6.7 6.58628C7.36667 6.48649 8.06667 6.41996 8.73333 6.35343C9.13333 6.32017 9.23333 6.41996 9.13333 6.81913C8.8 8.14969 8.43333 9.44699 8.1 10.7775C8.03333 10.9771 7.9 11.2765 8.16667 11.3763C8.36667 11.4428 8.63333 11.343 8.86667 11.2765C9 11.21 9.06667 11.0437 9.2 10.9439C9.26667 10.8773 9.43333 10.8441 9.5 10.8773C9.56667 10.9439 9.63333 11.1102 9.6 11.1767C9.36667 12.0748 8.3 12.8399 7.43333 12.8399Z" fill="#338CFF"/>
<path d="M8.66667 5.38877C8.03333 5.38877 7.53333 4.88981 7.53333 4.2578C7.53333 3.62578 8.03333 3.12682 8.66667 3.12682C9.3 3.12682 9.8 3.62578 9.8 4.2578C9.8 4.88981 9.3 5.38877 8.66667 5.38877Z" fill="#338CFF"/>
</svg>
