<svg width="64" height="64" viewBox="0 0 64 64" fill="none" xmlns="http://www.w3.org/2000/svg">
<rect width="64" height="64" rx="32" fill="#54698C" fill-opacity="0.26"/>
<path d="M46.5871 30.2257L45.1579 36.3216C43.9329 41.5861 41.5121 43.7153 36.9621 43.2778C36.2329 43.2195 35.4454 43.0882 34.5996 42.8841L32.1496 42.3007C26.0684 40.857 24.1871 37.8528 25.6163 31.757L27.0454 25.6466C27.3371 24.407 27.6871 23.3278 28.1246 22.4382C29.8309 18.9091 32.7329 17.9611 37.6038 19.1132L40.0392 19.682C46.1496 21.1111 48.0163 24.1299 46.5871 30.2257Z" stroke="white" stroke-width="2.2" stroke-linecap="round" stroke-linejoin="round"/>
<path d="M36.9608 43.2765C36.0566 43.889 34.9191 44.3994 33.5337 44.8515L31.2295 45.6098C25.44 47.4765 22.3921 45.9161 20.5108 40.1265L18.6441 34.3661C16.7775 28.5765 18.3233 25.514 24.1129 23.6473L26.417 22.889C27.015 22.6994 27.5837 22.539 28.1233 22.4369C27.6858 23.3265 27.3358 24.4056 27.0441 25.6452L25.615 31.7556C24.1858 37.8515 26.0671 40.8556 32.1483 42.2994L34.5983 42.8827C35.4441 43.0869 36.2316 43.2181 36.9608 43.2765Z" stroke="white" stroke-width="2.2" stroke-linecap="round" stroke-linejoin="round"/>
<path d="M33.4336 27.4386L40.5065 29.2323" stroke="white" stroke-width="1.5" stroke-linecap="round" stroke-linejoin="round"/>
<path d="M32.0039 33.0839L36.2331 34.163" stroke="white" stroke-width="2.2" stroke-linecap="round" stroke-linejoin="round"/>
</svg>
