<svg width="64" height="64" viewBox="0 0 64 64" fill="none" xmlns="http://www.w3.org/2000/svg">
<rect width="64" height="64" rx="32" fill="#84EAE2" fill-opacity="0.29"/>
<path d="M28.4492 30.5875C28.3242 30.575 28.1742 30.575 28.0367 30.5875C25.0617 30.4875 22.6992 28.05 22.6992 25.05C22.6992 21.9875 25.1742 19.5 28.2492 19.5C31.3117 19.5 33.7992 21.9875 33.7992 25.05C33.7867 28.05 31.4242 30.4875 28.4492 30.5875Z" stroke="white" stroke-width="2.2" stroke-linecap="round" stroke-linejoin="round"/>
<path d="M37.5141 22C39.9391 22 41.8891 23.9625 41.8891 26.375C41.8891 28.7375 40.0141 30.6625 37.6766 30.75C37.5766 30.7375 37.4641 30.7375 37.3516 30.75" stroke="white" stroke-width="2.2" stroke-linecap="round" stroke-linejoin="round"/>
<path d="M22.1984 35.2C19.1734 37.225 19.1734 40.525 22.1984 42.5375C25.6359 44.8375 31.2734 44.8375 34.7109 42.5375C37.7359 40.5125 37.7359 37.2125 34.7109 35.2C31.2859 32.9125 25.6484 32.9125 22.1984 35.2Z" stroke="white" stroke-width="2.2" stroke-linecap="round" stroke-linejoin="round"/>
<path d="M39.9258 42C40.8258 41.8125 41.6758 41.45 42.3758 40.9125C44.3258 39.45 44.3258 37.0375 42.3758 35.575C41.6883 35.05 40.8508 34.7 39.9633 34.5" stroke="white" stroke-width="2.2" stroke-linecap="round" stroke-linejoin="round"/>
</svg>
