<svg width="21" height="19" viewBox="0 0 21 19" fill="none" xmlns="http://www.w3.org/2000/svg">
<path d="M10.3079 18.5101C7.86895 18.5101 5.47606 18.5101 3.03714 18.5101C2.62298 18.5101 2.25485 18.5101 1.88671 18.372C0.874328 18.0499 0.276104 17.3137 0.0920346 16.3014C0 15.9793 0 15.6572 0 15.3351C0 13.3105 0 11.2858 0 9.26122C0 8.80107 0.0460173 8.29492 0.184069 7.88079C0.50619 6.82246 1.47255 6.13224 2.57697 6.08623C3.4513 6.04022 4.32562 6.08623 5.19995 6.08623C5.29199 6.08623 5.38402 6.08623 5.47606 6.13224C5.75216 6.22427 5.89021 6.40833 5.89021 6.68442C5.84419 6.9605 5.70614 7.14456 5.43004 7.14456C5.0619 7.19057 4.73978 7.14456 4.37164 7.14456C3.81943 7.14456 3.26723 7.14456 2.71502 7.14456C1.88671 7.14456 1.3345 7.6047 1.15043 8.38694C1.10441 8.61702 1.0584 8.8931 1.0584 9.16919C1.0584 11.2398 1.0584 13.3105 1.0584 15.3351C1.0584 15.6112 1.10441 15.9333 1.15043 16.2094C1.3345 16.8996 1.88671 17.3137 2.57697 17.3597C2.76104 17.3597 2.94511 17.3597 3.12917 17.3597C7.91497 17.3597 12.7008 17.3597 17.4405 17.3597C17.5786 17.3597 17.7627 17.3597 17.9007 17.3597C18.729 17.3137 19.3273 16.7615 19.4193 15.8873C19.4193 15.7032 19.4653 15.5192 19.4653 15.3351C19.4653 13.2645 19.4653 11.1938 19.4653 9.07716C19.4653 8.8931 19.4653 8.70904 19.4193 8.52499C19.3273 7.65072 18.683 7.05253 17.8087 7.05253C17.0264 7.05253 16.2441 7.05253 15.5078 7.05253C15.3698 7.05253 15.1857 7.05253 15.0477 7.00652C14.8176 6.9605 14.6795 6.77644 14.6795 6.54637C14.6335 6.3163 14.7715 6.13224 15.0016 6.04022C15.0476 5.9942 15.0937 5.9942 15.1857 5.9942C16.2901 5.9942 17.4405 5.94819 18.545 6.08623C19.6494 6.22427 20.4777 7.2826 20.5697 8.43296C20.6157 8.75506 20.5697 9.07716 20.5697 9.39926C20.5697 11.4239 20.5697 13.4945 20.5697 15.5192C20.5697 16.3014 20.3857 16.9456 19.8795 17.5438C19.4653 18.0039 18.9591 18.326 18.3149 18.372C18.0388 18.4181 17.7167 18.4181 17.4405 18.4181C15.0477 18.5101 12.6548 18.5101 10.3079 18.5101Z" fill="white"/>
<path d="M10.6152 1.83515C10.6152 2.11124 10.6152 2.34131 10.6152 2.52537C10.6152 5.05615 10.6152 7.54092 10.6152 10.0717C10.6152 10.2558 10.6152 10.4398 10.6152 10.6239C10.5692 10.9 10.2931 11.084 10.063 11.084C9.78692 11.038 9.60285 10.9 9.55683 10.5779C9.55683 10.4398 9.55683 10.2558 9.55683 10.1177C9.55683 7.58694 9.55683 5.10217 9.55683 2.57138C9.55683 2.38732 9.55683 2.20327 9.55683 1.88117C9.32675 2.06522 9.18869 2.20327 9.05064 2.34131C8.59047 2.80145 8.08428 3.30761 7.62411 3.76775C7.348 4.04384 7.0719 4.04384 6.84181 3.85978C6.61173 3.62971 6.56571 3.30761 6.88783 3.03152C7.80817 2.06522 8.77454 1.14494 9.69488 0.224651C9.97099 -0.0514353 10.2471 -0.0974491 10.5232 0.224651C11.5356 1.19095 12.5019 2.20327 13.5143 3.21558C13.7904 3.49167 13.7904 3.76775 13.5603 3.99782C13.3302 4.22789 13.0541 4.22789 12.778 3.95181C12.2258 3.44565 11.7196 2.89348 11.1674 2.34131C10.9834 2.15725 10.8453 2.01921 10.6152 1.83515Z" fill="white"/>
</svg>
