<svg width="7" height="11" viewBox="0 0 7 11" fill="none" xmlns="http://www.w3.org/2000/svg">
<path d="M5.41183 5.5214L4.01213 4.24413L0.87367 1.33607C0.814939 1.2883 0.762429 1.23433 0.717188 1.17534C0.655223 1.10705 0.625019 1.01889 0.633163 0.930089C0.641307 0.841288 0.68714 0.759088 0.760659 0.701406C0.819759 0.637837 0.902336 0.596871 0.992331 0.586476C1.08233 0.576081 1.17329 0.596947 1.24751 0.645118C1.33241 0.69272 1.40868 0.752434 1.47354 0.821925C3.02973 2.25186 4.57722 3.68981 6.13341 5.12777C6.44639 5.41697 6.44639 5.58562 6.13341 5.87482C4.57722 7.31278 3.02973 8.75073 1.47354 10.1807C1.40868 10.2502 1.33241 10.3099 1.24751 10.3575C1.17266 10.4039 1.08217 10.4238 0.992702 10.4135C0.903236 10.4031 0.820828 10.3632 0.760659 10.3012C0.692848 10.2442 0.649399 10.1667 0.638231 10.0827C0.627062 9.99867 0.648911 9.91374 0.699797 9.84333C0.756328 9.77079 0.820387 9.70353 0.891061 9.6425L5.15102 5.70615C5.2335 5.63937 5.32062 5.57766 5.41183 5.5214Z" fill="#8C8C8C"/>
<path fill-rule="evenodd" clip-rule="evenodd" d="M6.35988 5.56594C6.39476 5.42874 6.31927 5.29951 6.13341 5.12777C5.61462 4.64839 5.09679 4.16901 4.57928 3.68993C3.54447 2.73194 2.51094 1.77515 1.47354 0.821925C1.40868 0.752434 1.33241 0.69272 1.24751 0.645118C1.17329 0.596947 1.08233 0.576081 0.992331 0.586476C0.902336 0.596871 0.819759 0.637837 0.760659 0.701406C0.68714 0.759088 0.641307 0.841288 0.633163 0.930089C0.625019 1.01889 0.655223 1.10705 0.717188 1.17534C0.762429 1.23433 0.814939 1.2883 0.87367 1.33607L4.01213 4.24413L5.41183 5.5214C5.32062 5.57766 5.2335 5.63937 5.15102 5.70615L0.891061 9.6425C0.820387 9.70353 0.756328 9.77079 0.699797 9.84333C0.648911 9.91374 0.627062 9.99867 0.638231 10.0827C0.649399 10.1667 0.692848 10.2442 0.760659 10.3012C0.820828 10.3632 0.903236 10.4031 0.992702 10.4135C1.08217 10.4238 1.17266 10.4039 1.24751 10.3575C1.33241 10.3099 1.40868 10.2502 1.47354 10.1807C2.51093 9.22744 3.54446 8.27065 4.57927 7.31267C5.09678 6.83359 5.61461 6.3542 6.13341 5.87482C6.21658 5.79796 6.27765 5.72962 6.31662 5.66527C6.33721 5.63127 6.35163 5.59838 6.35988 5.56594ZM1.93405 10.5809C2.96723 9.6315 3.99727 8.67793 5.02763 7.72407C5.54493 7.24518 6.06231 6.76622 6.5802 6.28767C6.74801 6.13261 7 5.86955 7 5.50129C7 5.13304 6.74801 4.86998 6.5802 4.71491C6.0623 4.23636 5.54492 3.75739 5.02761 3.2785C3.99726 2.32465 2.96722 1.37109 1.93406 0.421678C1.8342 0.31834 1.71877 0.228438 1.5911 0.154945C1.39191 0.0320924 1.15152 -0.0203188 0.91396 0.00712005C0.684698 0.0336006 0.473051 0.132751 0.314661 0.286888C0.135614 0.442173 0.024403 0.653559 0.00356381 0.880784C-0.0178581 1.11435 0.0578899 1.34633 0.214728 1.52973C0.28066 1.61326 0.355784 1.69053 0.439016 1.76017L3.56472 4.65641L4.48481 5.49605L0.451152 9.22328C0.353789 9.3083 0.265361 9.40166 0.187065 9.50212L0.180543 9.51049L0.174345 9.51906C0.0394214 9.70575 -0.0185353 9.93099 0.011086 10.1539C0.0394003 10.3669 0.14592 10.5641 0.312175 10.7129C0.47172 10.8671 0.684254 10.9662 0.914332 10.9928C1.14954 11.02 1.38749 10.9695 1.58623 10.8504C1.71583 10.7764 1.83293 10.6856 1.93405 10.5809Z" fill="#8C8C8C"/>
</svg>
