<svg width="13" height="8" viewBox="0 0 13 8" fill="none" xmlns="http://www.w3.org/2000/svg">
<path d="M6.49707 7.21728C6.24925 7.21713 6.04603 7.06113 5.86523 6.88037C4.11097 5.12608 2.35482 3.37979 0.609375 1.62451C0.513897 1.53975 0.431588 1.44125 0.364258 1.33252C0.363285 1.33107 0.362289 1.32909 0.361329 1.32764C0.360247 1.32587 0.358495 1.32452 0.357422 1.32275L0.358399 1.32275C0.272531 1.1903 0.235382 1.03228 0.254883 0.875487C0.274961 0.714871 0.352237 0.566438 0.472657 0.458495L0.47461 0.460448C0.582386 0.350387 0.722515 0.277147 0.875977 0.2583C1.0377 0.238547 1.20144 0.278175 1.33691 0.368651L1.34375 0.373534C1.44302 0.445026 1.53521 0.525768 1.61914 0.614745L6.42969 5.42529L6.43457 5.43115C6.45675 5.45646 6.4777 5.48327 6.49902 5.50928L7.85449 4.13623L7.85547 4.13428L11.4053 0.595215C11.4693 0.524189 11.5411 0.461077 11.6182 0.404785L11.6172 0.403809C11.6194 0.401984 11.6228 0.401697 11.625 0.399902C11.6279 0.397776 11.6298 0.394193 11.6328 0.39209L11.6338 0.393066C11.7653 0.28945 11.9303 0.238262 12.0977 0.252441C12.2588 0.266139 12.4065 0.340198 12.5176 0.456543L12.5186 0.455566C12.524 0.460219 12.528 0.466381 12.5332 0.471191C12.537 0.475419 12.5422 0.478576 12.5459 0.48291L12.5449 0.483887C12.6529 0.588397 12.7244 0.724643 12.7432 0.874512C12.7629 1.03215 12.7239 1.19071 12.6357 1.32275L12.6377 1.32275C12.5693 1.43548 12.4841 1.53714 12.3857 1.62451C10.6403 3.37982 8.88418 5.12605 7.12988 6.88037C6.94897 7.06126 6.74512 7.21728 6.49707 7.21728Z" fill="#1B1A3E" stroke="#1B1A3E" stroke-width="0.498812"/>
</svg>
