<svg width="12" height="14" viewBox="0 0 12 14" fill="none" xmlns="http://www.w3.org/2000/svg">
<path fill-rule="evenodd" clip-rule="evenodd" d="M5.64296 8.00239C4.57357 8.00239 3.70331 7.13284 3.70331 6.06345C3.70331 4.99405 4.57357 4.1238 5.64296 4.1238C6.71236 4.1238 7.58191 4.99405 7.58191 6.06345C7.58191 7.13284 6.71236 8.00239 5.64296 8.00239ZM9.62148 1.73555C8.53649 0.61655 7.12339 0 5.64296 0C4.16112 0 2.74802 0.61655 1.66232 1.73626C0.560327 2.87298 -0.0448833 4.40018 0.00259815 5.92667C0.136538 10.2524 5.23193 13.6208 5.44949 13.7618L5.64013 13.8858L5.83289 13.7639C6.04974 13.6265 11.1487 10.3396 11.2833 5.92596C11.3301 4.40018 10.7242 2.87227 9.62148 1.73555Z" fill="#0F2446"/>
</svg>
