<svg width="27" height="27" viewBox="0 0 27 27" fill="none" xmlns="http://www.w3.org/2000/svg">
<path fill-rule="evenodd" clip-rule="evenodd" d="M9.06435 7.70681C9.06426 7.70189 9.06422 7.69695 9.06422 7.69202V6.59316C9.06422 4.31733 10.9091 2.47241 13.185 2.47241C15.4608 2.47241 17.3057 4.31733 17.3057 6.59316V7.69202C17.3057 7.69697 17.3057 7.70189 17.3056 7.70681C18.7311 7.74669 19.5996 7.89413 20.2644 8.43922C21.1759 9.18642 21.4296 10.455 21.937 12.9922L22.5963 16.2888C23.3261 19.9374 23.691 21.7618 22.7018 22.9684C21.7126 24.175 19.8521 24.175 16.1312 24.175H10.2387C6.51773 24.175 4.65726 24.175 3.66809 22.9684C2.67892 21.7618 3.04379 19.9374 3.77353 16.2888L4.43285 12.9922C4.94029 10.455 5.194 9.18642 6.10543 8.43922C6.77035 7.89412 7.63869 7.74669 9.06435 7.70681ZM10.7125 6.59316C10.7125 5.22766 11.8195 4.12071 13.185 4.12071C14.5504 4.12071 15.6574 5.22766 15.6574 6.59316V7.69202C15.5963 7.69201 15.5344 7.69202 15.4719 7.69202H10.898C10.8354 7.69202 10.7736 7.69202 10.7125 7.69203V6.59316ZM16.4816 12.0875C17.0885 12.0875 17.5804 11.5955 17.5804 10.9886C17.5804 10.3817 17.0885 9.88975 16.4816 9.88975C15.8747 9.88975 15.3827 10.3817 15.3827 10.9886C15.3827 11.5955 15.8747 12.0875 16.4816 12.0875ZM10.9872 10.9886C10.9872 11.5955 10.4952 12.0875 9.88834 12.0875C9.28145 12.0875 8.78948 11.5955 8.78948 10.9886C8.78948 10.3817 9.28145 9.88975 9.88834 9.88975C10.4952 9.88975 10.9872 10.3817 10.9872 10.9886Z" fill="black"/>
</svg>
