<svg width="27" height="26" viewBox="0 0 27 26" fill="none" xmlns="http://www.w3.org/2000/svg">
<path d="M14.2802 17.5204C14.1541 17.6584 13.9758 17.7369 13.7889 17.7369C13.6019 17.7369 13.4237 17.6584 13.2975 17.5204L9.74669 13.6367C9.49857 13.3653 9.51743 12.9442 9.7888 12.6961C10.0602 12.448 10.4813 12.4668 10.7294 12.7382L13.1231 15.3563V5.53098C13.1231 5.16329 13.4212 4.8652 13.7889 4.8652C14.1566 4.8652 14.4546 5.16329 14.4546 5.53098V15.3563L16.8483 12.7382C17.0965 12.4668 17.5176 12.448 17.789 12.6961C18.0603 12.9442 18.0791 13.3653 17.831 13.6367L14.2802 17.5204Z" fill="white"/>
<path d="M6.46437 16.1834C6.46437 15.8157 6.1663 15.5176 5.79859 15.5176C5.4309 15.5176 5.13281 15.8157 5.13281 16.1834V16.2322C5.1328 17.4462 5.13278 18.4247 5.23625 19.1943C5.34368 19.9934 5.5735 20.6661 6.10782 21.2004C6.64215 21.7348 7.31492 21.9646 8.11395 22.072C8.88356 22.1754 9.8621 22.1754 11.0761 22.1754H16.4998C17.7138 22.1754 18.6923 22.1754 19.462 22.072C20.261 21.9646 20.9337 21.7348 21.4681 21.2004C22.0024 20.6661 22.2322 19.9934 22.3396 19.1943C22.4431 18.4247 22.4431 17.4462 22.4431 16.2322V16.1834C22.4431 15.8157 22.145 15.5176 21.7773 15.5176C21.4096 15.5176 21.1115 15.8157 21.1115 16.1834C21.1115 17.4576 21.1101 18.3463 21.02 19.0169C20.9324 19.6683 20.7722 20.0132 20.5265 20.2589C20.2808 20.5046 19.9359 20.6647 19.2845 20.7523C18.6139 20.8424 17.7253 20.8439 16.4511 20.8439H11.1248C9.8506 20.8439 8.9619 20.8424 8.29137 20.7523C7.64 20.6647 7.29506 20.5046 7.04938 20.2589C6.8037 20.0132 6.64351 19.6683 6.55594 19.0169C6.46578 18.3463 6.46437 17.4576 6.46437 16.1834Z" fill="white"/>
</svg>
