<svg width="109" height="109" viewBox="0 0 109 109" fill="none" xmlns="http://www.w3.org/2000/svg">
<path d="M0.000104811 54.5293C-0.0581525 24.4685 24.1769 0.116933 54.2959 0.000418365C84.5315 -0.116096 108.883 24.119 108.941 54.471C109.058 84.5901 84.7063 108.883 54.3542 109C24.4099 109.058 0.0583622 84.6483 0.000104811 54.5293ZM54.3542 65.0156C54.3542 65.1321 54.3542 65.1904 54.3542 65.3069C50.7423 65.3069 47.1886 65.1904 43.5766 65.3069C34.838 65.6564 28.0219 69.5597 23.3613 77.0749C20.9727 80.9199 21.264 83.7745 24.1186 87.2116C27.4393 91.1731 31.7504 93.853 36.5857 95.4842C47.8294 99.3292 59.2478 99.4457 70.608 96.0668C76.725 94.2608 82.143 91.0566 85.988 85.6387C87.6192 83.3667 87.7939 81.0946 86.3958 78.5896C82.4925 71.8317 76.8415 67.2876 69.1516 65.9477C64.3162 65.1321 59.3061 65.2486 54.3542 65.0156ZM54.529 21.5556C45.5574 21.5556 37.9256 29.0126 37.9839 37.9842C37.9839 46.548 44.5087 54.5293 54.6455 54.6458C63.6171 54.7041 71.1906 46.8976 71.1323 38.0425C71.0158 29.0708 63.4424 21.5556 54.529 21.5556Z" fill="#F6F6F6"/>
<path d="M54.3542 65.0156C59.3061 65.3069 64.3162 65.1321 69.1516 65.9477C76.8415 67.2294 82.4925 71.7735 86.3958 78.5896C87.8522 81.0946 87.6192 83.3667 85.988 85.6387C82.2012 91.0566 76.7833 94.2608 70.608 96.0668C59.2478 99.4457 47.8294 99.3292 36.5857 95.4842C31.7504 93.853 27.4976 91.1731 24.1186 87.2116C21.2058 83.7745 20.9727 80.9199 23.3613 77.0749C27.9636 69.5597 34.7797 65.7147 43.5766 65.3069C47.1886 65.1321 50.7423 65.3069 54.3542 65.3069C54.3542 65.1904 54.3542 65.0739 54.3542 65.0156Z" fill="#122544"/>
<path d="M54.529 21.5556C63.5006 21.5556 71.016 29.071 71.0742 38.0427C71.1325 46.8978 63.559 54.7043 54.5874 54.646C44.4506 54.5295 37.9258 46.6065 37.9258 37.9844C37.9258 29.0128 45.4991 21.5556 54.529 21.5556Z" fill="#122544"/>
</svg>
