<svg width="329" height="56" viewBox="0 0 329 56" fill="none" xmlns="http://www.w3.org/2000/svg">
<g clip-path="url(#clip0_1000_7871)">
<path d="M100.185 40.2797C92.723 40.2797 90.373 39.1253 90.373 34.1779V20.8613C90.373 15.9964 92.6818 14.7595 100.185 14.7595H120.964V21.2323H102.989C100.556 21.2323 100.103 21.6858 100.103 23.0051V32.0341C100.103 33.3122 100.68 33.7657 102.989 33.7657H111.606V30.5911H103.071V24.242H120.964V40.2385H100.185V40.2797Z" fill="white"/>
<path d="M134.115 40.2797C126.817 40.2797 124.385 39.249 124.385 34.1779V20.8613C124.385 15.749 126.9 14.7595 134.115 14.7595H147.06C154.358 14.7595 156.872 15.749 156.872 20.8613V34.1779C156.872 39.2902 154.358 40.2797 147.06 40.2797H134.115ZM147.143 23.0051C147.143 21.6446 146.524 21.2736 144.298 21.2736H136.959C134.857 21.2736 134.115 21.6034 134.115 23.0051V32.0753C134.115 33.3534 134.609 33.8069 136.959 33.8069H144.298C146.524 33.8069 147.143 33.3946 147.143 32.0753V23.0051Z" fill="white"/>
<path d="M181.197 40.2797V33.3122C181.197 32.1578 180.744 31.5806 178.806 31.5806H170.066V40.2797H160.336V14.7595H181.898C189.154 14.7595 190.721 16.285 190.721 20.8613V24.6955C190.721 26.9218 189.608 28.1586 188 28.6122C189.525 28.942 190.886 30.1788 190.886 32.2815V40.2797H181.197ZM181.197 22.7578C181.197 21.8095 180.909 21.2323 179.342 21.2323H170.025V25.7262H179.342C181.032 25.7262 181.197 25.149 181.197 23.9946V22.7578Z" fill="white"/>
<path d="M203.626 40.2797C196.329 40.2797 193.896 39.249 193.896 34.1779V20.8613C193.896 15.749 196.411 14.7595 203.626 14.7595H216.572C223.869 14.7595 226.384 15.749 226.384 20.8613V34.1779C226.384 39.2902 223.869 40.2797 216.572 40.2797H203.626ZM216.654 23.0051C216.654 21.6446 216.036 21.2736 213.81 21.2736H206.471C204.368 21.2736 203.626 21.6034 203.626 23.0051V32.0753C203.626 33.3534 204.121 33.8069 206.471 33.8069H213.81C216.036 33.8069 216.654 33.3946 216.654 32.0753V23.0051Z" fill="white"/>
<path d="M239.412 40.2797C231.95 40.2797 229.6 39.1253 229.6 34.1779V20.8613C229.6 15.9964 231.908 14.7595 239.412 14.7595H260.191V21.2323H242.215C239.783 21.2323 239.329 21.6858 239.329 23.0051V32.0341C239.329 33.3122 239.907 33.7657 242.215 33.7657H250.832V30.5911H242.298V24.242H260.191V40.2385H239.412V40.2797Z" fill="white"/>
<path d="M273.506 40.2797C266.167 40.2797 263.693 39.2078 263.693 34.1779V14.7595H273.464V32.0341C273.464 33.3946 274.042 33.7657 276.309 33.7657H283.318C285.585 33.7657 286.121 33.3946 286.121 32.0341V14.7595H295.81V34.1779C295.81 39.1665 293.419 40.2797 286.08 40.2797H273.506Z" fill="white"/>
<path d="M299.441 40.2797V14.7595H328.919V21.2323H309.254V24.4481H319.643V30.5499H309.254V33.8069H328.919V40.2797H299.441Z" fill="white"/>
<path d="M5.64825 55.493C4.9886 55.493 4.32895 55.3693 3.71053 55.1219C1.44298 54.2561 0 52.1123 0 49.5974V5.89561C0 2.6386 2.51491 0 5.64825 0H36.7754V7.29737H7.29737V45.3509L29.5193 20.4079L34.9614 25.2728L9.77105 53.5965C8.69912 54.8333 7.17368 55.493 5.64825 55.493Z" fill="#FF5408"/>
<path d="M37.2274 40.8569H29.93V25.1902H15.459V17.8928H37.2274V40.8569Z" fill="white"/>
<path d="M63.3286 54.6684L40.1172 22.1395H61.6382V7.29737H35.9531V0H62.504C66.0908 0 68.9768 3.05088 68.9768 6.84386V22.6342C68.9768 26.386 66.0496 29.4781 62.504 29.4781H54.3408L69.3066 50.4219L63.3286 54.6684Z" fill="#FF5408"/>
</g>
<defs>
<clipPath id="clip0_1000_7871">
<rect width="329" height="55.6579" fill="white"/>
</clipPath>
</defs>
</svg>
