<svg width="28" height="28" viewBox="0 0 28 28" fill="none" xmlns="http://www.w3.org/2000/svg">
<path d="M7.83992 11.5584C10.0049 11.5584 11.7599 9.80336 11.7599 7.63842C11.7599 5.47345 10.0049 3.71841 7.83992 3.71841C5.67496 3.71841 3.91992 5.47345 3.91992 7.63842C3.91992 9.80336 5.67496 11.5584 7.83992 11.5584Z" stroke="#0F2446" stroke-width="2" stroke-linecap="round" stroke-linejoin="round"/>
<path d="M20.16 11.5584C22.325 11.5584 24.08 9.80336 24.08 7.63842C24.08 5.47345 22.325 3.71841 20.16 3.71841C17.995 3.71841 16.24 5.47345 16.24 7.63842C16.24 9.80336 17.995 11.5584 20.16 11.5584Z" stroke="#0F2446" stroke-width="2" stroke-linecap="round" stroke-linejoin="round"/>
<path d="M7.83992 23.8784C10.0049 23.8784 11.7599 22.1234 11.7599 19.9584C11.7599 17.7934 10.0049 16.0384 7.83992 16.0384C5.67496 16.0384 3.91992 17.7934 3.91992 19.9584C3.91992 22.1234 5.67496 23.8784 7.83992 23.8784Z" stroke="#0F2446" stroke-width="2" stroke-linecap="round" stroke-linejoin="round"/>
<path d="M20.16 23.8784C22.325 23.8784 24.08 22.1234 24.08 19.9584C24.08 17.7934 22.325 16.0384 20.16 16.0384C17.995 16.0384 16.24 17.7934 16.24 19.9584C16.24 22.1234 17.995 23.8784 20.16 23.8784Z" stroke="#0F2446" stroke-width="2" stroke-linecap="round" stroke-linejoin="round"/>
</svg>
