<svg width="148" height="148" viewBox="0 0 148 148" fill="none" xmlns="http://www.w3.org/2000/svg">
<g clip-path="url(#clip0_4000_7226)">
<path d="M147.578 97.9614H20.3555V31.8057H147.578V97.9614ZM25.4444 92.8725H142.489V36.8946H25.4444V92.8725Z" fill="#556080"/>
<path d="M22.8995 13.9944H10.1773C8.77273 13.9944 7.63281 12.8571 7.63281 11.45C7.63281 10.0429 8.77273 8.90552 10.1773 8.90552H22.8995C24.3041 8.90552 25.444 10.0429 25.444 11.45C25.444 12.8571 24.3041 13.9944 22.8995 13.9944Z" fill="#556080"/>
<path d="M22.8999 36.8945C21.4954 36.8945 20.3555 35.7571 20.3555 34.35V11.45C20.3555 10.0429 21.4954 8.90552 22.8999 8.90552C24.3045 8.90552 25.4444 10.0429 25.4444 11.45V34.35C25.4444 35.7571 24.3045 36.8945 22.8999 36.8945Z" fill="#556080"/>
<path d="M22.8999 123.406C21.4954 123.406 20.3555 122.269 20.3555 120.861V95.4169C20.3555 94.0099 21.4954 92.8725 22.8999 92.8725C24.3045 92.8725 25.4444 94.0099 25.4444 95.4169V120.861C25.4444 122.269 24.3045 123.406 22.8999 123.406Z" fill="#556080"/>
<path d="M48.3438 143.761C53.9649 143.761 58.5216 139.205 58.5216 133.584C58.5216 127.963 53.9649 123.406 48.3438 123.406C42.7228 123.406 38.166 127.963 38.166 133.584C38.166 139.205 42.7228 143.761 48.3438 143.761Z" fill="#939393"/>
<path d="M109.412 143.761C115.033 143.761 119.59 139.205 119.59 133.584C119.59 127.963 115.033 123.406 109.412 123.406C103.791 123.406 99.2344 127.963 99.2344 133.584C99.2344 139.205 103.791 143.761 109.412 143.761Z" fill="#939393"/>
<path d="M132.311 123.406H22.8999C21.4954 123.406 20.3555 122.269 20.3555 120.861C20.3555 119.454 21.4954 118.317 22.8999 118.317H132.311C133.716 118.317 134.856 119.454 134.856 120.861C134.856 122.269 133.716 123.406 132.311 123.406Z" fill="#556080"/>
<path d="M145.034 57.2502H22.8999C21.4954 57.2502 20.3555 56.1128 20.3555 54.7058C20.3555 53.2987 21.4954 52.1613 22.8999 52.1613H145.034C146.438 52.1613 147.578 53.2987 147.578 54.7058C147.578 56.1128 146.438 57.2502 145.034 57.2502Z" fill="#556080"/>
<path d="M145.034 77.6057H22.8999C21.4954 77.6057 20.3555 76.4684 20.3555 75.0613C20.3555 73.6542 21.4954 72.5168 22.8999 72.5168H145.034C146.438 72.5168 147.578 73.6542 147.578 75.0613C147.578 76.4684 146.438 77.6057 145.034 77.6057Z" fill="#556080"/>
<path d="M43.2554 97.9614C41.8509 97.9614 40.7109 96.824 40.7109 95.417V34.3501C40.7109 32.943 41.8509 31.8057 43.2554 31.8057C44.6599 31.8057 45.7998 32.943 45.7998 34.3501V95.417C45.7998 96.824 44.6599 97.9614 43.2554 97.9614Z" fill="#556080"/>
<path d="M63.6109 97.9614C62.2063 97.9614 61.0664 96.824 61.0664 95.417V34.3501C61.0664 32.943 62.2063 31.8057 63.6109 31.8057C65.0154 31.8057 66.1553 32.943 66.1553 34.3501V95.417C66.1553 96.824 65.0154 97.9614 63.6109 97.9614Z" fill="#556080"/>
<path d="M83.9663 97.9614C82.5618 97.9614 81.4219 96.824 81.4219 95.417V34.3501C81.4219 32.943 82.5618 31.8057 83.9663 31.8057C85.3709 31.8057 86.5108 32.943 86.5108 34.3501V95.417C86.5108 96.824 85.3709 97.9614 83.9663 97.9614Z" fill="#556080"/>
<path d="M104.322 97.9614C102.917 97.9614 101.777 96.824 101.777 95.417V34.3501C101.777 32.943 102.917 31.8057 104.322 31.8057C105.726 31.8057 106.866 32.943 106.866 34.3501V95.417C106.866 96.824 105.726 97.9614 104.322 97.9614Z" fill="#556080"/>
<path d="M124.677 97.9614C123.273 97.9614 122.133 96.824 122.133 95.417V34.3501C122.133 32.943 123.273 31.8057 124.677 31.8057C126.082 31.8057 127.222 32.943 127.222 34.3501V95.417C127.222 96.824 126.082 97.9614 124.677 97.9614Z" fill="#556080"/>
<path d="M145.033 97.9614C143.628 97.9614 142.488 96.824 142.488 95.417V34.3501C142.488 32.943 143.628 31.8057 145.033 31.8057C146.437 31.8057 147.577 32.943 147.577 34.3501V95.417C147.577 96.824 146.437 97.9614 145.033 97.9614Z" fill="#556080"/>
<path d="M7.63335 19.0834C11.8491 19.0834 15.2667 15.6658 15.2667 11.45C15.2667 7.23422 11.8491 3.81665 7.63335 3.81665C3.41757 3.81665 0 7.23422 0 11.45C0 15.6658 3.41757 19.0834 7.63335 19.0834Z" fill="#596894"/>
<path d="M84.3309 49.1927C93.6458 49.1927 101.197 41.6415 101.197 32.3267C101.197 23.0118 93.6458 15.4606 84.3309 15.4606C75.016 15.4606 67.4648 23.0118 67.4648 32.3267C67.4648 41.6415 75.016 49.1927 84.3309 49.1927Z" fill="#D25627"/>
<path d="M76.9911 40.9634C76.6589 40.9634 76.3268 40.8362 76.0738 40.5832C75.5665 40.0759 75.5665 39.256 76.0738 38.7487L90.7525 24.07C91.2598 23.5628 92.0797 23.5628 92.587 24.07C93.0943 24.5773 93.0943 25.3973 92.587 25.9045L77.9083 40.5832C77.654 40.8375 77.3232 40.9634 76.9911 40.9634Z" fill="white"/>
<path d="M91.6698 40.9634C91.3376 40.9634 91.0055 40.8362 90.7525 40.5832L76.0738 25.9045C75.5665 25.3973 75.5665 24.5773 76.0738 24.07C76.5811 23.5628 77.401 23.5628 77.9083 24.07L92.587 38.7487C93.0943 39.256 93.0943 40.0759 92.587 40.5832C92.334 40.8375 92.0019 40.9634 91.6698 40.9634Z" fill="white"/>
</g>
<defs>
<clipPath id="clip0_4000_7226">
<rect width="147.578" height="147.578" fill="white"/>
</clipPath>
</defs>
</svg>
