<svg width="27" height="27" viewBox="0 0 27 27" fill="none" xmlns="http://www.w3.org/2000/svg">
<path d="M13.1846 3.1228C15.1014 3.1228 16.6553 4.67666 16.6553 6.59351V7.69214L16.6416 8.33862L17.2871 8.3562C18.7117 8.39605 19.3741 8.54983 19.8525 8.94214C20.1773 9.20842 20.4151 9.58489 20.6348 10.2488C20.8601 10.9298 21.0429 11.8353 21.2998 13.1199L21.959 16.4158C22.3278 18.2596 22.5888 19.5742 22.6445 20.5798C22.6992 21.5677 22.5462 22.1331 22.1992 22.5564C21.8522 22.9796 21.3281 23.2405 20.3486 23.3806C19.3516 23.5233 18.0113 23.5251 16.1309 23.5251H10.2383C8.35815 23.5251 7.01841 23.5232 6.02148 23.3806C5.04214 23.2405 4.51787 22.9796 4.1709 22.5564C3.82391 22.1331 3.67095 21.5677 3.72559 20.5798C3.78126 19.5742 4.04237 18.2596 4.41113 16.4158L5.07031 13.1199C5.32721 11.8354 5.50905 10.9298 5.73438 10.2488C5.95409 9.58477 6.19281 9.20843 6.51758 8.94214C6.99618 8.54978 7.65832 8.39605 9.08301 8.3562L9.72559 8.33862L9.71387 7.69507V6.59351C9.71387 4.67679 11.2679 3.12301 13.1846 3.1228ZM9.88867 9.23999C8.92279 9.23999 8.13965 10.0232 8.13965 10.989C8.13986 11.9547 8.92293 12.7371 9.88867 12.7371C10.8542 12.7369 11.6375 11.9546 11.6377 10.989C11.6377 10.0233 10.8544 9.24017 9.88867 9.23999ZM16.4814 9.23999C15.5156 9.24005 14.7324 10.0232 14.7324 10.989C14.7326 11.9547 15.5157 12.737 16.4814 12.7371C17.4472 12.7371 18.2303 11.9547 18.2305 10.989C18.2305 10.0232 17.4473 9.23999 16.4814 9.23999ZM13.1846 3.47046C11.4603 3.47067 10.0625 4.86915 10.0625 6.59351V8.34253L10.7129 8.34155H15.6572L16.3076 8.34253V6.59351C16.3076 4.86902 14.909 3.47046 13.1846 3.47046Z" stroke="#122544" stroke-width="1.3"/>
</svg>
