<svg width="40" height="40" viewBox="0 0 40 40" fill="none" xmlns="http://www.w3.org/2000/svg">
<path d="M20 40C31.0457 40 40 31.0457 40 20C40 8.9543 31.0457 0 20 0C8.9543 0 0 8.9543 0 20C0 31.0457 8.9543 40 20 40Z" fill="#FDECBB"/>
<path d="M24.7502 11.56V10C24.7502 9.59 24.4102 9.25 24.0002 9.25C23.5902 9.25 23.2502 9.59 23.2502 10V11.5H16.7502V10C16.7502 9.59 16.4102 9.25 16.0002 9.25C15.5902 9.25 15.2502 9.59 15.2502 10V11.56C12.5502 11.81 11.2402 13.42 11.0402 15.81C11.0202 16.1 11.2602 16.34 11.5402 16.34H28.4602C28.7502 16.34 28.9902 16.09 28.9602 15.81C28.7602 13.42 27.4502 11.81 24.7502 11.56Z" fill="#E1B01B"/>
<path d="M28 17.84H12C11.45 17.84 11 18.29 11 18.84V25C11 28 12.5 30 16 30H20.93C21.62 30 22.1 29.33 21.88 28.68C21.68 28.1 21.51 27.46 21.51 27C21.51 23.97 23.98 21.5 27.01 21.5C27.3 21.5 27.59 21.52 27.87 21.57C28.47 21.66 29.01 21.19 29.01 20.59V18.85C29 18.29 28.55 17.84 28 17.84ZM17.21 25.71C17.02 25.89 16.76 26 16.5 26C16.37 26 16.24 25.97 16.12 25.92C16 25.87 15.89 25.8 15.79 25.71C15.61 25.52 15.5 25.27 15.5 25C15.5 24.87 15.53 24.74 15.58 24.62C15.63 24.49 15.7 24.39 15.79 24.29C15.89 24.2 16 24.13 16.12 24.08C16.48 23.92 16.93 24.01 17.21 24.29C17.3 24.39 17.37 24.49 17.42 24.62C17.47 24.74 17.5 24.87 17.5 25C17.5 25.27 17.39 25.52 17.21 25.71ZM17.21 22.21C17.02 22.39 16.76 22.5 16.5 22.5C16.37 22.5 16.24 22.48 16.12 22.42C16 22.37 15.89 22.3 15.79 22.21C15.61 22.02 15.5 21.76 15.5 21.5C15.5 21.37 15.53 21.24 15.58 21.12C15.63 21 15.7 20.89 15.79 20.79C15.89 20.7 16 20.63 16.12 20.58C16.48 20.43 16.93 20.51 17.21 20.79C17.3 20.89 17.37 21 17.42 21.12C17.47 21.24 17.5 21.37 17.5 21.5C17.5 21.76 17.39 22.02 17.21 22.21ZM20.92 21.88C20.87 22 20.8 22.11 20.71 22.21C20.61 22.3 20.5 22.37 20.38 22.42C20.26 22.48 20.13 22.5 20 22.5C19.74 22.5 19.48 22.39 19.29 22.21C19.2 22.11 19.13 22 19.08 21.88C19.03 21.76 19 21.63 19 21.5C19 21.24 19.11 20.98 19.29 20.79C19.57 20.51 20.01 20.42 20.38 20.58C20.5 20.63 20.61 20.7 20.71 20.79C20.89 20.98 21 21.24 21 21.5C21 21.63 20.98 21.76 20.92 21.88Z" fill="#E1B01B"/>
<path d="M27 23C25.98 23 25.04 23.39 24.33 24.03C24.17 24.17 24.02 24.32 23.89 24.49C23.33 25.18 23 26.05 23 27C23 29.21 24.8 31 27 31C27.96 31 28.83 30.66 29.52 30.11C30.08 29.64 30.52 29.03 30.76 28.33C30.92 27.92 31 27.47 31 27C31 24.8 29.21 23 27 23ZM29.4 26.23C29.4 26.51 29.18 26.72 28.91 26.72C28.64 26.72 28.42 26.51 28.42 26.23V26.13C28.42 26.02 28.34 25.93 28.23 25.93H26.23C26.33 26.12 26.31 26.35 26.15 26.51C26.06 26.6 25.94 26.65 25.8 26.65C25.68 26.65 25.55 26.6 25.46 26.51L24.74 25.79C24.7 25.75 24.66 25.69 24.63 25.63C24.59 25.51 24.59 25.38 24.63 25.26C24.66 25.21 24.69 25.14 24.74 25.1L25.46 24.39C25.65 24.19 25.96 24.19 26.14 24.39C26.3 24.54 26.32 24.78 26.22 24.96H28.23C28.87 24.96 29.39 25.48 29.39 26.13V26.23H29.4ZM28.2 29.76C28.07 29.76 27.94 29.72 27.85 29.62C27.69 29.47 27.67 29.23 27.77 29.05H25.76C25.12 29.05 24.6 28.53 24.6 27.88V27.78C24.6 27.5 24.82 27.29 25.09 27.29C25.36 27.29 25.58 27.5 25.58 27.78V27.88C25.58 27.99 25.66 28.08 25.77 28.08H27.78C27.68 27.89 27.7 27.66 27.86 27.5C28.05 27.31 28.36 27.31 28.54 27.5L29.26 28.22C29.3 28.26 29.34 28.32 29.37 28.38C29.41 28.5 29.41 28.63 29.37 28.75C29.34 28.8 29.3 28.86 29.26 28.9L28.54 29.61C28.45 29.71 28.32 29.76 28.2 29.76Z" fill="#E1B01B"/>
</svg>
