<svg width="30" height="30" viewBox="0 0 30 30" fill="none" xmlns="http://www.w3.org/2000/svg">
<circle cx="14.9355" cy="14.9355" r="14.5346" fill="#122544" stroke="white" stroke-width="0.801865"/>
<path d="M14.4931 20.7355C12.5142 20.7355 10.5726 20.7355 8.59362 20.7355C7.77217 20.7355 7.17475 20.2128 7.02539 19.4286C7.02539 19.354 7.02539 19.2793 7.02539 19.1673C7.02539 16.9643 7.02539 14.7613 7.02539 12.521C7.02539 11.6995 7.69749 11.0274 8.51894 11.0274C9.07902 11.0274 9.6391 11.0274 10.2365 11.0274C10.5726 11.0274 10.8339 10.8407 10.946 10.5047C11.0953 10.094 11.2073 9.68324 11.3567 9.27251C11.4314 8.9738 11.6927 8.78711 12.0288 8.78711C13.6717 8.78711 15.3146 8.78711 16.9202 8.78711C17.2562 8.78711 17.5176 8.9738 17.6296 9.27251C17.7789 9.68324 17.891 10.094 18.0403 10.5047C18.1523 10.8407 18.3764 11.0274 18.7498 11.0274C19.3098 11.0274 19.8326 11.0274 20.3927 11.0274C21.2888 11.0274 21.9609 11.6622 21.9609 12.5957C21.9609 14.7986 21.9609 17.0016 21.9609 19.2046C21.9609 19.9141 21.4755 20.5488 20.8034 20.6982C20.654 20.7355 20.5047 20.7355 20.3553 20.7355C18.3764 20.7355 16.4347 20.7355 14.4931 20.7355ZM14.4931 19.242C16.5468 19.242 18.227 17.5617 18.227 15.5081C18.227 13.4545 16.5841 11.7742 14.4931 11.7742C12.4395 11.7742 10.7593 13.4171 10.7593 15.5081C10.7593 17.5244 12.4395 19.242 14.4931 19.242ZM19.9446 13.5665C20.2433 13.5665 20.4673 13.3424 20.4673 13.0437C20.4673 12.745 20.2433 12.521 19.9446 12.521C19.6459 12.521 19.4218 12.745 19.4218 13.0437C19.4218 13.3424 19.6459 13.5665 19.9446 13.5665Z" fill="white"/>
<path d="M14.4558 17.7484C13.2236 17.7484 12.2155 16.7403 12.2155 15.5081C12.2155 14.2759 13.2236 13.3051 14.4558 13.3051C15.688 13.3051 16.6961 14.3133 16.6961 15.5454C16.6961 16.7403 15.7253 17.7484 14.4558 17.7484Z" fill="white"/>
</svg>
