<svg width="88" height="88" viewBox="0 0 88 88" fill="none" xmlns="http://www.w3.org/2000/svg">
<path d="M8.37574e-05 43.5758C-0.0464712 19.5534 19.3204 0.0934443 43.3893 0.000334326C67.5514 -0.0927756 87.0114 19.2741 87.0579 43.5292C87.151 67.5982 67.691 87.0116 43.4359 87.1047C19.5066 87.1513 0.0466387 67.6447 8.37574e-05 43.5758ZM43.4359 51.9557C43.4359 52.0488 43.4359 52.0954 43.4359 52.1885C40.5495 52.1885 37.7096 52.0954 34.8232 52.1885C27.84 52.4678 22.393 55.587 18.6686 61.5926C16.7599 64.6652 16.9927 66.9464 19.2738 69.6931C21.9275 72.8589 25.3726 75.0004 29.2366 76.3039C38.2217 79.3766 47.3465 79.4697 56.4247 76.7695C61.313 75.3263 65.6426 72.7658 68.7152 68.4362C70.0188 66.6205 70.1585 64.8049 69.0411 62.803C65.922 57.4026 61.4061 53.7713 55.2609 52.7006C51.3968 52.0488 47.3931 52.1419 43.4359 51.9557ZM43.5756 17.2257C36.4061 17.2257 30.3074 23.1847 30.3539 30.3542C30.3539 37.1978 35.5681 43.5758 43.6687 43.6689C50.8381 43.7155 56.8903 37.4771 56.8437 30.4007C56.7506 23.2313 50.6985 17.2257 43.5756 17.2257Z" fill="#ECECEC"/>
<path d="M43.4359 51.9557C47.3931 52.1885 51.3968 52.0488 55.2609 52.7006C61.4061 53.7248 65.922 57.3561 69.0411 62.803C70.205 64.8049 70.0188 66.6205 68.7152 68.4362C65.6892 72.7658 61.3596 75.3263 56.4247 76.7695C47.3465 79.4697 38.2217 79.3766 29.2366 76.3039C25.3726 75.0004 21.974 72.8589 19.2738 69.6931C16.9461 66.9464 16.7599 64.6652 18.6686 61.5926C22.3465 55.587 27.7934 52.5144 34.8232 52.1885C37.7096 52.0488 40.5495 52.1885 43.4359 52.1885C43.4359 52.0954 43.4359 52.0022 43.4359 51.9557Z" fill="#122544"/>
<path d="M43.5756 17.2257C50.745 17.2257 56.7507 23.2314 56.7973 30.4009C56.8439 37.4773 50.7917 43.7156 43.6222 43.6691C35.5217 43.576 30.3075 37.2445 30.3075 30.3543C30.3075 23.1849 36.3595 17.2257 43.5756 17.2257Z" fill="#122544"/>
</svg>
