<svg width="58" height="58" viewBox="0 0 58 58" fill="none" xmlns="http://www.w3.org/2000/svg">
<g filter="url(#filter0_d_4971_5077)">
<circle cx="29" cy="28" r="25" fill="white"/>
</g>
<path fill-rule="evenodd" clip-rule="evenodd" d="M25.2161 14.1716C24.8334 14.4978 24.642 14.6608 24.4377 14.7978C23.9692 15.1118 23.4431 15.3297 22.8899 15.4389C22.6485 15.4866 22.3979 15.5066 21.8967 15.5466C20.6374 15.6471 20.0077 15.6973 19.4824 15.8829C18.2674 16.312 17.3117 17.2677 16.8825 18.4828C16.697 19.0081 16.6467 19.6377 16.5462 20.897C16.5062 21.3983 16.4862 21.6489 16.4386 21.8902C16.3293 22.4435 16.1114 22.9696 15.7975 23.438C15.6605 23.6424 15.4974 23.8337 15.1713 24.2164C14.3519 25.178 13.9422 25.6587 13.7019 26.1614C13.1462 27.3241 13.1462 28.6755 13.7019 29.8382C13.9422 30.3409 14.3519 30.8216 15.1713 31.7832C15.4974 32.1658 15.6605 32.3572 15.7975 32.5615C16.1114 33.0299 16.3293 33.556 16.4386 34.1093C16.4862 34.3507 16.5062 34.6014 16.5462 35.1025C16.6467 36.3618 16.697 36.9915 16.8825 37.5168C17.3117 38.7318 18.2674 39.6876 19.4824 40.1168C20.0077 40.3022 20.6374 40.3525 21.8967 40.453C22.3979 40.493 22.6485 40.5131 22.8899 40.5607C23.4431 40.6699 23.9692 40.8879 24.4377 41.2018C24.642 41.3387 24.8334 41.5018 25.2161 41.8279C26.1776 42.6474 26.6583 43.0571 27.161 43.2973C28.3237 43.853 29.6752 43.853 30.8379 43.2973C31.3406 43.0571 31.8213 42.6474 32.7828 41.8279C33.1655 41.5018 33.3569 41.3387 33.5611 41.2018C34.0296 40.8879 34.5557 40.6699 35.109 40.5607C35.3504 40.5131 35.601 40.493 36.1021 40.453C37.3615 40.3525 37.9912 40.3022 38.5165 40.1168C39.7315 39.6876 40.6873 38.7318 41.1164 37.5168C41.3018 36.9915 41.3521 36.3618 41.4527 35.1025C41.4926 34.6014 41.5127 34.3507 41.5603 34.1093C41.6696 33.556 41.8875 33.0299 42.2015 32.5615C42.3384 32.3572 42.5015 32.1658 42.8275 31.7832C43.647 30.8216 44.0567 30.3409 44.297 29.8382C44.8526 28.6755 44.8526 27.3241 44.297 26.1614C44.0567 25.6587 43.647 25.178 42.8275 24.2164C42.5015 23.8337 42.3384 23.6424 42.2015 23.438C41.8875 22.9696 41.6696 22.4435 41.5603 21.8902C41.5127 21.6489 41.4926 21.3983 41.4527 20.897C41.3521 19.6377 41.3018 19.0081 41.1164 18.4828C40.6873 17.2677 39.7315 16.312 38.5165 15.8829C37.9912 15.6973 37.3615 15.6471 36.1021 15.5466C35.601 15.5066 35.3504 15.4866 35.109 15.4389C34.5557 15.3297 34.0296 15.1118 33.5611 14.7978C33.3569 14.6608 33.1655 14.4978 32.7828 14.1716C31.8213 13.3522 31.3406 12.9425 30.8379 12.7023C29.6752 12.1466 28.3237 12.1466 27.161 12.7023C26.6583 12.9425 26.1776 13.3522 25.2161 14.1716ZM35.8721 24.6419C36.3715 24.1424 36.3715 23.3326 35.8721 22.8332C35.3727 22.3337 34.5628 22.3337 34.0634 22.8332L26.4416 30.455L23.9355 27.9489C23.436 27.4495 22.6262 27.4495 22.1268 27.9489C21.6273 28.4483 21.6273 29.258 22.1268 29.7576L25.5372 33.1681C26.0367 33.6675 26.8464 33.6675 27.346 33.1681L31.609 28.905L35.8721 24.6419Z" fill="#565EFF"/>
<defs>
<filter id="filter0_d_4971_5077" x="0" y="0" width="58" height="58" filterUnits="userSpaceOnUse" color-interpolation-filters="sRGB">
<feFlood flood-opacity="0" result="BackgroundImageFix"/>
<feColorMatrix in="SourceAlpha" type="matrix" values="0 0 0 0 0 0 0 0 0 0 0 0 0 0 0 0 0 0 127 0" result="hardAlpha"/>
<feOffset dy="1"/>
<feGaussianBlur stdDeviation="2"/>
<feComposite in2="hardAlpha" operator="out"/>
<feColorMatrix type="matrix" values="0 0 0 0 0 0 0 0 0 0 0 0 0 0 0 0 0 0 0.25 0"/>
<feBlend mode="normal" in2="BackgroundImageFix" result="effect1_dropShadow_4971_5077"/>
<feBlend mode="normal" in="SourceGraphic" in2="effect1_dropShadow_4971_5077" result="shape"/>
</filter>
</defs>
</svg>
