<svg width="83" height="83" viewBox="0 0 83 83" fill="none" xmlns="http://www.w3.org/2000/svg">
<path fill-rule="evenodd" clip-rule="evenodd" d="M41.5 80.4062C61.5549 80.4062 77.8125 64.1486 77.8125 44.0938C77.8125 24.0389 61.5549 7.78125 41.5 7.78125C21.4452 7.78125 5.1875 24.0389 5.1875 44.0938C5.1875 50.6064 6.90197 56.7186 9.90416 62.0036L5.1875 80.4062L24.1604 76.0067C29.313 78.8121 35.2203 80.4062 41.5 80.4062ZM41.5 74.8198C58.4696 74.8198 72.2261 61.0634 72.2261 44.0938C72.2261 27.1244 58.4696 13.3678 41.5 13.3678C24.5305 13.3678 10.774 27.1244 10.774 44.0938C10.774 50.6458 12.8248 56.7188 16.3195 61.7058L13.5673 72.0264L24.0698 69.4007C29.0225 72.8185 35.0276 74.8198 41.5 74.8198Z" fill="#BFC8D0"/>
<path d="M72.625 41.5C72.625 58.6898 58.6898 72.625 41.5 72.625C34.9435 72.625 28.8604 70.5977 23.8435 67.1358L13.2045 69.7955L15.9924 59.3409C12.4524 54.289 10.375 48.1371 10.375 41.5C10.375 24.3101 24.3101 10.375 41.5 10.375C58.6898 10.375 72.625 24.3101 72.625 41.5Z" fill="url(#paint0_linear_5299_3986)"/>
<path fill-rule="evenodd" clip-rule="evenodd" d="M41.5 77.8125C61.5549 77.8125 77.8125 61.5549 77.8125 41.5C77.8125 21.4452 61.5549 5.1875 41.5 5.1875C21.4452 5.1875 5.1875 21.4452 5.1875 41.5C5.1875 48.0126 6.90197 54.1248 9.90416 59.4098L5.1875 77.8125L24.1604 73.413C29.313 76.2184 35.2203 77.8125 41.5 77.8125ZM41.5 72.2261C58.4696 72.2261 72.2261 58.4696 72.2261 41.5C72.2261 24.5305 58.4696 10.774 41.5 10.774C24.5305 10.774 10.774 24.5305 10.774 41.5C10.774 48.0521 12.8248 54.1251 16.3195 59.1121L13.5673 69.4326L24.0698 66.807C29.0225 70.2247 35.0276 72.2261 41.5 72.2261Z" fill="white"/>
<path d="M32.4219 24.6404C31.5587 22.9062 30.234 23.0597 28.8962 23.0597C26.505 23.0597 22.7764 25.924 22.7764 31.2547C22.7764 35.6234 24.7014 40.4054 31.1883 47.5593C37.4486 54.4633 45.6744 58.0346 52.5032 57.913C59.332 57.7916 60.7371 51.915 60.7371 49.9305C60.7371 49.0509 60.1911 48.6121 59.8152 48.4928C57.4881 47.3759 53.196 45.2949 52.2194 44.9041C51.2429 44.5132 50.733 45.042 50.416 45.3297C49.5305 46.1734 47.7751 48.6608 47.1738 49.2203C46.5729 49.7798 45.6767 49.4965 45.3037 49.2852C43.9314 48.7345 40.2106 47.0794 37.245 44.2043C33.5769 40.6487 33.3616 39.4253 32.6706 38.3364C32.1179 37.4652 32.5236 36.9309 32.7259 36.6972C33.5162 35.7855 34.6074 34.3776 35.0968 33.678C35.586 32.9782 35.1977 31.9161 34.9645 31.2547C33.962 28.4094 33.1126 26.0275 32.4219 24.6404Z" fill="white"/>
<defs>
<linearGradient id="paint0_linear_5299_3986" x1="68.7344" y1="18.1562" x2="10.375" y2="72.625" gradientUnits="userSpaceOnUse">
<stop stop-color="#5BD066"/>
<stop offset="1" stop-color="#27B43E"/>
</linearGradient>
</defs>
</svg>
