<svg width="18" height="18" viewBox="0 0 18 18" fill="none" xmlns="http://www.w3.org/2000/svg">
<g clip-path="url(#clip0_7860_6611)">
<path fill-rule="evenodd" clip-rule="evenodd" d="M7.57125 13.7531C4.03312 13.7531 1.16438 10.935 1.16438 7.45312C1.16438 3.97125 4.03312 1.14752 7.57125 1.14752C11.1094 1.14752 13.9781 3.97125 13.9781 7.45312C13.9781 10.935 11.1094 13.7531 7.57125 13.7531ZM17.8245 17.0156L13.1788 12.4425C14.3955 11.1206 15.1425 9.37687 15.1425 7.45312C15.1425 3.33562 11.7529 0 7.57125 0C3.38962 0 0 3.33562 0 7.45312C0 11.565 3.38962 14.9006 7.57125 14.9006C9.378 14.9006 11.0351 14.2763 12.3368 13.2356L17.0016 17.8256C17.2288 18.0506 17.5972 18.0506 17.8245 17.8256C18.0523 17.6062 18.0523 17.2406 17.8245 17.0156ZM10.4169 6.98064H8.16863V4.73064C8.16863 4.41564 7.91719 4.16814 7.60669 4.16814C7.29676 4.16814 7.04474 4.41564 7.04474 4.73064V6.98064H4.79756C4.48762 6.98064 4.23562 7.08188 4.23562 7.39126C4.23562 7.70626 4.48762 8.10564 4.79756 8.10564H7.04474V10.3556C7.04474 10.6706 7.29676 10.9181 7.60669 10.9181C7.91719 10.9181 8.16863 10.6706 8.16863 10.3556V8.10564H10.4169C10.7269 8.10564 10.9789 7.85252 10.9789 7.54314C10.9789 7.23377 10.7269 6.98064 10.4169 6.98064Z" fill="white"/>
</g>
<defs>
<clipPath id="clip0_7860_6611">
<rect width="18" height="18" fill="white"/>
</clipPath>
</defs>
</svg>
