<svg width="187" height="32" viewBox="0 0 187 32" fill="none" xmlns="http://www.w3.org/2000/svg">
<g clip-path="url(#clip0_707_4668)">
<path d="M56.9444 22.8945C52.7029 22.8945 51.3672 22.2383 51.3672 19.4263V11.8573C51.3672 9.09211 52.6795 8.3891 56.9444 8.3891H68.7549V12.0682H58.5379C57.1553 12.0682 56.8975 12.3259 56.8975 13.0758V18.2078C56.8975 18.9342 57.2256 19.192 58.5379 19.192H63.4355V17.3876H58.5847V13.7788H68.7549V22.8711H56.9444V22.8945Z" fill="white"/>
<path d="M76.2295 22.8945C72.0818 22.8945 70.6992 22.3086 70.6992 19.4263V11.8573C70.6992 8.95151 72.1287 8.3891 76.2295 8.3891H83.5877C87.7354 8.3891 89.1649 8.95151 89.1649 11.8573V19.4263C89.1649 22.3321 87.7354 22.8945 83.5877 22.8945H76.2295ZM83.6346 13.0758C83.6346 12.3025 83.283 12.0916 82.0176 12.0916H77.8465C76.6513 12.0916 76.2295 12.2791 76.2295 13.0758V18.2312C76.2295 18.9576 76.5107 19.2154 77.8465 19.2154H82.0176C83.283 19.2154 83.6346 18.9811 83.6346 18.2312V13.0758Z" fill="white"/>
<path d="M102.99 22.8945V18.9342C102.99 18.2781 102.732 17.95 101.631 17.95H96.6631V22.8945H91.1328V8.3891H103.389C107.513 8.3891 108.403 9.25614 108.403 11.8573V14.0366C108.403 15.302 107.771 16.005 106.857 16.2628C107.724 16.4503 108.497 17.1533 108.497 18.3484V22.8945H102.99ZM102.99 12.9352C102.99 12.3962 102.826 12.0682 101.936 12.0682H96.6397V14.6224H101.936C102.896 14.6224 102.99 14.2944 102.99 13.6382V12.9352Z" fill="white"/>
<path d="M115.739 22.8945C111.592 22.8945 110.209 22.3086 110.209 19.4263V11.8573C110.209 8.95151 111.638 8.3891 115.739 8.3891H123.097C127.245 8.3891 128.675 8.95151 128.675 11.8573V19.4263C128.675 22.3321 127.245 22.8945 123.097 22.8945H115.739ZM123.144 13.0758C123.144 12.3025 122.793 12.0916 121.527 12.0916H117.356C116.161 12.0916 115.739 12.2791 115.739 13.0758V18.2312C115.739 18.9576 116.021 19.2154 117.356 19.2154H121.527C122.793 19.2154 123.144 18.9811 123.144 18.2312V13.0758Z" fill="white"/>
<path d="M136.079 22.8945C131.838 22.8945 130.502 22.2383 130.502 19.4263V11.8573C130.502 9.09211 131.814 8.3891 136.079 8.3891H147.89V12.0682H137.673C136.29 12.0682 136.032 12.3259 136.032 13.0758V18.2078C136.032 18.9342 136.36 19.192 137.673 19.192H142.57V17.3876H137.719V13.7788H147.89V22.8711H136.079V22.8945Z" fill="white"/>
<path d="M155.458 22.8945C151.287 22.8945 149.881 22.2852 149.881 19.4263V8.3891H155.435V18.2078C155.435 18.9811 155.763 19.192 157.052 19.192H161.035C162.324 19.192 162.629 18.9811 162.629 18.2078V8.3891H168.136V19.4263C168.136 22.2618 166.776 22.8945 162.605 22.8945H155.458Z" fill="white"/>
<path d="M170.199 22.8945V8.3891H186.954V12.0682H175.776V13.896H181.682V17.3642H175.776V19.2154H186.954V22.8945H170.199Z" fill="white"/>
<path d="M3.2104 31.5416C2.83546 31.5416 2.46053 31.4713 2.10902 31.3307C0.820175 30.8386 0 29.6201 0 28.1906V3.351C0 1.49975 1.42945 0 3.2104 0H20.9028V4.14774H4.14774V25.7769L16.7784 11.5996L19.8717 14.3648L5.55376 30.4637C4.94449 31.1667 4.07744 31.5416 3.2104 31.5416Z" fill="#FF5408"/>
<path d="M21.16 23.2226H17.0123V14.3178H8.78711V10.1701H21.16V23.2226Z" fill="white"/>
<path d="M35.9954 31.073L22.8023 12.5839H35.0347V4.14781H20.4355V6.10352e-05H35.5268C37.5655 6.10352e-05 39.2058 1.73415 39.2058 3.89004V12.8651C39.2058 14.9976 37.5421 16.7551 35.5268 16.7551H30.8869L39.3933 28.6593L35.9954 31.073Z" fill="#FF5408"/>
</g>
<defs>
<clipPath id="clip0_707_4668">
<rect width="187" height="31.6353" fill="white"/>
</clipPath>
</defs>
</svg>
