<?xml version="1.0" encoding="UTF-8"?>
<svg version="1.1" xmlns="http://www.w3.org/2000/svg" width="40" height="32">
<path d="M0 0 C0.81509537 -0.00570007 1.63019073 -0.01140015 2.46998596 -0.01727295 C4.19750667 -0.02673627 5.92504554 -0.0332622 7.65258789 -0.03710938 C10.30191351 -0.04682187 12.95046583 -0.07783464 15.59960938 -0.109375 C17.27473496 -0.11590403 18.94986611 -0.12115489 20.625 -0.125 C21.42087021 -0.1373468 22.21674042 -0.1496936 23.03672791 -0.16241455 C25.27124023 -0.15332031 25.27124023 -0.15332031 28.87890625 0.203125 C31.11355854 3.55510343 31.14999274 4.78103746 31.12890625 8.703125 C31.13664062 10.14171875 31.13664062 10.14171875 31.14453125 11.609375 C30.87890625 14.203125 30.87890625 14.203125 28.87890625 17.203125 C27.22890625 17.533125 25.57890625 17.863125 23.87890625 18.203125 C26.18890625 21.503125 28.49890625 24.803125 30.87890625 28.203125 C30.21890625 29.193125 29.55890625 30.183125 28.87890625 31.203125 C26.44596881 30.81813771 25.16468058 30.49409437 23.41503906 28.71264648 C22.97514648 28.08946533 22.53525391 27.46628418 22.08203125 26.82421875 C21.59863281 26.15068359 21.11523438 25.47714844 20.6171875 24.78320312 C20.12605469 24.07615234 19.63492187 23.36910156 19.12890625 22.640625 C18.62230469 21.92970703 18.11570312 21.21878906 17.59375 20.48632812 C16.34578322 18.73211068 15.11105128 16.96849141 13.87890625 15.203125 C13.54890625 18.173125 13.21890625 21.143125 12.87890625 24.203125 C11.22890625 24.203125 9.57890625 24.203125 7.87890625 24.203125 C7.54890625 22.883125 7.21890625 21.563125 6.87890625 20.203125 C5.77482422 21.51990234 5.77482422 21.51990234 4.6484375 22.86328125 C3.6636318 23.99815258 2.67790638 25.13222626 1.69140625 26.265625 C0.96727539 27.13670898 0.96727539 27.13670898 0.22851562 28.02539062 C-1.2265625 29.67578125 -1.2265625 29.67578125 -4.12109375 32.203125 C-6.80200195 31.86108398 -6.80200195 31.86108398 -9.12109375 31.203125 C-9.14574997 26.94897877 -9.16393274 22.69487002 -9.17602539 18.44067383 C-9.18106476 16.99242427 -9.18789628 15.54417983 -9.1965332 14.09594727 C-9.20861622 12.01837912 -9.21432586 9.94087803 -9.21875 7.86328125 C-9.22398682 6.61168213 -9.22922363 5.36008301 -9.23461914 4.07055664 C-9.0090118 -1.62784818 -4.60805205 0.02454417 0 0 Z M-4.12109375 5.203125 C-4.12109375 11.143125 -4.12109375 17.083125 -4.12109375 23.203125 C1.87215811 19.1006271 1.87215811 19.1006271 2.87890625 15.203125 C1.55890625 15.203125 0.23890625 15.203125 -1.12109375 15.203125 C-1.12109375 13.553125 -1.12109375 11.903125 -1.12109375 10.203125 C3.49890625 10.203125 8.11890625 10.203125 12.87890625 10.203125 C12.87890625 10.863125 12.87890625 11.523125 12.87890625 12.203125 C17.16890625 12.203125 21.45890625 12.203125 25.87890625 12.203125 C25.87890625 9.893125 25.87890625 7.583125 25.87890625 5.203125 C15.97890625 5.203125 6.07890625 5.203125 -4.12109375 5.203125 Z " fill="#FF5408" transform="translate(9.12109375,-0.203125)"/>
<path d="M0 0 C4.62 0 9.24 0 14 0 C14 4.62 14 9.24 14 14 C12.35 14 10.7 14 9 14 C9 10.7 9 7.4 9 4 C4.545 4.495 4.545 4.495 0 5 C0 3.35 0 1.7 0 0 Z " fill="#FFFEFE" transform="translate(8,10)"/>
</svg>
