<svg width="20" height="20" viewBox="0 0 20 20" fill="none" xmlns="http://www.w3.org/2000/svg">
<path fill-rule="evenodd" clip-rule="evenodd" d="M9.23388 0.0923762C9.48022 -0.0307921 9.77017 -0.0307921 10.0165 0.0923762L18.7665 4.46738C19.0629 4.61559 19.2502 4.91857 19.2502 5.25C19.2502 5.58143 19.0629 5.88441 18.7665 6.03262L10.0165 10.4076C9.77017 10.5308 9.48022 10.5308 9.23388 10.4076L0.48388 6.03262C0.187444 5.88441 0.000191667 5.58143 0.000191667 5.25C0.000191667 4.91857 0.187444 4.61559 0.48388 4.46738L9.23388 0.0923762ZM2.83175 5.25L9.62519 8.64672L16.4186 5.25L9.62519 1.85328L2.83175 5.25Z" fill="#969CB9"/>
<path d="M0.0925679 13.6087C0.308683 13.1765 0.834272 13.0013 1.2665 13.2174L9.62519 17.3967L17.9839 13.2174C18.4161 13.0013 18.9417 13.1765 19.1578 13.6087C19.3739 14.0409 19.1987 14.5665 18.7665 14.7826L10.0165 19.1576C9.77017 19.2808 9.48022 19.2808 9.23388 19.1576L0.48388 14.7826C0.0516486 14.5665 -0.123548 14.0409 0.0925679 13.6087Z" fill="#969CB9"/>
<path d="M1.2665 8.84238C0.834272 8.62626 0.308683 8.80146 0.0925679 9.23369C-0.123548 9.66592 0.0516486 10.1915 0.48388 10.4076L9.23388 14.7826C9.48022 14.9058 9.77017 14.9058 10.0165 14.7826L18.7665 10.4076C19.1987 10.1915 19.3739 9.66592 19.1578 9.23369C18.9417 8.80146 18.4161 8.62626 17.9839 8.84238L9.62519 13.0217L1.2665 8.84238Z" fill="#969CB9"/>
</svg>
