<svg width="24" height="24" viewBox="0 0 24 24" fill="none" xmlns="http://www.w3.org/2000/svg">
<path d="M18.63 7.15002C18.67 7.76002 18.62 8.45002 18.5 9.22002L17.77 13.91C17.15 17.82 15.34 19.14 11.43 18.53L6.73999 17.79C5.38999 17.58 4.34999 17.22 3.58999 16.68C2.13999 15.67 1.71999 14.01 2.11999 11.45L2.85999 6.76002C3.47999 2.85002 5.28999 1.53002 9.19999 2.14002L13.89 2.88002C17.03 3.37002 18.5 4.65002 18.63 7.15002Z" stroke="#969CB9" stroke-width="1.5" stroke-linecap="round" stroke-linejoin="round"/>
<path d="M20.4998 13.4704L18.9998 17.9804C17.7498 21.7404 15.7498 22.7404 11.9898 21.4904L7.47984 19.9904C5.20984 19.2404 3.94984 18.2004 3.58984 16.6804C4.34984 17.2204 5.38984 17.5804 6.73984 17.7904L11.4298 18.5304C15.3398 19.1404 17.1498 17.8204 17.7698 13.9104L18.4998 9.22039C18.6198 8.45039 18.6698 7.76039 18.6298 7.15039C21.0198 8.42039 21.5398 10.3404 20.4998 13.4704Z" stroke="#969CB9" stroke-width="1.5" stroke-linecap="round" stroke-linejoin="round"/>
<path d="M8.24 8.98C9.20098 8.98 9.98 8.20098 9.98 7.24C9.98 6.27902 9.20098 5.5 8.24 5.5C7.27902 5.5 6.5 6.27902 6.5 7.24C6.5 8.20098 7.27902 8.98 8.24 8.98Z" stroke="#969CB9" stroke-width="1.5" stroke-linecap="round" stroke-linejoin="round"/>
</svg>
